<?xml version="1.0" encoding="utf-8"?>
<!-- Generator: Adobe Illustrator 16.0.0, SVG Export Plug-In . SVG Version: 6.00 Build 0)  -->
<!DOCTYPE svg PUBLIC "-//W3C//DTD SVG 1.1//EN" "http://www.w3.org/Graphics/SVG/1.1/DTD/svg11.dtd">
<svg version="1.1" id="Layer_1" xmlns="http://www.w3.org/2000/svg" xmlns:xlink="http://www.w3.org/1999/xlink" x="0px" y="0px"
	 width="1319.857px" height="142px" viewBox="0 0 1319.857 142" enable-background="new 0 0 1319.857 142" xml:space="preserve">
<g>
	<g>
		<g>
			
				<rect x="1317.351" y="33.888" transform="matrix(-0.6082 0.7938 -0.7938 -0.6082 2246.751 -957.7762)" fill="none" width="84.801" height="83.428"/>
			<path fill="#DDCCE4" d="M1342.52,108.935c-0.318-4.875,3.809-7.552,6.969-10.531c1.783-1.681,3.328-3.59,4.362-5.822
				c1.258-2.717,1.436-5.643,1.388-8.588c-0.115-7.074-1.42-14.121-2.614-21.074c-0.507-2.945-1.465-5.479-3.101-7.994
				c-1.652-2.535-3.718-4.783-5.683-7.074c-1.921-2.239-4.281-4.85-4.632-7.908c-0.321-2.809,0.984-6.373,3.556-7.744
				c2.174-1.16,4.937-0.332,6.957,0.738c2.565,1.359,4.711,3.658,5.933,6.286c0.27,0.578,0.932,0.642,1.298,0.112
				c2.363-3.434,6.845-7.059,11.112-7.428c2.841-0.248,4.535,1.906,5.399,4.357c0.967,2.738,0.387,5.467-1.064,7.896
				c-2.268,3.793-6.694,6.369-7.965,10.732c-1.18,4.054-0.638,8.838-0.288,12.967c0.477,5.637,1.371,11.268,2.693,16.768
				c1.1,4.57,2.449,8.971,5.644,12.522c1.055,1.173,2.282,2.202,3.573,3.101c1.297,0.901,2.743,1.582,3.993,2.538
				c2.197,1.684,3.373,4.347,3.004,7.097c-0.334,2.469-1.913,4.58-4.081,5.746c-2.736,1.471-5.88,0.628-8.365-0.908
				c-2.099-1.299-4.028-3.174-5.517-5.143c-0.304-0.4-0.976-0.459-1.221,0.053c-1.768,3.7-4.88,7.315-8.724,8.877
				c-3.277,1.335-6.625,0.637-9.077-1.878C1344.139,114.653,1342.78,111.687,1342.52,108.935c-0.086-0.904-1.499-0.848-1.413,0.061
				c0.28,2.951,1.629,5.963,3.57,8.189c2.446,2.812,5.688,3.896,9.338,3.15c4.923-1.006,9.018-5.668,11.105-10.041l-1.218,0.053
				c2.588,3.42,6.601,7.125,11.078,7.426c4.86,0.33,9.032-3.299,9.517-8.131c0.232-2.325-0.52-4.684-2.032-6.464
				c-1.94-2.287-4.868-3.376-7.153-5.272c-4.146-3.445-5.696-8.047-6.973-13.092c-1.411-5.57-2.278-11.295-2.78-17.014
				c-0.36-4.099-0.912-8.888,0.347-12.891c0.649-2.068,2.417-3.705,3.852-5.251c1.679-1.812,3.341-3.67,4.474-5.884
				c2.093-4.097,1.272-10.885-3.439-12.861c-2.868-1.203-6.124,0.221-8.576,1.727c-2.489,1.531-4.851,3.621-6.513,6.035
				c0.432,0.037,0.865,0.074,1.298,0.113c-1.868-4.018-5.533-7.381-9.929-8.342c-4.512-0.986-7.848,1.88-8.917,6.126
				c-0.62,2.46-0.389,4.647,0.752,6.897c1.229,2.42,3.163,4.482,4.924,6.52c2.068,2.395,4.119,4.815,5.645,7.604
				c1.547,2.831,1.856,6.042,2.381,9.174c0.842,5.04,1.597,10.109,1.892,15.215c0.256,4.422,0.062,8.729-2.596,12.453
				c-3.474,4.867-10.495,7.668-10.045,14.561C1341.167,109.904,1342.579,109.845,1342.52,108.935"/>
		</g>
		<g>
			
				<rect x="1236.123" y="35.253" transform="matrix(-0.879 0.4768 -0.4768 -0.879 2442.5017 -462.9334)" fill="none" width="87.717" height="86.297"/>
			<path fill="#DDCCE4" d="M1249.646,102.613c1.756-4.738,6.783-5.525,11.024-7.006c2.394-0.836,4.657-1.986,6.576-3.66
				c2.333-2.033,3.735-4.723,4.933-7.523c2.877-6.73,4.617-13.938,6.422-21.008c0.764-2.996,0.927-5.791,0.442-8.857
				c-0.489-3.092-1.493-6.087-2.382-9.079c-0.871-2.925-1.999-6.386-1.04-9.423c0.882-2.789,3.618-5.604,6.624-5.814
				c2.544-0.179,4.805,1.768,6.262,3.632c1.848,2.366,2.904,5.443,2.95,8.439c0.011,0.66,0.61,0.999,1.179,0.653
				c3.68-2.246,9.441-3.778,13.628-2.328c2.788,0.965,3.479,3.715,3.263,6.395c-0.242,2.992-1.941,5.326-4.338,7.008
				c-3.742,2.627-9.008,3.191-12.049,6.777c-2.824,3.33-4.33,8.078-5.742,12.125c-1.928,5.524-3.458,11.221-4.528,16.973
				c-0.89,4.779-1.472,9.506,0.048,14.207c0.501,1.553,1.226,3.043,2.066,4.437c0.844,1.397,1.924,2.651,2.701,4.082
				c1.365,2.517,1.352,5.528-0.156,7.969c-1.356,2.19-3.738,3.519-6.278,3.706c-3.206,0.234-5.819-1.889-7.518-4.388
				c-1.436-2.11-2.466-4.696-3.042-7.184c-0.117-0.507-0.729-0.844-1.174-0.465c-3.23,2.749-7.695,4.851-11.984,4.705
				c-3.658-0.122-6.525-2.193-7.781-5.604C1248.763,108.697,1248.731,105.322,1249.646,102.613c0.301-0.889-1.058-1.432-1.359-0.537
				c-0.98,2.904-0.977,6.318-0.084,9.239c1.125,3.688,3.73,6.079,7.492,6.915c5.073,1.127,10.907-1.55,14.725-4.799l-1.174-0.465
				c1.002,4.322,3.229,9.515,7.331,11.688c4.452,2.361,9.923,0.694,12.417-3.665c1.201-2.099,1.486-4.644,0.809-6.963
				c-0.869-2.979-3.175-5.242-4.531-7.997c-2.463-5.002-1.986-10.003-1.064-15.307c1.017-5.855,2.612-11.628,4.551-17.24
				c1.389-4.024,2.888-8.779,5.766-12.029c1.485-1.68,3.846-2.479,5.852-3.335c2.351-1.003,4.703-2.056,6.707-3.669
				c3.705-2.987,5.793-9.744,2.178-13.599c-2.201-2.347-5.877-2.375-8.828-1.986c-2.998,0.396-6.109,1.374-8.697,2.952
				c0.393,0.218,0.786,0.436,1.179,0.654c-0.069-4.582-2.113-9.305-5.859-12.066c-3.845-2.834-8.205-1.535-11.006,2.025
				c-1.623,2.061-2.327,4.225-2.198,6.83c0.139,2.804,1.096,5.568,1.898,8.235c0.943,3.134,1.861,6.286,2.124,9.562
				c0.267,3.326-0.794,6.489-1.62,9.668c-1.33,5.115-2.757,10.222-4.631,15.168c-1.625,4.284-3.623,8.271-7.705,10.667
				c-5.334,3.131-13.146,2.814-15.629,9.516C1247.96,102.959,1249.317,103.498,1249.646,102.613"/>
		</g>
		<g>
			
				<rect x="1132.641" y="28.086" transform="matrix(-0.5292 0.8485 -0.8485 -0.5292 1859.1587 -889.4425)" fill="none" width="87.409" height="85.993"/>
			<path fill="#DDCCE4" d="M1161.964,106.984c-0.81-4.97,3.161-8.124,6.107-11.494c1.664-1.9,3.061-4.012,3.899-6.406
				c1.021-2.91,0.915-5.929,0.575-8.947c-0.818-7.246-2.854-14.348-4.768-21.363c-0.812-2.973-2.045-5.475-3.973-7.894
				c-1.945-2.438-4.287-4.54-6.529-6.696c-2.193-2.107-4.873-4.552-5.535-7.654c-0.608-2.852,0.379-6.637,2.881-8.299
				c2.116-1.405,5.033-0.829,7.213,0.068c2.765,1.143,5.193,3.289,6.707,5.863c0.334,0.567,1.021,0.565,1.344-0.013
				c2.085-3.758,6.324-7.919,10.665-8.721c2.892-0.534,4.841,1.508,5.972,3.938c1.262,2.712,0.938,5.57-0.312,8.206
				c-1.951,4.116-6.237,7.197-7.108,11.799c-0.811,4.275,0.219,9.131,0.986,13.332c1.046,5.736,2.521,11.426,4.423,16.938
				c1.579,4.58,3.4,8.961,7.028,12.289c1.197,1.099,2.56,2.033,3.975,2.828c1.418,0.796,2.97,1.352,4.348,2.209
				c2.42,1.51,3.891,4.126,3.783,6.983c-0.098,2.565-1.51,4.888-3.619,6.3c-2.661,1.779-5.97,1.226-8.672-0.105
				c-2.283-1.123-4.446-2.857-6.17-4.73c-0.351-0.381-1.045-0.373-1.246,0.176c-1.447,3.971-4.283,7.988-8.072,9.971
				c-3.23,1.693-6.733,1.309-9.498-1.029C1164.19,112.691,1162.503,109.782,1161.964,106.984c-0.178-0.919-1.621-0.721-1.443,0.203
				c0.579,2.999,2.261,5.955,4.473,8.049c2.788,2.643,6.222,3.434,9.893,2.307c4.951-1.518,8.691-6.707,10.401-11.399l-1.245,0.175
				c2.994,3.252,7.477,6.656,12.102,6.521c5.02-0.142,8.939-4.277,8.959-9.282c0.008-2.409-0.997-4.755-2.725-6.431
				c-2.219-2.156-5.33-2.982-7.86-4.703c-4.595-3.123-6.642-7.693-8.451-12.742c-1.997-5.574-3.454-11.362-4.535-17.18
				c-0.774-4.17-1.815-9.027-0.919-13.261c0.461-2.187,2.113-4.04,3.432-5.767c1.543-2.026,3.064-4.097,4.008-6.48
				c1.741-4.41,0.229-11.293-4.802-12.855c-3.062-0.951-6.261,0.832-8.627,2.621c-2.403,1.816-4.619,4.194-6.087,6.836
				c0.447-0.004,0.896-0.01,1.344-0.013c-2.312-3.938-6.407-7.024-11.012-7.575c-4.727-0.566-7.867,2.705-8.543,7.167
				c-0.392,2.585,0.062,4.806,1.455,7.001c1.499,2.362,3.688,4.286,5.695,6.203c2.359,2.252,4.704,4.533,6.545,7.242
				c1.866,2.752,2.502,6.015,3.35,9.176c1.363,5.089,2.639,10.215,3.446,15.424c0.7,4.512,0.929,8.949-1.431,13.034
				c-3.083,5.337-10.01,8.903-8.865,15.933C1160.673,108.113,1162.114,107.913,1161.964,106.984"/>
		</g>
		<g>
			
				<rect x="1068.367" y="39.93" transform="matrix(-0.9466 -0.3224 0.3224 -0.9466 2127.4753 505.5231)" fill="none" width="74.477" height="73.27"/>
			<path fill="#DDCCE4" d="M1073.029,71.586c3.967-1.635,7.354,1.049,10.721,2.842c1.899,1.012,3.922,1.762,6.07,1.994
				c2.613,0.284,5.098-0.389,7.535-1.256c5.854-2.082,11.353-5.148,16.803-8.094c2.309-1.249,4.147-2.757,5.781-4.825
				c1.646-2.086,2.936-4.437,4.291-6.715c1.323-2.228,2.833-4.925,5.279-6.075c2.248-1.057,5.58-0.971,7.443,0.784
				c1.576,1.483,1.663,4.015,1.34,5.997c-0.411,2.516-1.723,4.948-3.565,6.702c-0.405,0.387-0.272,0.956,0.271,1.112
				c3.521,1.002,7.796,3.713,9.303,7.16c1.003,2.295-0.314,4.311-2.11,5.718c-2.007,1.573-4.441,1.856-6.87,1.331
				c-3.793-0.822-7.18-3.781-11.168-3.613c-3.704,0.156-7.533,1.951-10.87,3.4c-4.558,1.98-8.991,4.306-13.196,6.951
				c-3.494,2.197-6.777,4.557-8.836,8.213c-0.68,1.205-1.191,2.518-1.577,3.844c-0.386,1.332-0.545,2.727-0.99,4.035
				c-0.783,2.303-2.669,4.027-5.062,4.492c-2.147,0.416-4.349-0.305-5.928-1.781c-1.992-1.864-2.174-4.717-1.593-7.217
				c0.491-2.111,1.51-4.242,2.729-6.035c0.248-0.365,0.107-0.939-0.387-1c-3.575-0.432-7.458-2.008-9.837-4.766
				c-2.03-2.354-2.39-5.334-0.986-8.082C1068.726,74.539,1070.812,72.576,1073.029,71.586c0.729-0.326,0.284-1.485-0.447-1.158
				c-2.377,1.061-4.504,3.029-5.812,5.27c-1.652,2.825-1.644,5.828,0.002,8.655c2.219,3.813,7.249,5.912,11.474,6.423l-0.386-1
				c-2.119,3.113-4.076,7.494-3.068,11.305c1.091,4.137,5.281,6.589,9.438,5.635c2.001-0.459,3.752-1.748,4.809-3.506
				c1.358-2.258,1.442-5,2.38-7.434c1.702-4.417,5.096-7,8.936-9.479c4.238-2.738,8.759-5.068,13.376-7.092
				c3.311-1.451,7.141-3.254,10.825-3.332c1.903-0.039,3.762,0.973,5.45,1.731c1.979,0.888,3.992,1.749,6.152,2.069
				c3.997,0.592,9.414-1.996,9.736-6.473c0.196-2.725-1.902-5.033-3.845-6.651c-1.974-1.642-4.376-3.021-6.852-3.726
				c0.09,0.37,0.181,0.741,0.271,1.111c2.818-2.682,4.587-6.677,4.151-10.604c-0.445-4.032-3.768-6.003-7.601-5.7
				c-2.222,0.175-3.977,0.982-5.527,2.562c-1.67,1.702-2.842,3.891-4.044,5.929c-1.411,2.393-2.85,4.78-4.742,6.832
				c-1.921,2.083-4.506,3.242-6.965,4.558c-3.957,2.116-7.964,4.167-12.129,5.846c-3.608,1.455-7.246,2.504-11.092,1.337
				c-5.025-1.522-9.328-6.579-14.938-4.269C1071.843,70.732,1072.288,71.891,1073.029,71.586"/>
		</g>
		<g>
			
				<rect x="986.005" y="41.605" transform="matrix(-0.8717 -0.49 0.49 -0.8717 1883.7908 659.3931)" fill="none" width="84.4" height="83.034"/>
			<path fill="#DDCCE4" d="M992.941,70.829c4.758-1,7.976,2.69,11.355,5.386c1.907,1.521,4.005,2.775,6.351,3.479
				c2.852,0.857,5.76,0.621,8.655,0.161c6.954-1.108,13.715-3.384,20.397-5.538c2.831-0.914,5.191-2.214,7.44-4.179
				c2.267-1.984,4.19-4.336,6.172-6.594c1.937-2.208,4.176-4.899,7.141-5.676c2.722-0.711,6.417,0.074,8.13,2.415
				c1.448,1.979,1.021,4.817,0.25,6.96c-0.979,2.717-2.942,5.155-5.359,6.728c-0.531,0.348-0.5,1.009,0.071,1.295
				c3.716,1.846,7.917,5.753,8.882,9.904c0.643,2.765-1.242,4.737-3.536,5.934c-2.561,1.337-5.331,1.149-7.93,0.061
				c-4.056-1.701-7.216-5.7-11.694-6.339c-4.159-0.593-8.797,0.613-12.815,1.539c-5.487,1.262-10.909,2.934-16.144,5.011
				c-4.348,1.725-8.494,3.674-11.543,7.319c-1.009,1.204-1.851,2.559-2.555,3.957c-0.705,1.404-1.173,2.925-1.938,4.292
				c-1.351,2.401-3.809,3.934-6.569,3.956c-2.48,0.019-4.783-1.242-6.236-3.213c-1.834-2.489-1.445-5.706-0.281-8.37
				c0.984-2.251,2.562-4.415,4.293-6.159c0.352-0.355,0.314-1.025-0.225-1.195c-3.895-1.221-7.894-3.78-9.973-7.347
				c-1.775-3.041-1.559-6.438,0.574-9.209C987.534,73.228,990.267,71.472,992.941,70.829c0.878-0.213,0.624-1.596-0.259-1.384
				c-2.867,0.69-5.646,2.442-7.567,4.669c-2.427,2.805-3.039,6.151-1.791,9.643c1.683,4.71,6.853,8.089,11.454,9.532l-0.224-1.193
				c-3.005,3.03-6.093,7.505-5.76,11.959c0.358,4.835,4.521,8.436,9.349,8.233c2.324-0.098,4.543-1.17,6.084-2.91
				c1.981-2.235,2.643-5.271,4.19-7.789c2.812-4.569,7.128-6.744,11.919-8.711c5.289-2.173,10.809-3.832,16.373-5.131
				c3.987-0.931,8.629-2.147,12.75-1.47c2.129,0.349,3.989,1.86,5.715,3.057c2.021,1.399,4.084,2.775,6.425,3.58
				c4.331,1.486,10.903-0.275,12.19-5.195c0.781-2.995-1.079-6.003-2.908-8.208c-1.858-2.237-4.249-4.271-6.861-5.568
				c0.023,0.431,0.047,0.862,0.07,1.294c3.697-2.404,6.494-6.489,6.824-10.955c0.336-4.584-2.955-7.468-7.289-7.924
				c-2.512-0.265-4.635,0.271-6.69,1.709c-2.212,1.552-3.972,3.747-5.732,5.769c-2.068,2.375-4.165,4.736-6.698,6.63
				c-2.572,1.922-5.691,2.679-8.704,3.636c-4.847,1.538-9.736,2.993-14.724,4.002c-4.322,0.874-8.592,1.289-12.637-0.808
				c-5.283-2.738-9.029-9.262-15.758-7.85C991.796,69.633,992.052,71.015,992.941,70.829"/>
		</g>
		<g>
			
				<rect x="935.728" y="41.676" transform="matrix(-0.7619 0.6477 -0.6477 -0.7619 1759.8174 -494.5531)" fill="none" width="70.167" height="69.032"/>
			<path fill="#DDCCE4" d="M951.06,100.146c0.592-4,4.397-5.443,7.474-7.303c1.735-1.049,3.318-2.322,4.544-3.948
				c1.491-1.978,2.146-4.313,2.62-6.703c1.142-5.742,1.316-11.67,1.563-17.503c0.104-2.471-0.229-4.686-1.114-7.006
				c-0.893-2.339-2.172-4.518-3.361-6.713c-1.163-2.146-2.617-4.67-2.367-7.205c0.23-2.328,1.908-4.982,4.228-5.643
				c1.961-0.559,4.051,0.592,5.499,1.811c1.837,1.547,3.171,3.781,3.701,6.119c0.116,0.516,0.642,0.682,1.03,0.317
				c2.511-2.365,6.767-4.515,10.283-4.069c2.341,0.296,3.335,2.334,3.607,4.467c0.304,2.383-0.642,4.49-2.239,6.201
				c-2.496,2.672-6.525,3.984-8.314,7.291c-1.661,3.073-2.058,7.037-2.495,10.438c-0.599,4.643-0.857,9.353-0.747,14.033
				c0.092,3.887,0.416,7.682,2.38,11.111c0.647,1.133,1.461,2.18,2.35,3.133c0.891,0.954,1.942,1.757,2.787,2.749
				c1.483,1.745,1.969,4.104,1.19,6.264c-0.7,1.938-2.347,3.37-4.303,3.936c-2.47,0.712-4.866-0.519-6.608-2.194
				c-1.471-1.416-2.704-3.27-3.564-5.122c-0.176-0.377-0.709-0.54-0.996-0.17c-2.075,2.685-5.224,5.065-8.604,5.658
				c-2.884,0.507-5.47-0.642-7.015-3.103C951.37,105.052,950.79,102.417,951.06,100.146c0.087-0.746-1.065-0.947-1.154-0.197
				c-0.288,2.434,0.277,5.105,1.459,7.246c1.487,2.701,3.921,4.143,7.003,4.177c4.157,0.046,8.282-3.011,10.734-6.184l-0.995-0.17
				c1.497,3.218,4.097,6.915,7.666,7.938c3.874,1.115,7.881-1.092,9.115-4.915c0.594-1.841,0.396-3.88-0.516-5.583
				c-1.171-2.189-3.349-3.58-4.865-5.514c-2.753-3.508-3.204-7.502-3.356-11.805c-0.169-4.751,0.128-9.533,0.72-14.246
				c0.424-3.378,0.813-7.348,2.529-10.366c0.887-1.56,2.602-2.574,4.031-3.574c1.674-1.173,3.343-2.386,4.646-3.979
				c2.407-2.947,2.928-8.58-0.538-11.002c-2.109-1.474-4.991-0.891-7.237-0.1c-2.281,0.805-4.556,2.082-6.321,3.745
				c0.343,0.106,0.687,0.212,1.03,0.317c-0.81-3.574-3.188-6.934-6.575-8.479c-3.478-1.584-6.676,0.15-8.281,3.398
				c-0.931,1.882-1.125,3.691-0.595,5.71c0.571,2.173,1.776,4.177,2.845,6.134c1.255,2.297,2.492,4.612,3.238,7.134
				c0.757,2.56,0.448,5.21,0.325,7.835c-0.198,4.224-0.473,8.455-1.124,12.637c-0.564,3.621-1.472,7.07-4.272,9.619
				c-3.658,3.331-9.826,4.371-10.665,10.025C949.796,100.693,950.948,100.892,951.06,100.146"/>
		</g>
		<g>
			
				<rect x="889.175" y="9.383" transform="matrix(-0.7102 0.7039 -0.7039 -0.7102 1627.5001 -569.0855)" fill="none" width="83.388" height="82.038"/>
			<path fill="#DDCCE4" d="M909.636,80.577c0.34-4.793,4.719-6.85,8.195-9.331c1.96-1.399,3.721-3.053,5.025-5.091
				c1.587-2.479,2.151-5.305,2.498-8.18c0.831-6.908,0.5-13.949,0.264-20.882c-0.102-2.937-0.696-5.532-1.955-8.201
				c-1.271-2.69-2.983-5.155-4.592-7.649c-1.572-2.439-3.524-5.297-3.458-8.322c0.062-2.779,1.809-6.078,4.497-7.071
				c2.273-0.84,4.854,0.335,6.68,1.647c2.317,1.667,4.102,4.193,4.941,6.916c0.186,0.6,0.822,0.748,1.25,0.282
				c2.76-3.03,7.609-5.964,11.815-5.755c2.802,0.139,4.165,2.463,4.68,4.967c0.577,2.795-0.353,5.377-2.09,7.551
				c-2.716,3.393-7.371,5.312-9.191,9.394c-1.69,3.792-1.801,8.524-2.011,12.593c-0.288,5.557-0.167,11.161,0.387,16.696
				c0.462,4.599,1.19,9.065,3.828,12.952c0.871,1.283,1.93,2.449,3.068,3.498c1.143,1.051,2.461,1.906,3.552,3.005
				c1.916,1.933,2.706,4.685,1.979,7.314c-0.654,2.36-2.475,4.206-4.742,5.054c-2.862,1.068-5.812-0.172-8.028-2.002
				c-1.873-1.544-3.502-3.629-4.689-5.745c-0.243-0.431-0.889-0.577-1.196-0.111c-2.215,3.37-5.729,6.476-9.683,7.485
				c-3.371,0.863-6.539-0.264-8.593-3.041C910.45,86.363,909.522,83.292,909.636,80.577c0.036-0.893-1.347-1.025-1.385-0.129
				c-0.12,2.91,0.792,6.025,2.386,8.453c2.008,3.066,5.022,4.555,8.678,4.315c4.93-0.323,9.541-4.319,12.159-8.301l-1.194-0.112
				c2.065,3.678,5.48,7.823,9.802,8.713c4.692,0.969,9.24-2.008,10.356-6.651c0.537-2.234,0.118-4.633-1.117-6.569
				c-1.586-2.487-4.293-3.938-6.266-6.091c-3.579-3.909-4.477-8.6-5.047-13.685c-0.632-5.614-0.714-11.308-0.439-16.945
				c0.195-4.042,0.297-8.781,2.058-12.514c0.908-1.928,2.849-3.287,4.452-4.602c1.877-1.541,3.745-3.129,5.144-5.135
				c2.586-3.712,2.691-10.434-1.635-12.989c-2.634-1.556-5.995-0.603-8.586,0.538c-2.63,1.16-5.209,2.881-7.15,5.012
				c0.416,0.094,0.833,0.188,1.25,0.282c-1.283-4.163-4.406-7.928-8.561-9.45c-4.264-1.562-7.896,0.784-9.504,4.778
				c-0.933,2.313-0.999,4.476-0.188,6.819c0.874,2.522,2.483,4.789,3.927,7.01c1.695,2.608,3.371,5.24,4.485,8.16
				c1.129,2.965,1.003,6.134,1.096,9.255c0.148,5.022,0.206,10.062-0.187,15.075c-0.341,4.343-1.104,8.512-4.19,11.787
				c-4.033,4.277-11.247,6.068-11.729,12.846C908.188,81.341,909.571,81.472,909.636,80.577"/>
		</g>
		<g>
			
				<rect x="850.009" y="10.264" transform="matrix(-0.9738 0.2276 -0.2276 -0.9738 1745.9381 -121.813)" fill="none" width="59.967" height="58.996"/>
			<path fill="#DDCCE4" d="M855.619,50.249c2.013-2.808,5.47-2.418,8.534-2.629c1.729-0.119,3.43-0.468,4.996-1.226
				c1.906-0.92,3.316-2.438,4.611-4.07c3.111-3.918,5.561-8.356,8.028-12.692c1.044-1.838,1.657-3.651,1.892-5.76
				c0.234-2.127,0.113-4.283,0.068-6.417c-0.045-2.085-0.164-4.571,1.017-6.4c1.085-1.68,3.397-3.042,5.419-2.637
				c1.708,0.342,2.847,2.033,3.471,3.525c0.791,1.894,0.933,4.113,0.422,6.097c-0.112,0.438,0.222,0.769,0.658,0.644
				c2.833-0.816,6.908-0.787,9.407,0.926c1.663,1.14,1.622,3.078,0.996,4.805c-0.7,1.93-2.242,3.161-4.126,3.838
				c-2.941,1.056-6.516,0.478-9.168,2.292c-2.464,1.686-4.314,4.543-5.976,6.958c-2.27,3.294-4.308,6.773-6.052,10.373
				c-1.449,2.991-2.687,6.002-2.534,9.376c0.05,1.114,0.259,2.228,0.562,3.299c0.305,1.073,0.79,2.094,1.044,3.179
				c0.445,1.906-0.106,3.889-1.543,5.225c-1.289,1.2-3.101,1.646-4.808,1.311c-2.156-0.424-3.496-2.295-4.165-4.25
				c-0.565-1.651-0.777-3.542-0.708-5.286c0.014-0.355-0.327-0.688-0.691-0.519c-2.625,1.229-5.949,1.809-8.75,0.938
				c-2.391-0.742-3.906-2.625-4.119-5.1C853.938,54.1,854.526,51.87,855.619,50.249c0.358-0.533-0.439-1.136-0.8-0.6
				c-1.171,1.738-1.785,3.989-1.723,6.077c0.074,2.634,1.36,4.682,3.689,5.912c3.142,1.66,7.473,0.948,10.576-0.504l-0.69-0.519
				c-0.12,3.031,0.411,6.856,2.723,9.03c2.509,2.361,6.417,2.25,8.85-0.174c1.171-1.166,1.817-2.794,1.79-4.445
				c-0.035-2.122-1.146-4.03-1.543-6.092c-0.721-3.743,0.496-6.955,2.062-10.285c1.729-3.676,3.822-7.195,6.114-10.545
				c1.642-2.402,3.489-5.267,5.974-6.891c1.283-0.839,2.983-0.94,4.461-1.142c1.73-0.237,3.473-0.506,5.084-1.208
				c2.982-1.3,5.58-5.378,3.893-8.573c-1.027-1.944-3.445-2.627-5.463-2.904c-2.048-0.279-4.275-0.197-6.268,0.376
				c0.219,0.215,0.439,0.429,0.659,0.644c0.782-3.034,0.287-6.516-1.685-9.014c-2.023-2.563-5.133-2.494-7.621-0.653
				c-1.443,1.066-2.298,2.366-2.684,4.107c-0.415,1.875-0.283,3.869-0.235,5.773c0.056,2.237,0.091,4.48-0.327,6.688
				c-0.424,2.241-1.695,4.135-2.814,6.083c-1.801,3.132-3.663,6.241-5.792,9.164c-1.845,2.532-3.882,4.799-7.007,5.642
				c-4.082,1.102-9.176-0.519-12.023,3.452C854.444,50.171,855.242,50.773,855.619,50.249"/>
		</g>
		<g>
			
				<rect x="800.31" y="59.761" transform="matrix(-0.8792 0.4765 -0.4765 -0.8792 1624.531 -215.1709)" fill="none" width="78.466" height="77.195"/>
			<path fill="#DDCCE4" d="M812.399,120.008c1.572-4.239,6.07-4.941,9.864-6.265c2.142-0.747,4.167-1.775,5.884-3.271
				c2.088-1.819,3.343-4.224,4.416-6.729c2.573-6.02,4.133-12.465,5.75-18.79c0.684-2.679,0.831-5.18,0.398-7.923
				c-0.438-2.766-1.334-5.444-2.128-8.122c-0.778-2.616-1.786-5.713-0.927-8.429c0.789-2.494,3.237-5.012,5.928-5.199
				c2.275-0.158,4.296,1.583,5.599,3.25c1.653,2.117,2.597,4.87,2.637,7.551c0.009,0.59,0.546,0.895,1.055,0.585
				c3.293-2.009,8.447-3.377,12.19-2.078c2.494,0.864,3.111,3.323,2.916,5.721c-0.217,2.677-1.737,4.765-3.881,6.269
				c-3.349,2.348-8.059,2.852-10.781,6.058c-2.527,2.979-3.875,7.225-5.14,10.845c-1.727,4.941-3.097,10.035-4.057,15.182
				c-0.798,4.274-1.319,8.502,0.038,12.707c0.447,1.39,1.096,2.723,1.848,3.97c0.754,1.251,1.721,2.372,2.415,3.651
				c1.22,2.252,1.208,4.946-0.144,7.129c-1.213,1.959-3.346,3.146-5.617,3.313c-2.866,0.209-5.203-1.69-6.723-3.927
				c-1.283-1.889-2.204-4.202-2.719-6.428c-0.105-0.453-0.65-0.755-1.051-0.416c-2.89,2.459-6.885,4.337-10.721,4.205
				c-3.272-0.11-5.837-1.964-6.959-5.015C811.608,125.449,811.581,122.43,812.399,120.008c0.27-0.797-0.945-1.282-1.217-0.482
				c-0.877,2.598-0.875,5.651-0.076,8.266c1.004,3.299,3.334,5.439,6.698,6.188c4.538,1.01,9.759-1.383,13.173-4.288l-1.049-0.416
				c0.895,3.866,2.885,8.512,6.555,10.456c3.98,2.115,8.875,0.625,11.108-3.273c1.075-1.877,1.329-4.152,0.725-6.228
				c-0.775-2.666-2.837-4.69-4.051-7.155c-2.202-4.476-1.773-8.949-0.946-13.693c0.911-5.236,2.34-10.4,4.076-15.421
				c1.243-3.599,2.586-7.853,5.161-10.759c1.329-1.502,3.44-2.217,5.235-2.98c2.103-0.896,4.209-1.838,6.001-3.281
				c3.315-2.67,5.186-8.713,1.952-12.162c-1.969-2.1-5.256-2.127-7.896-1.779c-2.682,0.353-5.465,1.227-7.781,2.638
				c0.352,0.195,0.703,0.39,1.055,0.585c-0.061-4.099-1.887-8.323-5.238-10.795c-3.438-2.537-7.338-1.377-9.845,1.807
				c-1.452,1.844-2.083,3.779-1.97,6.109c0.124,2.51,0.979,4.981,1.697,7.369c0.843,2.803,1.662,5.623,1.896,8.554
				c0.237,2.976-0.713,5.804-1.453,8.647c-1.191,4.576-2.469,9.143-4.146,13.567c-1.455,3.833-3.244,7.396-6.896,9.539
				c-4.771,2.8-11.761,2.514-13.984,8.507C810.892,120.316,812.106,120.799,812.399,120.008"/>
		</g>
		<g>
			
				<rect x="765.741" y="38.971" transform="matrix(-0.9597 0.281 -0.281 -0.9597 1577.5986 -90.188)" fill="none" width="59.049" height="58.092"/>
			<path fill="#DDCCE4" d="M771.872,79.65c1.826-2.869,5.246-2.675,8.248-3.048c1.693-0.211,3.346-0.647,4.846-1.477
				c1.824-1.008,3.127-2.578,4.312-4.252c2.846-4.021,5.014-8.518,7.203-12.915c0.927-1.863,1.432-3.68,1.547-5.767
				c0.115-2.104-0.121-4.217-0.281-6.312c-0.158-2.049-0.41-4.486,0.651-6.349c0.976-1.71,3.175-3.175,5.185-2.887
				c1.698,0.242,2.909,1.844,3.604,3.277c0.881,1.818,1.14,3.993,0.745,5.972c-0.086,0.436,0.26,0.743,0.684,0.598
				c2.74-0.957,6.749-1.149,9.299,0.398c1.697,1.03,1.762,2.938,1.24,4.671c-0.584,1.935-2.033,3.229-3.848,3.997
				c-2.834,1.198-6.381,0.824-8.89,2.752c-2.331,1.792-3.995,4.702-5.497,7.165c-2.053,3.363-3.867,6.894-5.387,10.528
				c-1.263,3.02-2.314,6.046-1.982,9.355c0.11,1.093,0.377,2.177,0.732,3.213c0.357,1.039,0.89,2.017,1.199,3.068
				c0.541,1.85,0.105,3.83-1.233,5.223c-1.202,1.249-2.958,1.785-4.657,1.549c-2.141-0.3-3.561-2.067-4.324-3.953
				c-0.646-1.593-0.957-3.44-0.983-5.158c-0.007-0.351-0.359-0.659-0.708-0.473c-2.515,1.352-5.751,2.102-8.553,1.397
				c-2.39-0.599-3.982-2.368-4.326-4.79C770.429,83.528,770.886,81.304,771.872,79.65c0.322-0.543-0.494-1.092-0.819-0.547
				c-1.056,1.772-1.538,4.02-1.364,6.069c0.217,2.586,1.593,4.529,3.949,5.611c3.18,1.461,7.398,0.526,10.371-1.07l-0.707-0.472
				c0.047,2.985,0.777,6.718,3.168,8.729c2.596,2.185,6.432,1.863,8.691-0.652c1.088-1.21,1.635-2.845,1.519-4.467
				c-0.149-2.084-1.347-3.899-1.849-5.905c-0.912-3.641,0.111-6.864,1.469-10.224c1.5-3.709,3.367-7.282,5.439-10.701
				c1.483-2.45,3.145-5.367,5.498-7.099c1.217-0.896,2.883-1.087,4.324-1.365c1.688-0.327,3.387-0.687,4.934-1.464
				c2.861-1.44,5.193-5.591,3.36-8.641c-1.116-1.855-3.53-2.396-5.528-2.559c-2.028-0.164-4.215,0.039-6.143,0.711
				c0.229,0.199,0.456,0.398,0.684,0.597c0.604-3.024-0.072-6.422-2.146-8.77c-2.128-2.411-5.183-2.174-7.53-0.229
				c-1.359,1.127-2.129,2.451-2.414,4.184c-0.307,1.865-0.068,3.819,0.082,5.688c0.178,2.197,0.334,4.4,0.043,6.594
				c-0.297,2.228-1.443,4.158-2.438,6.134c-1.6,3.177-3.262,6.335-5.197,9.325c-1.676,2.589-3.557,4.929-6.582,5.927
				c-3.953,1.306-9.051-0.011-11.634,4.047C770.712,79.639,771.53,80.187,771.872,79.65"/>
		</g>
		<g>
			
				<rect x="676.036" y="47.43" transform="matrix(-0.9982 -0.0597 0.0597 -0.9982 1405.4373 195.0644)" fill="none" width="59.19" height="58.232"/>
			<path fill="#DDCCE4" d="M679.62,79.601c2.695-2.089,5.856-0.747,8.814-0.083c1.669,0.374,3.377,0.522,5.072,0.248
				c2.062-0.334,3.823-1.374,5.508-2.553c4.048-2.83,7.614-6.338,11.17-9.745c1.505-1.444,2.596-2.987,3.411-4.917
				c0.821-1.946,1.314-4.019,1.872-6.051c0.545-1.986,1.133-4.37,2.764-5.769c1.5-1.283,4.07-1.92,5.869-0.969
				c1.52,0.805,2.121,2.726,2.291,4.312c0.216,2.015-0.275,4.155-1.318,5.887c-0.229,0.382-0.006,0.79,0.441,0.795
				c2.91,0.025,6.758,1.202,8.639,3.525c1.253,1.547,0.668,3.368-0.411,4.827c-1.206,1.628-3.011,2.359-4.983,2.469
				c-3.08,0.17-6.299-1.385-9.319-0.414c-2.806,0.9-5.36,3.084-7.612,4.898c-3.074,2.479-5.981,5.195-8.646,8.109
				c-2.214,2.422-4.231,4.921-5.037,8.156c-0.267,1.068-0.383,2.18-0.398,3.278c-0.015,1.103,0.157,2.204,0.093,3.302
				c-0.115,1.928-1.196,3.648-2.932,4.509c-1.558,0.771-3.396,0.683-4.917-0.115c-1.92-1.009-2.661-3.155-2.744-5.194
				c-0.068-1.721,0.264-3.568,0.82-5.199c0.112-0.332-0.117-0.743-0.508-0.686c-2.831,0.424-6.139,0.035-8.543-1.576
				c-2.053-1.375-2.957-3.584-2.46-5.984C676.945,82.771,678.131,80.826,679.62,79.601c0.49-0.403-0.096-1.198-0.587-0.793
				c-1.597,1.313-2.812,3.271-3.342,5.264c-0.671,2.514-0.03,4.812,1.826,6.632c2.505,2.455,6.802,3.002,10.147,2.502l-0.508-0.686
				c-0.967,2.834-1.542,6.602,0.033,9.31c1.709,2.94,5.437,3.936,8.42,2.327c1.437-0.773,2.507-2.131,2.945-3.699
				c0.564-2.018,0.051-4.136,0.256-6.198c0.373-3.743,2.43-6.438,4.848-9.148c2.67-2.991,5.643-5.729,8.755-8.255
				c2.229-1.809,4.784-3.999,7.591-4.836c1.451-0.432,3.088-0.049,4.543,0.178c1.703,0.262,3.428,0.498,5.15,0.287
				c3.188-0.389,6.793-3.516,6.096-7.013c-0.425-2.129-2.521-3.456-4.35-4.286c-1.858-0.842-3.989-1.392-6.035-1.41
				c0.146,0.265,0.295,0.53,0.441,0.795c1.595-2.65,2.107-6.084,0.945-9.001c-1.191-2.995-4.152-3.805-7.026-2.765
				c-1.665,0.603-2.84,1.591-3.695,3.129c-0.921,1.657-1.356,3.581-1.849,5.396c-0.576,2.132-1.175,4.264-2.191,6.235
				c-1.033,2-2.77,3.434-4.377,4.961c-2.586,2.456-5.223,4.872-8.061,7.038c-2.458,1.877-5.023,3.447-8.217,3.364
				c-4.172-0.108-8.535-3.075-12.347-0.121C678.531,79.197,679.116,79.99,679.62,79.601"/>
		</g>
		<g>
			
				<rect x="622.609" y="20.55" transform="matrix(-0.9999 -0.011 0.011 -0.9999 1320.509 123.0845)" fill="none" width="75.967" height="74.737"/>
			<path fill="#DDCCE4" d="M627.438,63.461c3.325-2.847,7.461-1.323,11.294-0.657c2.163,0.375,4.36,0.458,6.518,0
				c2.622-0.557,4.816-2,6.902-3.615c5.011-3.882,9.364-8.603,13.708-13.191c1.839-1.946,3.141-3.992,4.066-6.518
				c0.932-2.545,1.434-5.233,2.021-7.873c0.574-2.58,1.178-5.673,3.183-7.567c1.842-1.739,5.098-2.717,7.462-1.609
				c2,0.937,2.89,3.362,3.207,5.385c0.402,2.569-0.094,5.344-1.321,7.63c-0.271,0.503,0.041,1.013,0.616,0.99
				c3.731-0.149,8.735,1.119,11.294,3.979c1.701,1.904,1.067,4.276-0.226,6.213c-1.444,2.162-3.713,3.213-6.234,3.476
				c-3.938,0.411-8.161-1.379-11.973,0.054c-3.54,1.33-6.679,4.287-9.451,6.756c-3.787,3.368-7.344,7.033-10.577,10.936
				c-2.687,3.241-5.117,6.572-5.948,10.771c-0.275,1.386-0.354,2.819-0.306,4.228c0.051,1.413,0.34,2.816,0.325,4.227
				c-0.027,2.479-1.306,4.753-3.476,5.964c-1.948,1.087-4.311,1.087-6.312,0.16c-2.523-1.173-3.607-3.879-3.841-6.486
				c-0.196-2.203,0.113-4.594,0.725-6.718c0.125-0.434-0.195-0.945-0.693-0.847c-3.602,0.721-7.865,0.43-11.049-1.487
				c-2.717-1.634-4.014-4.409-3.528-7.519C624.208,67.692,625.605,65.126,627.438,63.461c0.603-0.547-0.197-1.529-0.802-0.979
				c-1.965,1.784-3.4,4.368-3.955,6.956c-0.702,3.265,0.262,6.171,2.756,8.388c3.364,2.99,8.906,3.423,13.163,2.572l-0.691-0.846
				c-1.062,3.691-1.565,8.559,0.624,11.931c2.374,3.662,7.216,4.706,10.939,2.458c1.793-1.082,3.08-2.888,3.544-4.928
				c0.599-2.621-0.192-5.304-0.06-7.961c0.243-4.823,2.711-8.406,5.643-12.03c3.236-4.002,6.875-7.699,10.706-11.13
				c2.746-2.459,5.884-5.427,9.43-6.674c1.831-0.646,3.954-0.256,5.832-0.059c2.201,0.231,4.426,0.426,6.622,0.049
				c4.062-0.699,8.487-4.932,7.375-9.373c-0.677-2.701-3.446-4.272-5.843-5.222c-2.436-0.962-5.202-1.533-7.825-1.429
				c0.205,0.33,0.411,0.661,0.616,0.99c1.878-3.495,2.32-7.93,0.648-11.598c-1.716-3.765-5.562-4.618-9.18-3.104
				c-2.097,0.877-3.541,2.218-4.541,4.243c-1.077,2.181-1.517,4.676-2.032,7.032c-0.606,2.77-1.24,5.54-2.421,8.13
				c-1.199,2.63-3.335,4.576-5.299,6.634c-3.162,3.31-6.392,6.573-9.895,9.526c-3.033,2.559-6.224,4.732-10.323,4.826
				c-5.354,0.123-11.133-3.408-15.834,0.617C626.018,63.012,626.817,63.992,627.438,63.461"/>
		</g>
		<g>
			
				<rect x="536.003" y="13.507" transform="matrix(-1 0.0034 -0.0034 -1 1142.5504 94.2896)" fill="none" width="70.381" height="69.241"/>
			<path fill="#DDCCE4" d="M540.556,53.706c3.042-2.682,6.894-1.327,10.454-0.761c2.008,0.319,4.046,0.367,6.037-0.086
				c2.422-0.551,4.435-1.917,6.346-3.441c4.59-3.663,8.56-8.094,12.522-12.404c1.678-1.827,2.857-3.739,3.68-6.09
				c0.829-2.371,1.258-4.868,1.768-7.32c0.497-2.398,1.016-5.272,2.847-7.054c1.683-1.635,4.687-2.584,6.891-1.59
				c1.865,0.841,2.722,3.075,3.043,4.946c0.407,2.375-0.016,4.95-1.123,7.085c-0.244,0.47,0.051,0.938,0.584,0.91
				c3.455-0.189,8.108,0.919,10.515,3.535c1.603,1.741,1.046,3.947-0.126,5.758c-1.309,2.022-3.396,3.025-5.729,3.303
				c-3.643,0.434-7.579-1.169-11.09,0.209c-3.262,1.28-6.131,4.061-8.667,6.384c-3.462,3.171-6.708,6.614-9.652,10.272
				c-2.445,3.039-4.652,6.157-5.366,10.057c-0.236,1.287-0.29,2.616-0.226,3.921c0.065,1.309,0.352,2.604,0.357,3.91
				c0.008,2.297-1.146,4.42-3.141,5.571c-1.79,1.032-3.979,1.065-5.844,0.232c-2.354-1.052-3.394-3.546-3.645-5.958
				c-0.211-2.037,0.043-4.256,0.582-6.232c0.109-0.402-0.193-0.873-0.654-0.774c-3.327,0.715-7.28,0.503-10.255-1.23
				c-2.539-1.478-3.777-4.03-3.369-6.917C537.619,57.668,538.88,55.272,540.556,53.706c0.55-0.516-0.203-1.415-0.756-0.898
				c-1.796,1.68-3.092,4.093-3.571,6.498c-0.607,3.033,0.324,5.713,2.665,7.733c3.157,2.725,8.296,3.051,12.229,2.207l-0.653-0.775
				c-0.935,3.436-1.335,7.951,0.738,11.045c2.249,3.361,6.747,4.263,10.167,2.131c1.646-1.026,2.814-2.717,3.217-4.613
				c0.519-2.436-0.25-4.91-0.162-7.373c0.161-4.471,2.399-7.823,5.066-11.22c2.944-3.75,6.266-7.223,9.77-10.453
				c2.51-2.315,5.377-5.105,8.646-6.309c1.688-0.622,3.66-0.29,5.403-0.131c2.042,0.185,4.105,0.335,6.134-0.044
				c3.753-0.702,7.797-4.682,6.708-8.781c-0.664-2.494-3.25-3.912-5.483-4.759c-2.269-0.859-4.838-1.352-7.268-1.22
				c0.195,0.304,0.39,0.606,0.584,0.91c1.693-3.264,2.043-7.378,0.446-10.753c-1.639-3.464-5.214-4.204-8.546-2.753
				c-1.931,0.839-3.251,2.101-4.15,3.991c-0.968,2.035-1.342,4.351-1.789,6.542c-0.524,2.573-1.075,5.148-2.134,7.564
				c-1.076,2.451-3.028,4.283-4.821,6.216c-2.885,3.108-5.833,6.174-9.038,8.957c-2.776,2.41-5.703,4.467-9.5,4.608
				c-4.958,0.186-10.358-3.008-14.66,0.783C539.233,53.309,539.987,54.206,540.556,53.706"/>
		</g>
		<g>
			
				<rect x="452.062" y="16.039" transform="matrix(-0.8529 0.5221 -0.5221 -0.8529 941.6055 -153.7623)" fill="none" width="80.811" height="79.502"/>
			<path fill="#DDCCE4" d="M465.727,79.529c1.386-4.445,5.974-5.412,9.805-6.979c2.161-0.885,4.189-2.052,5.873-3.684
				c2.049-1.984,3.209-4.525,4.176-7.16c2.32-6.331,3.575-13.045,4.894-19.638c0.558-2.792,0.574-5.372-0.02-8.169
				c-0.6-2.821-1.668-5.527-2.63-8.238c-0.941-2.649-2.146-5.779-1.411-8.619c0.676-2.607,3.058-5.33,5.814-5.668
				c2.331-0.287,4.504,1.395,5.935,3.039c1.815,2.088,2.936,4.867,3.122,7.621c0.042,0.607,0.609,0.891,1.116,0.545
				c3.278-2.244,8.504-3.932,12.425-2.799c2.611,0.754,3.38,3.25,3.31,5.725c-0.078,2.766-1.529,4.994-3.652,6.657
				c-3.316,2.597-8.134,3.371-10.759,6.816c-2.438,3.2-3.594,7.64-4.698,11.431c-1.507,5.177-2.64,10.49-3.349,15.834
				c-0.588,4.441-0.894,8.816,0.729,13.068c0.536,1.404,1.275,2.74,2.116,3.982c0.844,1.244,1.898,2.346,2.682,3.624
				c1.377,2.249,1.51,5.021,0.24,7.339c-1.142,2.081-3.27,3.418-5.597,3.713c-2.938,0.37-5.444-1.457-7.128-3.674
				c-1.422-1.873-2.495-4.202-3.145-6.463c-0.133-0.46-0.71-0.741-1.103-0.371c-2.839,2.686-6.845,4.834-10.798,4.906
				c-3.372,0.064-6.109-1.703-7.429-4.779C465.208,85.168,465.016,82.064,465.727,79.529c0.233-0.834-1.042-1.268-1.277-0.43
				c-0.762,2.719-0.594,5.859,0.37,8.504c1.212,3.338,3.724,5.412,7.225,6c4.723,0.792,9.96-1.951,13.316-5.125l-1.102-0.371
				c1.13,3.929,3.429,8.598,7.308,10.398c4.209,1.959,9.162,0.161,11.248-3.97c1.003-1.988,1.142-4.344,0.407-6.444
				c-0.943-2.699-3.173-4.67-4.555-7.14c-2.507-4.483-2.31-9.106-1.717-14.03c0.653-5.436,1.842-10.824,3.355-16.081
				c1.084-3.769,2.234-8.216,4.724-11.345c1.286-1.617,3.418-2.467,5.223-3.35c2.114-1.037,4.228-2.119,5.994-3.7
				c3.264-2.926,4.859-9.243,1.347-12.616c-2.138-2.052-5.521-1.9-8.218-1.4c-2.738,0.509-5.554,1.558-7.859,3.136
				c0.372,0.181,0.745,0.362,1.116,0.544c-0.284-4.212-2.392-8.457-5.972-10.817c-3.674-2.423-7.623-1.017-10.028,2.394
				c-1.394,1.975-1.938,3.999-1.693,6.39c0.263,2.573,1.277,5.069,2.145,7.485c1.02,2.838,2.014,5.693,2.416,8.694
				c0.405,3.048-0.418,6.009-1.025,8.974c-0.977,4.77-2.043,9.536-3.529,14.178c-1.287,4.021-2.934,7.783-6.574,10.186
				c-4.755,3.137-11.958,3.223-13.919,9.508C464.192,79.928,465.468,80.358,465.727,79.529"/>
		</g>
		<g>
			
				<rect x="398.297" y="8.318" transform="matrix(-0.9762 0.2168 -0.2168 -0.9762 885.9707 6.664)" fill="none" width="88.645" height="87.21"/>
			<path fill="#DDCCE4" d="M406.418,67.021c3.023-4.117,8.126-3.484,12.659-3.745c2.557-0.147,5.077-0.636,7.406-1.729
				c2.832-1.328,4.941-3.551,6.884-5.94c4.663-5.74,8.356-12.26,12.074-18.628c1.574-2.699,2.51-5.369,2.891-8.484
				c0.383-3.14,0.239-6.327,0.208-9.482c-0.033-3.084-0.168-6.76,1.607-9.444c1.631-2.465,5.072-4.44,8.053-3.81
				c2.52,0.533,4.175,3.053,5.072,5.269c1.139,2.812,1.312,6.096,0.523,9.021c-0.174,0.645,0.314,1.139,0.964,0.963
				c4.2-1.161,10.224-1.049,13.888,1.522c2.441,1.713,2.348,4.575,1.393,7.119c-1.066,2.841-3.365,4.636-6.161,5.604
				c-4.364,1.513-9.64,0.599-13.59,3.238c-3.669,2.451-6.452,6.646-8.947,10.186c-3.409,4.832-6.478,9.941-9.117,15.234
				c-2.192,4.396-4.069,8.826-3.9,13.816c0.056,1.648,0.347,3.297,0.776,4.885c0.433,1.593,1.134,3.109,1.491,4.716
				c0.627,2.825-0.222,5.748-2.367,7.7c-1.926,1.752-4.609,2.38-7.129,1.857c-3.179-0.663-5.128-3.451-6.085-6.352
				c-0.809-2.45-1.092-5.248-0.96-7.825c0.026-0.525-0.473-1.022-1.013-0.778c-3.902,1.774-8.824,2.575-12.95,1.242
				c-3.521-1.135-5.731-3.943-6.004-7.605C403.871,72.688,404.777,69.4,406.418,67.021c0.54-0.781-0.629-1.686-1.171-0.9
				c-1.759,2.55-2.704,5.867-2.647,8.955c0.068,3.895,1.935,6.941,5.358,8.799c4.616,2.505,11.028,1.523,15.64-0.572l-1.011-0.777
				c-0.228,4.479,0.494,10.142,3.875,13.393c3.67,3.531,9.449,3.431,13.083-0.111c1.75-1.705,2.732-4.1,2.719-6.541
				c-0.016-3.137-1.627-5.976-2.181-9.029c-1.004-5.544,0.85-10.271,3.219-15.168c2.614-5.407,5.768-10.573,9.211-15.487
				c2.467-3.524,5.245-7.728,8.944-10.087c1.91-1.219,4.425-1.341,6.611-1.614c2.562-0.322,5.143-0.692,7.537-1.703
				c4.429-1.872,8.335-7.856,5.893-12.607c-1.487-2.891-5.05-3.939-8.026-4.382c-3.023-0.448-6.317-0.363-9.271,0.452
				c0.321,0.321,0.643,0.642,0.964,0.963c1.206-4.472,0.532-9.628-2.34-13.351c-2.95-3.823-7.546-3.771-11.256-1.092
				c-2.15,1.553-3.436,3.46-4.035,6.027c-0.644,2.764-0.481,5.715-0.442,8.529c0.045,3.308,0.061,6.624-0.594,9.881
				c-0.664,3.307-2.574,6.084-4.26,8.944c-2.713,4.601-5.518,9.166-8.713,13.45c-2.769,3.713-5.817,7.031-10.45,8.225
				c-6.052,1.562-13.555-0.917-17.828,4.904C404.684,66.889,405.854,67.79,406.418,67.021"/>
		</g>
		<g>
			
				<rect x="353.061" y="55.392" transform="matrix(-0.6016 0.7988 -0.7988 -0.6016 682.6739 -169.5671)" fill="none" width="61.125" height="60.136"/>
			<path fill="#DDCCE4" d="M371.402,109.589c-0.259-3.513,2.7-5.467,4.96-7.633c1.275-1.223,2.377-2.607,3.109-4.223
				c0.89-1.965,1.001-4.075,0.949-6.197c-0.125-5.1-1.107-10.172-2.01-15.176c-0.383-2.119-1.088-3.939-2.283-5.742
				c-1.206-1.818-2.708-3.426-4.138-5.066c-1.398-1.602-3.115-3.469-3.386-5.672c-0.249-2.022,0.671-4.599,2.517-5.603
				c1.561-0.85,3.556-0.27,5.019,0.489c1.857,0.965,3.417,2.609,4.313,4.496c0.198,0.416,0.676,0.457,0.937,0.074
				c1.683-2.49,4.891-5.129,7.965-5.422c2.046-0.194,3.28,1.348,3.918,3.109c0.713,1.967,0.311,3.938-0.721,5.698
				c-1.612,2.747-4.786,4.63-5.676,7.783c-0.827,2.929-0.408,6.374-0.13,9.348c0.376,4.061,1.055,8.113,2.042,12.07
				c0.819,3.287,1.819,6.45,4.143,8.991c0.767,0.84,1.658,1.574,2.594,2.215c0.939,0.641,1.987,1.123,2.894,1.805
				c1.594,1.2,2.458,3.113,2.207,5.098c-0.225,1.78-1.351,3.312-2.906,4.166c-1.964,1.076-4.235,0.487-6.035-0.605
				c-1.521-0.923-2.922-2.264-4.007-3.674c-0.221-0.287-0.706-0.324-0.879,0.046c-1.251,2.677-3.474,5.302-6.234,6.45
				c-2.355,0.982-4.771,0.499-6.555-1.299C372.603,113.7,371.607,111.57,371.402,109.589c-0.067-0.651-1.085-0.602-1.018,0.053
				c0.22,2.124,1.209,4.287,2.622,5.881c1.78,2.012,4.124,2.773,6.75,2.215c3.542-0.755,6.466-4.141,7.945-7.305l-0.878,0.046
				c1.886,2.45,4.8,5.097,8.029,5.286c3.505,0.209,6.491-2.432,6.811-5.917c0.154-1.678-0.403-3.374-1.503-4.647
				c-1.413-1.637-3.529-2.404-5.187-3.758c-3.009-2.458-4.154-5.766-5.105-9.395c-1.05-4.006-1.709-8.127-2.105-12.246
				c-0.284-2.953-0.71-6.4,0.173-9.295c0.456-1.494,1.72-2.684,2.745-3.807c1.199-1.315,2.387-2.665,3.189-4.268
				c1.485-2.965,0.853-7.853-2.556-9.25c-2.074-0.85-4.412,0.195-6.17,1.297c-1.785,1.118-3.475,2.639-4.659,4.389
				c0.312,0.024,0.624,0.049,0.936,0.073c-1.37-2.885-4.032-5.286-7.206-5.952c-3.258-0.685-5.646,1.4-6.391,4.468
				c-0.432,1.776-0.252,3.353,0.583,4.966c0.9,1.738,2.306,3.213,3.587,4.672c1.506,1.713,2.999,3.445,4.114,5.446
				c1.132,2.031,1.375,4.343,1.771,6.598c0.637,3.628,1.211,7.277,1.455,10.955c0.211,3.187,0.097,6.291-1.797,8.991
				c-2.474,3.529-7.518,5.59-7.152,10.557C370.433,110.296,371.45,110.244,371.402,109.589"/>
		</g>
		<g>
			
				<rect x="271.366" y="18.404" transform="matrix(-0.9955 0.0952 -0.0952 -0.9955 628.2263 86.8719)" fill="none" width="81.351" height="80.033"/>
			<path fill="#DDCCE4" d="M277.368,68.092c3.216-3.409,7.793-2.259,11.95-1.984c2.346,0.153,4.696-0.007,6.94-0.74
				c2.729-0.891,4.901-2.677,6.938-4.634c4.896-4.703,8.994-10.225,13.098-15.605c1.738-2.28,2.892-4.606,3.59-7.4
				c0.702-2.816,0.931-5.735,1.258-8.613c0.317-2.812,0.609-6.175,2.528-8.42c1.765-2.062,5.12-3.472,7.764-2.562
				c2.235,0.77,3.458,3.251,4.027,5.37c0.72,2.69,0.507,5.699-0.541,8.273c-0.23,0.568,0.158,1.074,0.77,0.985
				c3.956-0.583,9.429,0.198,12.477,2.953c2.029,1.835,1.623,4.433,0.467,6.641c-1.292,2.468-3.589,3.843-6.243,4.411
				c-4.146,0.885-8.848-0.541-12.743,1.416c-3.618,1.819-6.625,5.325-9.297,8.269c-3.648,4.017-7.02,8.323-10.02,12.846
				c-2.492,3.758-4.701,7.581-5.109,12.146c-0.135,1.507-0.058,3.041,0.155,4.536c0.214,1.499,0.682,2.96,0.826,4.463
				c0.253,2.644-0.85,5.21-3.023,6.746c-1.951,1.378-4.467,1.648-6.702,0.888c-2.821-0.963-4.282-3.721-4.827-6.471
				c-0.459-2.323-0.402-4.903,0.009-7.235c0.083-0.476-0.315-0.985-0.835-0.823c-3.753,1.176-8.327,1.352-11.935-0.328
				c-3.079-1.431-4.775-4.238-4.611-7.604C274.408,72.964,275.605,70.072,277.368,68.092c0.578-0.652-0.385-1.607-0.967-0.953
				c-1.889,2.123-3.124,5.038-3.42,7.857c-0.377,3.556,0.979,6.541,3.887,8.618c3.924,2.801,9.873,2.631,14.31,1.242l-0.833-0.822
				c-0.712,4.053-0.694,9.292,2.021,12.634c2.944,3.631,8.218,4.19,11.929,1.375c1.785-1.356,2.951-3.426,3.214-5.65
				c0.338-2.859-0.81-5.626-0.969-8.471c-0.289-5.162,1.932-9.258,4.641-13.451c2.991-4.629,6.446-8.979,10.137-13.067
				c2.644-2.931,5.646-6.446,9.282-8.179c1.877-0.895,4.182-0.721,6.203-0.724c2.37-0.004,4.762-0.051,7.057-0.702
				c4.245-1.205,8.478-6.216,6.788-10.817c-1.027-2.801-4.154-4.157-6.815-4.896c-2.702-0.748-5.712-1.042-8.495-0.632
				c0.257,0.328,0.514,0.656,0.77,0.984c1.603-3.937,1.57-8.708-0.627-12.423c-2.254-3.814-6.447-4.286-10.128-2.263
				c-2.134,1.171-3.519,2.764-4.354,5.034c-0.897,2.444-1.082,5.149-1.363,7.719c-0.332,3.017-0.691,6.039-1.654,8.932
				c-0.979,2.936-3.03,5.251-4.889,7.666c-2.99,3.884-6.06,7.725-9.453,11.268c-2.939,3.069-6.091,5.747-10.444,6.312
				c-5.688,0.74-12.241-2.363-16.791,2.457C275.804,67.775,276.767,68.728,277.368,68.092"/>
		</g>
		<g>
			
				<rect x="175.537" y="14.645" transform="matrix(-0.9852 0.1712 -0.1712 -0.9852 428.3439 63.0282)" fill="none" width="71.836" height="70.672"/>
			<path fill="#DDCCE4" d="M181.582,60.841c2.601-3.22,6.709-2.516,10.388-2.556c2.076-0.023,4.133-0.324,6.06-1.121
				c2.343-0.969,4.134-2.688,5.796-4.55c3.991-4.471,7.226-9.609,10.476-14.625c1.375-2.125,2.233-4.252,2.659-6.758
				c0.428-2.528,0.432-5.113,0.525-7.669c0.089-2.497,0.119-5.479,1.656-7.584c1.413-1.934,4.273-3.403,6.662-2.781
				c2.02,0.527,3.265,2.629,3.909,4.456c0.815,2.319,0.832,4.983,0.083,7.321c-0.165,0.515,0.212,0.935,0.744,0.815
				c3.443-0.781,8.315-0.464,11.185,1.756c1.911,1.479,1.729,3.792,0.86,5.815c-0.97,2.259-2.899,3.626-5.198,4.306
				c-3.591,1.059-7.826,0.121-11.124,2.108c-3.062,1.847-5.473,5.137-7.626,7.908c-2.941,3.784-5.618,7.804-7.953,11.988
				c-1.94,3.478-3.626,6.993-3.677,11.039c-0.017,1.336,0.156,2.682,0.444,3.983c0.29,1.306,0.8,2.56,1.029,3.873
				c0.401,2.311-0.396,4.645-2.205,6.145c-1.625,1.346-3.822,1.753-5.841,1.234c-2.548-0.656-4.022-2.986-4.687-5.37
				c-0.562-2.015-0.686-4.29-0.482-6.37c0.041-0.425-0.344-0.846-0.79-0.668c-3.226,1.289-7.24,1.752-10.53,0.518
				c-2.807-1.052-4.491-3.408-4.574-6.383C179.305,65.331,180.164,62.704,181.582,60.841c0.466-0.613-0.446-1.389-0.915-0.773
				c-1.52,1.997-2.41,4.647-2.479,7.149c-0.092,3.155,1.305,5.692,4.005,7.324c3.643,2.201,8.871,1.649,12.682,0.126L194.085,74
				c-0.353,3.616,0.019,8.228,2.634,10.986c2.837,2.997,7.519,3.133,10.595,0.402c1.481-1.313,2.367-3.215,2.448-5.191
				c0.105-2.54-1.092-4.898-1.426-7.392c-0.604-4.526,1.074-8.283,3.176-12.158c2.32-4.277,5.068-8.341,8.04-12.189
				c2.129-2.76,4.536-6.059,7.619-7.829c1.592-0.915,3.633-0.918,5.413-1.058c2.086-0.164,4.188-0.366,6.165-1.095
				c3.656-1.349,7.043-6.046,5.245-9.983c-1.095-2.396-3.94-3.38-6.332-3.85c-2.43-0.477-5.1-0.531-7.521,0.017
				c0.247,0.272,0.496,0.544,0.743,0.815c1.145-3.573,0.793-7.772-1.392-10.896c-2.243-3.205-5.967-3.337-9.071-1.307
				c-1.799,1.176-2.911,2.671-3.492,4.727c-0.625,2.213-0.605,4.608-0.68,6.889c-0.087,2.679-0.199,5.364-0.852,7.976
				c-0.663,2.651-2.313,4.828-3.785,7.08c-2.37,3.622-4.812,7.212-7.56,10.561c-2.381,2.901-4.974,5.471-8.769,6.264
				c-4.958,1.036-10.938-1.252-14.617,3.299C180.182,60.668,181.095,61.441,181.582,60.841"/>
		</g>
		<g>
			
				<rect x="90.729" y="31.094" transform="matrix(-0.76 0.6499 -0.6499 -0.76 270.4413 36.572)" fill="none" width="75.478" height="74.256"/>
			<path fill="#DDCCE4" d="M107.296,94.051c0.625-4.303,4.714-5.869,8.017-7.879c1.863-1.133,3.561-2.508,4.875-4.262
				c1.598-2.131,2.294-4.645,2.798-7.218c1.209-6.181,1.378-12.558,1.625-18.833c0.104-2.657-0.261-5.039-1.22-7.531
				c-0.968-2.514-2.352-4.854-3.637-7.212c-1.258-2.305-2.83-5.015-2.569-7.742c0.24-2.505,2.037-5.366,4.529-6.084
				c2.108-0.607,4.359,0.624,5.921,1.931c1.981,1.658,3.424,4.058,4,6.57c0.127,0.554,0.693,0.731,1.109,0.339
				c2.693-2.552,7.266-4.878,11.049-4.41c2.519,0.312,3.596,2.5,3.895,4.794c0.335,2.562-0.676,4.831-2.389,6.677
				c-2.677,2.883-7.006,4.306-8.92,7.87c-1.778,3.311-2.191,7.576-2.651,11.234c-0.628,4.996-0.892,10.064-0.759,15.098
				c0.111,4.182,0.472,8.262,2.595,11.945c0.701,1.217,1.579,2.34,2.538,3.361c0.961,1.024,2.095,1.885,3.007,2.949
				c1.601,1.872,2.132,4.408,1.3,6.733c-0.746,2.087-2.513,3.633-4.616,4.247c-2.654,0.774-5.235-0.541-7.114-2.34
				c-1.587-1.518-2.919-3.508-3.851-5.497c-0.19-0.405-0.765-0.58-1.072-0.181c-2.224,2.895-5.603,5.465-9.238,6.115
				c-3.1,0.554-5.885-0.673-7.556-3.316C107.647,99.329,107.014,96.495,107.296,94.051c0.093-0.803-1.148-1.016-1.241-0.208
				c-0.302,2.62,0.314,5.491,1.592,7.79c1.609,2.9,4.231,4.443,7.547,4.471c4.472,0.036,8.9-3.266,11.527-6.686l-1.071-0.18
				c1.62,3.456,4.428,7.426,8.271,8.516c4.171,1.188,8.474-1.199,9.79-5.316c0.633-1.982,0.414-4.175-0.572-6.004
				c-1.267-2.352-3.614-3.841-5.251-5.916c-2.972-3.766-3.47-8.06-3.648-12.688c-0.197-5.109,0.108-10.254,0.729-15.326
				c0.445-3.635,0.851-7.906,2.688-11.158c0.948-1.682,2.79-2.778,4.325-3.858c1.797-1.267,3.588-2.577,4.983-4.295
				c2.581-3.179,3.123-9.239-0.613-11.833c-2.274-1.579-5.372-0.941-7.786-0.084c-2.45,0.872-4.893,2.254-6.788,4.049
				c0.37,0.112,0.74,0.225,1.109,0.338c-0.882-3.844-3.451-7.449-7.1-9.1c-3.746-1.693-7.181,0.184-8.897,3.682
				c-0.995,2.027-1.199,3.975-0.622,6.145c0.621,2.334,1.924,4.488,3.079,6.588c1.358,2.468,2.696,4.955,3.507,7.664
				c0.822,2.752,0.498,5.604,0.375,8.428c-0.2,4.543-0.482,9.096-1.169,13.596c-0.596,3.898-1.562,7.61-4.565,10.361
				c-3.925,3.594-10.556,4.732-11.44,10.817C105.939,94.645,107.18,94.854,107.296,94.051"/>
		</g>
		<g>
			
				<rect x="44.057" y="43.295" transform="matrix(-0.6653 0.7465 -0.7465 -0.6653 211.3259 78.4669)" fill="none" width="88.036" height="86.61"/>
			<path fill="#DDCCE4" d="M67.671,119.782c0.045-5.071,4.524-7.525,8.025-10.367c1.975-1.603,3.722-3.459,4.963-5.692
				c1.511-2.714,1.92-5.729,2.098-8.782c0.425-7.334-0.384-14.73-1.085-22.02c-0.298-3.09-1.094-5.784-2.596-8.514
				c-1.515-2.754-3.48-5.238-5.338-7.762c-1.817-2.467-4.06-5.35-4.188-8.544c-0.117-2.933,1.509-6.521,4.276-7.744
				c2.341-1.033,5.137,0.036,7.147,1.3c2.55,1.604,4.595,4.15,5.658,6.964c0.234,0.62,0.915,0.735,1.335,0.216
				c2.71-3.373,7.629-6.779,12.075-6.835c2.96-0.036,4.549,2.323,5.255,4.927c0.79,2.908-0.021,5.689-1.71,8.094
				c-2.64,3.752-7.42,6.078-9.071,10.498c-1.534,4.105-1.341,9.101-1.296,13.402c0.06,5.873,0.552,11.771,1.499,17.566
				c0.786,4.816,1.845,9.475,4.878,13.398c1.002,1.295,2.194,2.455,3.462,3.484c1.272,1.033,2.718,1.85,3.939,2.936
				c2.146,1.912,3.158,4.76,2.563,7.578c-0.535,2.529-2.333,4.594-4.667,5.635c-2.946,1.312-6.136,0.197-8.591-1.585
				c-2.073-1.505-3.926-3.595-5.316-5.747c-0.284-0.439-0.975-0.551-1.268-0.039c-2.114,3.694-5.615,7.197-9.713,8.52
				c-3.496,1.129-6.908,0.148-9.254-2.644C68.907,125.827,67.729,122.651,67.671,119.782c-0.02-0.942-1.486-0.992-1.467-0.045
				c0.063,3.076,1.228,6.297,3.066,8.752c2.316,3.1,5.589,4.471,9.425,3.98c5.174-0.662,9.772-5.176,12.27-9.541l-1.266-0.039
				c2.417,3.739,6.286,7.885,10.898,8.539c5.007,0.716,9.605-2.719,10.478-7.685c0.419-2.39-0.178-4.89-1.606-6.849
				c-1.834-2.518-4.781-3.87-7-6.01c-4.028-3.885-5.279-8.77-6.212-14.09c-1.032-5.875-1.49-11.868-1.569-17.827
				c-0.058-4.271-0.261-9.271,1.35-13.319c0.832-2.092,2.788-3.649,4.391-5.14c1.877-1.747,3.741-3.542,5.084-5.747
				c2.482-4.08,2.155-11.17-2.571-13.58c-2.876-1.467-6.356-0.243-9.012,1.129c-2.695,1.394-5.3,3.375-7.207,5.746
				c0.445,0.072,0.89,0.145,1.335,0.217c-1.625-4.303-5.161-8.066-9.638-9.398c-4.595-1.369-8.27,1.342-9.703,5.655
				c-0.831,2.499-0.76,4.782,0.249,7.198c1.085,2.6,2.93,4.883,4.595,7.129c1.957,2.639,3.895,5.303,5.259,8.307
				c1.384,3.049,1.458,6.396,1.76,9.68c0.484,5.283,0.875,10.589,0.788,15.896c-0.076,4.6-0.607,9.042-3.646,12.694
				c-3.97,4.771-11.455,7.13-11.519,14.302C66.196,120.683,67.662,120.729,67.671,119.782"/>
		</g>
		<g>
			
				<rect x="-37.905" y="40.1" transform="matrix(-0.8532 -0.5216 0.5216 -0.8532 -32.0897 157.8995)" fill="none" width="88.158" height="86.73"/>
			<path fill="#DDCCE4" d="M-30.164,69.286c5.005-0.861,8.223,3.114,11.647,6.057c1.932,1.659,4.073,3.049,6.495,3.874
				c2.945,1.004,5.989,0.869,9.029,0.499c7.301-0.891,14.445-3.009,21.504-5.002c2.988-0.846,5.502-2.11,7.924-4.077
				c2.443-1.984,4.54-4.365,6.695-6.646c2.105-2.23,4.547-4.954,7.67-5.651c2.869-0.638,6.695,0.322,8.395,2.831
				c1.436,2.122,0.882,5.068-0.004,7.273c-1.127,2.801-3.27,5.27-5.852,6.819c-0.57,0.342-0.562,1.033,0.025,1.354
				c3.807,2.068,8.042,6.306,8.891,10.678c0.565,2.91-1.479,4.896-3.917,6.058c-2.726,1.298-5.61,0.995-8.279-0.239
				c-4.169-1.932-7.315-6.227-11.965-7.064c-4.319-0.777-9.206,0.305-13.436,1.116c-5.776,1.107-11.501,2.646-17.042,4.614
				c-4.605,1.635-9.007,3.51-12.331,7.199c-1.097,1.219-2.028,2.599-2.815,4.032c-0.791,1.438-1.336,3.009-2.188,4.406
				c-1.501,2.455-4.126,3.961-7.01,3.878c-2.587-0.074-4.942-1.478-6.386-3.591c-1.818-2.67-1.29-6.012,0.027-8.749
				c1.113-2.311,2.843-4.51,4.715-6.264c0.381-0.357,0.367-1.059-0.188-1.257c-4.019-1.422-8.096-4.247-10.129-8.05
				c-1.738-3.243-1.381-6.779,0.951-9.589C-35.899,71.583-32.98,69.855-30.164,69.286c0.925-0.188,0.712-1.643-0.219-1.454
				c-3.019,0.611-5.984,2.334-8.076,4.583c-2.641,2.836-3.406,6.307-2.237,9.998c1.575,4.98,6.843,8.704,11.591,10.388l-0.187-1.255
				c-3.253,3.049-6.646,7.602-6.47,12.264c0.189,5.061,4.396,8.979,9.443,8.952c2.43-0.014,4.786-1.049,6.461-2.806
				c2.154-2.258,2.96-5.401,4.672-7.971c3.109-4.662,7.699-6.768,12.775-8.638c5.604-2.065,11.428-3.586,17.285-4.729
				c4.197-0.82,9.089-1.912,13.365-1.049c2.209,0.446,4.094,2.096,5.848,3.41c2.057,1.537,4.158,3.054,6.571,3.982
				c4.464,1.718,11.391,0.129,12.921-4.958c0.932-3.096-0.895-6.306-2.72-8.678c-1.854-2.406-4.272-4.62-6.95-6.075
				c0.008,0.451,0.018,0.903,0.025,1.354c3.95-2.369,7.026-6.525,7.541-11.175c0.526-4.771-2.8-7.908-7.306-8.55
				c-2.61-0.373-4.848,0.104-7.048,1.529c-2.369,1.534-4.29,3.759-6.205,5.802c-2.25,2.399-4.529,4.784-7.245,6.664
				c-2.759,1.907-6.044,2.578-9.225,3.463C9.33,75.76,4.172,77.092-1.074,77.954c-4.545,0.747-9.018,1.017-13.158-1.325
				c-5.41-3.061-9.072-10.014-16.15-8.797C-31.314,67.994-31.1,69.446-30.164,69.286"/>
		</g>
		<g>
			
				<rect x="-114.11" y="49.31" transform="matrix(-0.8484 0.5294 -0.5294 -0.8484 -102.1109 196.5502)" fill="none" width="69.816" height="68.685"/>
			<path fill="#DDCCE4" d="M-102.128,104.356c1.165-3.85,5.121-4.719,8.419-6.1c1.86-0.78,3.603-1.805,5.046-3.227
				c1.755-1.729,2.739-3.933,3.555-6.217c1.958-5.485,2.992-11.295,4.083-17c0.461-2.417,0.456-4.646-0.077-7.059
				c-0.539-2.432-1.481-4.762-2.333-7.097c-0.833-2.281-1.896-4.976-1.282-7.435c0.565-2.259,2.603-4.628,4.981-4.941
				c2.012-0.265,3.901,1.173,5.149,2.582c1.583,1.791,2.572,4.184,2.753,6.562c0.041,0.523,0.533,0.764,0.968,0.462
				c2.815-1.963,7.317-3.46,10.714-2.511c2.261,0.633,2.944,2.783,2.901,4.922c-0.047,2.391-1.284,4.326-3.105,5.778
				c-2.846,2.268-7.002,2.972-9.244,5.968c-2.082,2.783-3.049,6.627-3.975,9.91c-1.264,4.482-2.204,9.082-2.776,13.703
				c-0.475,3.842-0.708,7.623,0.727,11.285c0.474,1.209,1.122,2.357,1.857,3.424c0.738,1.07,1.656,2.014,2.343,3.111
				c1.207,1.934,1.342,4.326,0.261,6.339c-0.971,1.806-2.799,2.977-4.808,3.249c-2.534,0.342-4.713-1.219-6.185-3.122
				c-1.242-1.607-2.186-3.611-2.764-5.56c-0.119-0.396-0.619-0.635-0.956-0.312c-2.433,2.342-5.878,4.227-9.292,4.318
				c-2.912,0.08-5.291-1.426-6.454-4.074C-102.536,109.233-102.724,106.554-102.128,104.356c0.195-0.722-0.91-1.086-1.107-0.361
				c-0.638,2.354-0.47,5.066,0.382,7.344c1.072,2.876,3.257,4.648,6.286,5.131c4.085,0.649,8.591-1.76,11.465-4.525l-0.955-0.312
				c1.005,3.385,3.026,7.402,6.39,8.93c3.651,1.66,7.917,0.07,9.688-3.514c0.852-1.725,0.955-3.76,0.305-5.57
				c-0.835-2.324-2.775-4.01-3.988-6.133c-2.199-3.855-2.062-7.852-1.586-12.109c0.524-4.701,1.512-9.363,2.78-13.917
				c0.909-3.263,1.869-7.114,3.997-9.836c1.1-1.406,2.936-2.155,4.488-2.933c1.818-0.91,3.637-1.861,5.151-3.24
				c2.799-2.552,4.13-8.021,1.071-10.908c-1.862-1.758-4.784-1.602-7.11-1.15c-2.361,0.461-4.786,1.387-6.766,2.768
				c0.322,0.154,0.645,0.308,0.968,0.462c-0.277-3.638-2.129-7.289-5.239-9.302c-3.192-2.065-6.593-0.822-8.646,2.141
				c-1.189,1.717-1.644,3.471-1.416,5.534c0.246,2.222,1.141,4.37,1.908,6.45c0.902,2.444,1.782,4.903,2.151,7.494
				c0.373,2.629-0.317,5.193-0.819,7.76c-0.81,4.127-1.695,8.253-2.945,12.273c-1.082,3.482-2.478,6.746-5.604,8.848
				c-4.085,2.746-10.307,2.873-11.955,8.316C-103.452,104.713-102.347,105.075-102.128,104.356"/>
		</g>
	</g>
</g>
</svg>
