<?xml version="1.0" encoding="utf-8"?>
<!-- Generator: Adobe Illustrator 16.0.0, SVG Export Plug-In . SVG Version: 6.00 Build 0)  -->
<!DOCTYPE svg PUBLIC "-//W3C//DTD SVG 1.1//EN" "http://www.w3.org/Graphics/SVG/1.1/DTD/svg11.dtd">
<svg version="1.1" id="Layer_1" xmlns="http://www.w3.org/2000/svg" xmlns:xlink="http://www.w3.org/1999/xlink" x="0px" y="0px"
	 width="50px" height="50px" viewBox="0 0 50 50" enable-background="new 0 0 50 50" xml:space="preserve">
<g>
	<path fill="#894B9D" stroke="#894B9D" stroke-width="0.8" stroke-miterlimit="10" d="M25.795,21.374
		c-4.273,0.114-7.984,2.499-10.3,6.025c-2.668,4.052-4.032,9.709-3.306,14.528c0.181,1.213,0.669,2.408,1.911,2.812
		c1.125,0.364,2.448-0.333,3.411-0.841c2.871-1.504,5.584-4.193,8.913-4.607c1.538-0.19,3.128,0.48,4.501,1.085
		c1.576,0.688,3.087,1.521,4.649,2.235c2.059,0.945,5.107,1.984,6-0.922c0.595-1.938,0.017-4.342-0.408-6.247
		c-0.568-2.539-1.732-4.938-3.259-7.038c-2.448-3.358-6.201-6.139-10.35-6.891C26.979,21.409,26.385,21.371,25.795,21.374
		c-0.777,0.002-0.699,1.201,0.072,1.199c4.305-0.014,8.334,3.02,10.862,6.267c1.675,2.15,2.782,4.673,3.375,7.326
		c0.342,1.533,1.073,4.414,0.025,5.851c-0.652,0.892-2.2,0.262-2.997-0.043c-1.554-0.595-3.024-1.415-4.524-2.142
		c-1.459-0.701-2.982-1.382-4.585-1.668c-1.503-0.267-2.942,0.102-4.312,0.709c-2.49,1.106-4.621,2.852-7.027,4.114
		c-0.682,0.358-1.724,0.884-2.493,0.507c-0.991-0.494-0.921-2.479-0.938-3.358c-0.163-7.624,3.821-17.324,12.613-17.562
		C26.643,22.55,26.566,21.352,25.795,21.374"/>
	<path fill="#894B9D" stroke="#894B9D" stroke-width="0.8" stroke-miterlimit="10" d="M6.189,16.28
		c3.517,0.412,9.559,6.694,4.917,9.516c-2.407,1.464-4.418-1.55-5.377-3.279c-0.944-1.702-3.097-6.337,0.621-6.224
		c0.773,0.023,0.692-1.175-0.074-1.198c-1.618-0.049-2.889,0.87-3.247,2.46c-0.297,1.341,0.452,2.968,0.97,4.155
		c1.155,2.638,3.159,6.079,6.552,5.53c1.507-0.245,2.579-1.42,3.146-2.773c0.575-1.379,0.277-2.667-0.384-3.951
		c-1.225-2.369-4.123-5.087-6.877-5.41C5.669,15.016,5.422,16.191,6.189,16.28"/>
	<path fill="#894B9D" stroke="#894B9D" stroke-width="0.8" stroke-miterlimit="10" d="M17.676,7.465
		c2.279,1.13,3.548,3.045,3.732,5.57c0.126,1.722-0.209,4.319-1.985,5.159c-2.057,0.97-3.472-2.104-3.99-3.526
		c-0.509-1.398-0.752-2.892-0.627-4.378C14.922,8.906,15.917,6.793,17.676,7.465c0.719,0.274,1.266-0.797,0.541-1.074
		c-1.498-0.571-2.834,0.033-3.776,1.271c-1.086,1.427-0.976,3.6-0.701,5.267c0.391,2.405,1.853,6.594,4.889,6.622
		c2.685,0.024,3.838-3.035,3.966-5.268c0.203-3.423-1.261-6.343-4.38-7.891C17.521,6.047,16.981,7.12,17.676,7.465"/>
	<path fill="#894B9D" stroke="#894B9D" stroke-width="0.8" stroke-miterlimit="10" d="M34.239,7.56
		c0.83,2.561,0.733,5.219-0.583,7.598c-0.452,0.824-1.107,1.597-1.91,2.093c-1.248,0.768-2.403-0.433-2.878-1.486
		c-0.813-1.817-0.669-4.177,0.029-5.986c0.518-1.345,1.527-2.729,2.894-3.278C32.761,6.109,33.859,6.605,34.239,7.56
		c0.286,0.715,1.421,0.33,1.137-0.392c-0.424-1.065-1.31-1.776-2.439-1.969c-1.607-0.272-3.001,0.896-3.943,2.045
		c-1.989,2.419-2.342,6.026-1.261,8.909c0.474,1.256,1.511,2.324,2.871,2.499c1.291,0.167,2.357-0.676,3.162-1.579
		c2.402-2.681,2.683-6.611,1.61-9.905C35.137,6.433,33.999,6.821,34.239,7.56"/>
	<path fill="#894B9D" stroke="#894B9D" stroke-width="0.8" stroke-miterlimit="10" d="M43.002,14.339
		c0.579-0.235,1.229-0.48,1.832-0.197c1.011,0.475,1.056,2.354,0.959,3.275c-0.254,2.392-1.641,5.653-4.298,6.145
		c-2.344,0.433-3.135-1.926-2.655-3.788c0.274-1.068,0.972-2.071,1.601-2.951C41.11,15.891,41.942,14.835,43.002,14.339
		c0.693-0.326,0.313-1.468-0.388-1.136c-1.38,0.646-2.381,1.856-3.251,3.072c-0.882,1.232-1.643,2.567-1.871,4.084
		c-0.392,2.609,1.636,4.852,4.293,4.363c3.407-0.63,5.04-4.724,5.242-7.781c0.083-1.258-0.346-3.073-1.503-3.781
		c-0.919-0.56-1.973-0.341-2.91,0.043C41.898,13.491,42.283,14.631,43.002,14.339"/>
</g>
</svg>
