<?xml version="1.0" encoding="utf-8"?>
<!-- Generator: Adobe Illustrator 16.0.0, SVG Export Plug-In . SVG Version: 6.00 Build 0)  -->
<!DOCTYPE svg PUBLIC "-//W3C//DTD SVG 1.1//EN" "http://www.w3.org/Graphics/SVG/1.1/DTD/svg11.dtd">
<svg version="1.1" id="Layer_1" xmlns="http://www.w3.org/2000/svg" xmlns:xlink="http://www.w3.org/1999/xlink" x="0px" y="0px"
	 width="500px" height="40px" viewBox="0 0 500 40" enable-background="new 0 0 500 40" xml:space="preserve">
<circle fill="#FFFFFF" stroke="#894B9D" stroke-width="1.5" stroke-miterlimit="10" cx="17.064" cy="19.186" r="4.126"/>
<circle fill="#FFFFFF" stroke="#894B9D" stroke-width="1.5" stroke-miterlimit="10" cx="29.646" cy="19.186" r="4.125"/>
<circle fill="#FFFFFF" stroke="#894B9D" stroke-width="1.5" stroke-miterlimit="10" cx="42.229" cy="19.186" r="4.126"/>
<line fill="none" stroke="#894B9D" stroke-width="2" stroke-miterlimit="10" x1="-10" y1="37" x2="510" y2="37"/>
<g>
	<path fill="#894B9D" stroke="#894B9D" stroke-width="0.8" stroke-miterlimit="10" d="M474.735,16.817
		c-1.976,0.053-3.691,1.156-4.763,2.786c-1.233,1.874-1.864,4.489-1.528,6.718c0.084,0.561,0.31,1.113,0.884,1.299
		c0.521,0.168,1.132-0.154,1.577-0.387c1.327-0.697,2.582-1.939,4.121-2.131c0.711-0.089,1.446,0.223,2.081,0.502
		c0.729,0.318,1.428,0.702,2.149,1.033c0.952,0.436,2.361,0.918,2.774-0.427c0.275-0.896,0.008-2.007-0.188-2.889
		c-0.263-1.174-0.801-2.284-1.507-3.253c-1.132-1.554-2.867-2.84-4.785-3.187C475.282,16.833,475.008,16.815,474.735,16.817
		c-0.359,0.001-0.323,0.555,0.033,0.554c1.99-0.006,3.854,1.396,5.022,2.897c0.774,0.995,1.286,2.161,1.561,3.388
		c0.158,0.709,0.496,2.041,0.012,2.704c-0.302,0.413-1.018,0.122-1.386-0.02c-0.719-0.276-1.398-0.655-2.092-0.989
		c-0.675-0.326-1.379-0.639-2.12-0.771c-0.695-0.125-1.36,0.045-1.994,0.327c-1.151,0.511-2.137,1.319-3.249,1.903
		c-0.315,0.166-0.797,0.408-1.152,0.233c-0.458-0.227-0.426-1.146-0.434-1.553c-0.075-3.524,1.767-8.01,5.832-8.12
		C475.127,17.361,475.092,16.807,474.735,16.817"/>
	<path fill="#894B9D" stroke="#894B9D" stroke-width="0.8" stroke-miterlimit="10" d="M465.67,14.462
		c1.626,0.19,4.42,3.095,2.273,4.4c-1.113,0.677-2.043-0.717-2.486-1.516c-0.437-0.787-1.432-2.93,0.287-2.878
		c0.357,0.011,0.32-0.543-0.034-0.554c-0.748-0.022-1.336,0.402-1.501,1.138c-0.138,0.62,0.209,1.372,0.448,1.921
		c0.534,1.22,1.461,2.81,3.029,2.556c0.697-0.113,1.192-0.656,1.455-1.282c0.266-0.638,0.128-1.233-0.178-1.827
		c-0.566-1.095-1.906-2.352-3.18-2.501C465.43,13.877,465.315,14.421,465.67,14.462"/>
	<path fill="#894B9D" stroke="#894B9D" stroke-width="0.8" stroke-miterlimit="10" d="M470.981,10.386
		c1.054,0.522,1.641,1.408,1.726,2.575c0.059,0.796-0.097,1.997-0.918,2.385c-0.951,0.448-1.605-0.973-1.845-1.63
		c-0.235-0.646-0.348-1.337-0.29-2.024C469.708,11.052,470.168,10.075,470.981,10.386c0.332,0.127,0.585-0.369,0.25-0.497
		c-0.692-0.264-1.311,0.015-1.746,0.588c-0.502,0.66-0.451,1.664-0.324,2.435c0.181,1.112,0.856,3.049,2.261,3.062
		c1.241,0.011,1.774-1.403,1.834-2.436c0.094-1.583-0.583-2.933-2.025-3.648C470.909,9.73,470.66,10.227,470.981,10.386"/>
	<path fill="#894B9D" stroke="#894B9D" stroke-width="0.8" stroke-miterlimit="10" d="M478.64,10.43
		c0.384,1.184,0.339,2.413-0.27,3.513c-0.209,0.381-0.512,0.738-0.883,0.968c-0.577,0.355-1.111-0.2-1.331-0.688
		c-0.376-0.84-0.31-1.931,0.014-2.768c0.239-0.622,0.706-1.262,1.338-1.516C477.956,9.759,478.464,9.988,478.64,10.43
		c0.132,0.331,0.657,0.153,0.525-0.181c-0.196-0.492-0.605-0.821-1.128-0.91c-0.743-0.126-1.388,0.414-1.823,0.945
		c-0.92,1.119-1.083,2.787-0.583,4.12c0.219,0.581,0.698,1.074,1.327,1.155c0.597,0.077,1.09-0.313,1.462-0.73
		c1.11-1.24,1.24-3.057,0.744-4.58C479.055,9.909,478.528,10.088,478.64,10.43"/>
	<path fill="#894B9D" stroke="#894B9D" stroke-width="0.8" stroke-miterlimit="10" d="M482.691,13.564
		c0.268-0.109,0.568-0.222,0.847-0.091c0.468,0.22,0.488,1.088,0.443,1.514c-0.117,1.106-0.759,2.614-1.987,2.841
		c-1.084,0.201-1.449-0.89-1.228-1.751c0.127-0.494,0.449-0.958,0.74-1.364C481.816,14.282,482.201,13.794,482.691,13.564
		c0.32-0.151,0.145-0.679-0.18-0.525c-0.638,0.299-1.101,0.858-1.503,1.42c-0.408,0.57-0.76,1.187-0.865,1.888
		c-0.181,1.207,0.757,2.244,1.985,2.017c1.575-0.291,2.33-2.184,2.424-3.597c0.038-0.582-0.16-1.421-0.695-1.749
		c-0.425-0.259-0.912-0.157-1.346,0.02C482.181,13.172,482.358,13.699,482.691,13.564"/>
</g>
</svg>
