<?xml version="1.0" encoding="utf-8"?>
<!-- Generator: Adobe Illustrator 16.0.0, SVG Export Plug-In . SVG Version: 6.00 Build 0)  -->
<!DOCTYPE svg PUBLIC "-//W3C//DTD SVG 1.1//EN" "http://www.w3.org/Graphics/SVG/1.1/DTD/svg11.dtd">
<svg version="1.1" id="Layer_1" xmlns="http://www.w3.org/2000/svg" xmlns:xlink="http://www.w3.org/1999/xlink" x="0px" y="0px"
	 width="1291px" height="107px" viewBox="0 0 1291 107" enable-background="new 0 0 1291 107" xml:space="preserve">
<g opacity="0.2">
	<g>
		<g>
			
				<rect x="1217.995" y="42.508" transform="matrix(0.5174 -0.8557 0.8557 0.5174 542.5399 1103.1949)" fill="none" width="62.796" height="56.117"/>
			<path fill="#C3A1CC" d="M1245.512,67.05c-3.087,5.243-3.01,11.523-0.506,16.987c2.879,6.279,8.676,12.197,15.047,14.964
				c1.601,0.694,3.41,1.011,4.837-0.188c1.29-1.082,1.448-3.205,1.565-4.748c0.35-4.606-0.846-9.909,1.167-14.242
				c0.929-2.002,2.946-3.411,4.712-4.615c2.021-1.381,4.164-2.576,6.208-3.923c2.691-1.772,6.253-4.665,3.418-7.939
				c-1.892-2.185-5.228-3.302-7.853-4.227c-3.492-1.231-7.269-1.642-10.953-1.382c-5.906,0.421-12.102,2.85-16.14,7.289
				C1246.45,65.646,1245.953,66.338,1245.512,67.05c-0.584,0.938,0.923,1.748,1.504,0.816c3.234-5.208,9.937-7.78,15.771-8.382
				c3.864-0.398,7.745,0.175,11.396,1.463c2.109,0.742,6.141,2.035,7.078,4.386c0.584,1.46-1.346,2.856-2.313,3.587
				c-1.896,1.428-3.994,2.581-5.999,3.846c-1.953,1.229-3.92,2.557-5.479,4.276c-1.459,1.61-2.102,3.625-2.401,5.741
				c-0.549,3.842-0.045,7.732-0.338,11.59c-0.084,1.095-0.234,2.748-1.275,3.391c-1.341,0.824-3.688-0.763-4.763-1.404
				c-9.322-5.563-18.029-17.696-11.673-28.492C1247.574,66.913,1246.069,66.102,1245.512,67.05"/>
			<path fill="#C3A1CC" d="M1224.557,86.873c3.15-3.934,15.302-6.484,15.201,1.252c-0.051,4.014-5.208,4.16-8.02,4.014
				c-2.77-0.146-9.99-1.048-7.047-5.449c0.612-0.918-0.896-1.725-1.504-0.815c-1.281,1.915-1.132,4.146,0.52,5.776
				c1.393,1.375,3.923,1.697,5.75,1.967c4.058,0.597,9.721,0.775,11.62-3.73c0.845-2.005,0.237-4.188-0.971-5.894
				c-1.23-1.738-3.011-2.351-5.06-2.521c-3.785-0.312-9.257,1.133-11.725,4.215C1222.639,86.543,1223.867,87.734,1224.557,86.873"/>
			<path fill="#C3A1CC" d="M1222.59,66.348c3.086-1.897,6.357-1.986,9.546-0.302c2.173,1.149,5.058,3.517,4.728,6.296
				c-0.383,3.217-5.161,2.602-7.271,2.152c-2.07-0.441-4.059-1.277-5.758-2.549C1222.249,70.76,1220.449,67.963,1222.59,66.348
				c0.873-0.66-0.008-2.128-0.888-1.465c-1.82,1.377-2.101,3.444-1.317,5.518c0.901,2.392,3.608,3.897,5.829,4.828
				c3.198,1.34,9.361,2.739,11.688-0.903c2.056-3.222-0.767-6.929-3.361-8.771c-3.98-2.826-8.611-3.268-12.838-0.672
				C1220.762,65.463,1221.65,66.924,1222.59,66.348"/>
			<path fill="#C3A1CC" d="M1235.211,46.422c3.723,0.93,6.857,3.056,8.737,6.439c0.649,1.172,1.091,2.543,1.083,3.89
				c-0.016,2.085-2.338,2.575-3.968,2.349c-2.811-0.389-5.551-2.342-7.208-4.553c-1.232-1.642-2.142-3.903-1.771-5.971
				C1232.348,47.111,1233.774,46.158,1235.211,46.422c1.08,0.198,1.475-1.467,0.387-1.667c-1.602-0.295-3.133,0.238-4.217,1.456
				c-1.543,1.733-1.187,4.3-0.512,6.307c1.42,4.229,5.508,7.378,9.807,8.25c1.871,0.379,3.943-0.065,5.187-1.578
				c1.173-1.43,0.961-3.354,0.48-5.008c-1.424-4.924-5.957-8.229-10.745-9.427C1234.527,44.487,1234.14,46.153,1235.211,46.422"/>
			<path fill="#C3A1CC" d="M1250.017,40.96c0.153-0.876,0.35-1.845,1.147-2.358c1.334-0.86,3.637,0.504,4.674,1.316
				c2.697,2.111,5.59,6.25,4.176,9.827c-1.25,3.164-4.694,2.333-6.581,0.345c-1.079-1.137-1.765-2.736-2.351-4.162
				C1250.459,44.418,1249.816,42.617,1250.017,40.96c0.132-1.082-1.534-1.483-1.667-0.386c-0.259,2.152,0.446,4.273,1.256,6.241
				c0.822,1.995,1.859,3.924,3.519,5.345c2.854,2.443,7.094,1.691,8.51-1.891c1.812-4.586-1.896-9.648-5.434-12.201
				c-1.459-1.053-3.974-1.904-5.701-1.041c-1.369,0.684-1.9,2.123-2.148,3.547C1248.161,41.654,1249.826,42.049,1250.017,40.96"/>
		</g>
		<g>
			
				<rect x="1167.734" y="44.836" transform="matrix(0.9818 -0.1901 0.1901 0.9818 8.9485 227.991)" fill="none" width="50.387" height="45.028"/>
			<path fill="#C3A1CC" d="M1193.02,63.203c-4.778,0.984-8.477,4.41-10.381,8.84c-2.188,5.093-2.592,11.729-0.809,17.007
				c0.447,1.326,1.234,2.574,2.715,2.778c1.338,0.186,2.688-0.864,3.668-1.623c2.93-2.271,5.443-5.837,9.104-6.971
				c1.689-0.523,3.615-0.082,5.281,0.32c1.91,0.459,3.773,1.092,5.677,1.584c2.502,0.647,6.141,1.211,6.562-2.238
				c0.283-2.301-0.848-4.889-1.709-6.947c-1.146-2.742-2.934-5.209-5.072-7.262c-3.429-3.289-8.207-5.668-13.021-5.683
				C1194.361,63.006,1193.682,63.082,1193.02,63.203c-0.87,0.158-0.543,1.49,0.324,1.334c4.84-0.877,9.978,1.727,13.475,4.875
				c2.316,2.085,4.062,4.703,5.263,7.568c0.692,1.655,2.092,4.75,1.199,6.572c-0.556,1.133-2.426,0.737-3.382,0.553
				c-1.868-0.359-3.686-0.987-5.516-1.5c-1.784-0.5-3.631-0.957-5.494-0.959c-1.744-0.002-3.289,0.699-4.71,1.66
				c-2.581,1.741-4.626,4.133-7.079,6.034c-0.695,0.541-1.761,1.341-2.703,1.066c-1.213-0.354-1.53-2.605-1.727-3.591
				c-1.707-8.541,0.828-20.252,10.674-22.278C1194.212,64.357,1193.885,63.025,1193.02,63.203"/>
			<path fill="#C3A1CC" d="M1169.947,61.398c4.037-0.241,12.092,5.617,7.436,9.72c-2.416,2.13-5.279-0.86-6.704-2.612
				c-1.403-1.726-4.753-6.509-0.55-7.126c0.877-0.128,0.545-1.461-0.323-1.334c-1.829,0.269-3.074,1.558-3.159,3.418
				c-0.067,1.569,1.103,3.247,1.926,4.479c1.828,2.736,4.769,6.203,8.473,4.908c1.647-0.578,2.62-2.113,2.985-3.75
				c0.373-1.668-0.222-3.056-1.224-4.365c-1.851-2.422-5.654-4.899-8.817-4.711C1169.111,60.081,1169.064,61.453,1169.947,61.398"/>
			<path fill="#C3A1CC" d="M1181.104,49.183c2.791,0.816,4.604,2.715,5.316,5.519c0.485,1.912,0.629,4.901-1.203,6.2
				c-2.121,1.504-4.326-1.67-5.192-3.168c-0.854-1.471-1.425-3.104-1.582-4.799C1178.295,51.355,1178.99,48.779,1181.104,49.183
				c0.863,0.164,1.263-1.149,0.396-1.315c-1.799-0.343-3.18,0.604-3.993,2.184c-0.937,1.823-0.378,4.245,0.264,6.067
				c0.926,2.625,3.407,7.045,6.827,6.469c3.023-0.511,3.712-4.184,3.41-6.72c-0.459-3.889-2.688-6.883-6.508-8
				C1180.646,47.619,1180.256,48.934,1181.104,49.183"/>
			<path fill="#C3A1CC" d="M1199.754,45.972c1.449,2.716,1.871,5.726,0.869,8.665c-0.348,1.019-0.926,2.019-1.732,2.737
				c-1.248,1.114-2.79-0.006-3.532-1.097c-1.279-1.881-1.593-4.563-1.169-6.739c0.312-1.617,1.171-3.375,2.601-4.267
				C1197.803,44.639,1199.139,44.976,1199.754,45.972c0.463,0.75,1.666,0.088,1.2-0.667c-0.688-1.113-1.828-1.737-3.136-1.726
				c-1.862,0.014-3.197,1.607-4.029,3.089c-1.752,3.12-1.428,7.249,0.369,10.275c0.779,1.316,2.16,2.312,3.729,2.236
				c1.482-0.07,2.515-1.232,3.238-2.406c2.165-3.498,1.693-7.975-0.171-11.467C1200.537,44.525,1199.337,45.19,1199.754,45.972"/>
			<path fill="#C3A1CC" d="M1210.971,51.845c0.604-0.38,1.286-0.786,2.021-0.587c1.229,0.332,1.658,2.436,1.731,3.49
				c0.193,2.742-0.713,6.689-3.603,7.773c-2.557,0.959-3.914-1.539-3.747-3.73c0.098-1.254,0.68-2.523,1.213-3.639
				C1209.152,53.968,1209.877,52.617,1210.971,51.845c0.715-0.504,0.059-1.711-0.666-1.2c-1.421,1.004-2.305,2.565-3.039,4.105
				c-0.746,1.562-1.336,3.219-1.287,4.97c0.082,3.015,2.811,5.132,5.703,4.048c3.705-1.39,4.723-6.32,4.338-9.801
				c-0.157-1.434-1.005-3.388-2.448-3.953c-1.144-0.446-2.285,0.012-3.267,0.63C1209.559,51.114,1210.221,52.317,1210.971,51.845"/>
		</g>
		<g>
			
				<rect x="1103.482" y="8.898" transform="matrix(0.7618 -0.6478 0.6478 0.7618 247.8846 740.2008)" fill="none" width="53.993" height="48.251"/>
			<path fill="#C3A1CC" d="M1128.298,29.084c-3.944,3.434-5.593,8.577-5.038,13.715c0.639,5.904,3.754,12.311,8.196,16.301
				c1.115,1.002,2.506,1.752,3.996,1.164c1.346-0.531,2.054-2.221,2.569-3.445c1.539-3.661,2.009-8.312,4.829-11.298
				c1.304-1.379,3.332-1.979,5.1-2.48c2.024-0.576,4.098-0.968,6.132-1.509c2.677-0.712,6.369-2.104,4.948-5.544
				c-0.947-2.297-3.363-4.116-5.251-5.585c-2.515-1.956-5.481-3.317-8.559-4.108c-4.932-1.267-10.645-0.973-15.146,1.549
				C1129.445,28.195,1128.852,28.623,1128.298,29.084c-0.73,0.605,0.277,1.677,1.004,1.074c4.057-3.365,10.223-3.639,15.144-2.541
				c3.261,0.728,6.27,2.251,8.896,4.296c1.519,1.181,4.452,3.333,4.578,5.504c0.079,1.351-1.875,1.964-2.864,2.295
				c-1.936,0.647-3.96,1.019-5.938,1.502c-1.929,0.472-3.894,1.018-5.634,1.996c-1.629,0.916-2.701,2.384-3.522,4.027
				c-1.492,2.985-2.143,6.295-3.432,9.361c-0.365,0.87-0.938,2.178-1.962,2.418c-1.319,0.307-2.801-1.627-3.502-2.443
				c-6.089-7.075-9.886-19.34-1.763-26.414C1130.018,29.533,1129.011,28.463,1128.298,29.084"/>
			<path fill="#C3A1CC" d="M1105.811,39.544c3.643-2.351,14.244-1.122,12.057,5.159c-1.134,3.26-5.38,1.976-7.633,1.09
				c-2.22-0.873-7.861-3.574-4.264-6.363c0.751-0.58-0.261-1.65-1.004-1.074c-1.565,1.213-2.052,3.072-1.149,4.853
				c0.763,1.501,2.736,2.452,4.153,3.169c3.147,1.592,7.718,3.281,10.492,0.122c1.235-1.405,1.334-3.352,0.813-5.071
				c-0.529-1.752-1.814-2.736-3.439-3.432c-3.001-1.286-7.855-1.597-10.709,0.244C1104.336,38.752,1105.015,40.059,1105.811,39.544"
				/>
			<path fill="#C3A1CC" d="M1109.796,22.268c3.034-0.706,5.726,0.113,7.866,2.354c1.459,1.528,3.167,4.243,2.141,6.422
				c-1.188,2.519-4.917,0.716-6.516-0.226c-1.569-0.924-2.962-2.146-4.002-3.646C1108.316,25.773,1107.61,23.004,1109.796,22.268
				c0.892-0.3,0.573-1.736-0.325-1.435c-1.858,0.627-2.649,2.237-2.576,4.14c0.084,2.195,1.882,4.162,3.438,5.525
				c2.244,1.963,6.889,4.783,9.777,2.445c2.554-2.068,1.263-5.858-0.354-8.067c-2.477-3.389-6.133-5.009-10.287-4.043
				C1108.546,21.049,1108.872,22.482,1109.796,22.268"/>
			<path fill="#C3A1CC" d="M1125.515,9.455c2.783,1.772,4.762,4.359,5.372,7.631c0.211,1.133,0.196,2.371-0.176,3.467
				c-0.58,1.697-2.608,1.463-3.876,0.836c-2.187-1.082-3.889-3.422-4.639-5.676c-0.559-1.674-0.684-3.767,0.182-5.352
				C1122.991,9.238,1124.415,8.85,1125.515,9.455c0.827,0.456,1.603-0.795,0.771-1.254c-1.228-0.676-2.62-0.658-3.836,0.039
				c-1.73,0.994-2.14,3.184-2.137,5.004c0.009,3.836,2.484,7.518,5.754,9.398c1.422,0.818,3.232,1.021,4.656,0.125
				c1.348-0.846,1.698-2.475,1.758-3.953c0.18-4.402-2.617-8.334-6.195-10.613C1125.484,7.692,1124.714,8.945,1125.515,9.455"/>
			<path fill="#C3A1CC" d="M1139.076,9.033c0.363-0.672,0.786-1.41,1.577-1.611c1.321-0.338,2.829,1.401,3.454,2.346
				c1.624,2.457,2.854,6.62,0.729,9.152c-1.881,2.239-4.463,0.623-5.461-1.511c-0.569-1.222-0.694-2.712-0.783-4.034
				C1138.495,11.973,1138.462,10.33,1139.076,9.033c0.4-0.847-0.848-1.627-1.254-0.769c-0.798,1.685-0.801,3.606-0.678,5.432
				c0.129,1.851,0.448,3.706,1.416,5.315c1.661,2.771,5.322,3.312,7.452,0.776c2.729-3.247,1.082-8.385-1.107-11.431
				c-0.902-1.256-2.723-2.633-4.366-2.4c-1.303,0.186-2.128,1.215-2.717,2.308C1137.374,9.094,1138.624,9.869,1139.076,9.033"/>
		</g>
		<g>
			
				<rect x="1051.513" y="28.79" transform="matrix(0.7632 0.6462 -0.6462 0.7632 290.8998 -685.0769)" fill="none" width="57.17" height="51.09"/>
			<path fill="#C3A1CC" d="M1083.854,51.412c-4.269-3.529-9.925-4.364-15.195-2.899c-6.06,1.685-12.215,6.043-15.617,11.372
				c-0.854,1.34-1.398,2.922-0.527,4.376c0.787,1.314,2.674,1.763,4.043,2.091c4.092,0.978,9.029,0.666,12.636,3.1
				c1.666,1.123,2.643,3.139,3.472,4.898c0.95,2.017,1.717,4.113,2.633,6.146c1.205,2.673,3.294,6.291,6.646,4.214
				c2.235-1.386,3.72-4.225,4.93-6.45c1.61-2.963,2.521-6.298,2.817-9.647c0.473-5.369-0.82-11.286-4.23-15.556
				C1084.979,52.458,1084.431,51.912,1083.854,51.412c-0.759-0.66-1.703,0.578-0.949,1.234c4.216,3.656,5.563,10.052,5.266,15.381
				c-0.199,3.531-1.271,6.938-2.955,10.035c-0.971,1.789-2.714,5.226-4.961,5.73c-1.396,0.314-2.375-1.621-2.891-2.598
				c-1.012-1.909-1.746-3.961-2.594-5.945c-0.825-1.934-1.734-3.893-3.057-5.541c-1.237-1.543-2.956-2.411-4.814-2.986
				c-3.375-1.045-6.945-1.152-10.369-1.971c-0.974-0.232-2.438-0.605-2.864-1.634c-0.549-1.325,1.216-3.206,1.948-4.08
				c6.342-7.579,18.5-13.66,27.291-6.393C1083.68,53.286,1084.626,52.05,1083.854,51.412"/>
			<path fill="#C3A1CC" d="M1069.049,29.723c3.084,3.398,3.628,14.688-3.312,13.484c-3.601-0.623-2.99-5.28-2.453-7.786
				c0.526-2.469,2.379-8.83,5.912-5.55c0.735,0.684,1.679-0.558,0.948-1.235c-1.537-1.427-3.562-1.613-5.268-0.364
				c-1.438,1.054-2.09,3.282-2.595,4.886c-1.12,3.562-2.099,8.627,1.681,10.982c1.682,1.048,3.731,0.815,5.438-0.024
				c1.739-0.855,2.547-2.367,2.993-4.185c0.825-3.357,0.312-8.483-2.103-11.146C1069.622,28.046,1068.375,28.979,1069.049,29.723"/>
			<path fill="#C3A1CC" d="M1087.784,30.908c1.262,3.048,0.87,6.001-1.104,8.624c-1.346,1.788-3.888,4.04-6.34,3.344
				c-2.836-0.808-1.596-5.014-0.888-6.847c0.695-1.798,1.732-3.465,3.12-4.81C1083.866,29.967,1086.64,28.752,1087.784,30.908
				c0.467,0.88,1.913,0.3,1.442-0.587c-0.976-1.834-2.793-2.384-4.77-1.979c-2.279,0.467-4.023,2.683-5.179,4.545
				c-1.664,2.683-3.811,8.021-0.869,10.637c2.601,2.312,6.337,0.309,8.367-1.76c3.111-3.171,4.177-7.27,2.449-11.443
				C1088.842,29.393,1087.401,29.98,1087.784,30.908"/>
			<path fill="#C3A1CC" d="M1103.88,45.121c-1.373,3.213-3.733,5.725-7.047,6.927c-1.146,0.417-2.443,0.615-3.652,0.414
				c-1.872-0.313-1.978-2.472-1.54-3.905c0.754-2.469,2.903-4.65,5.131-5.823c1.651-0.872,3.815-1.363,5.621-0.732
				C1103.671,42.447,1104.323,43.868,1103.88,45.121c-0.334,0.942,1.105,1.536,1.441,0.588c0.496-1.398,0.235-2.852-0.701-4.001
				c-1.338-1.636-3.695-1.685-5.596-1.368c-4.007,0.669-7.427,3.891-8.827,7.63c-0.609,1.627-0.51,3.554,0.673,4.887
				c1.115,1.262,2.877,1.347,4.432,1.154c4.631-0.571,8.256-4.171,10.021-8.302C1105.716,44.785,1104.274,44.197,1103.88,45.121"/>
			<path fill="#C3A1CC" d="M1106.657,59.217c0.766,0.264,1.608,0.578,1.955,1.369c0.582,1.324-0.977,3.197-1.855,4.014
				c-2.286,2.119-6.422,4.125-9.435,2.338c-2.664-1.578-1.422-4.555,0.637-5.965c1.178-0.806,2.714-1.191,4.079-1.515
				C1103.486,59.116,1105.198,58.798,1106.657,59.217c0.955,0.272,1.555-1.167,0.588-1.443c-1.897-0.543-3.906-0.213-5.791,0.23
				c-1.912,0.451-3.795,1.105-5.312,2.393c-2.606,2.215-2.541,6.135,0.476,7.922c3.86,2.289,8.946-0.315,11.75-3.129
				c1.155-1.158,2.282-3.297,1.756-4.975c-0.418-1.329-1.635-2.014-2.879-2.441C1106.301,57.448,1105.706,58.889,1106.657,59.217"/>
		</g>
		<g>
			
				<rect x="991.936" y="49.656" transform="matrix(0.9407 -0.3393 0.3393 0.9407 35.5949 349.8081)" fill="none" width="52.489" height="46.906"/>
			<path fill="#C3A1CC" d="M1017.562,68.749c-4.764,1.781-8.019,5.899-9.266,10.767c-1.435,5.592-0.783,12.486,1.899,17.635
				c0.674,1.293,1.684,2.449,3.239,2.423c1.407-0.024,2.629-1.321,3.516-2.261c2.65-2.809,4.664-6.881,8.251-8.637
				c1.656-0.811,3.708-0.665,5.488-0.519c2.038,0.167,4.059,0.517,6.096,0.718c2.68,0.266,6.515,0.26,6.396-3.357
				c-0.08-2.414-1.657-4.895-2.876-6.875c-1.62-2.638-3.856-4.891-6.388-6.66c-4.057-2.834-9.357-4.516-14.314-3.756
				C1018.91,68.331,1018.224,68.518,1017.562,68.749c-0.873,0.302-0.32,1.621,0.547,1.321c4.84-1.68,10.546,0.174,14.65,2.853
				c2.721,1.774,4.938,4.188,6.633,6.945c0.979,1.592,2.916,4.552,2.291,6.571c-0.391,1.256-2.379,1.148-3.392,1.112
				c-1.981-0.069-3.952-0.424-5.919-0.659c-1.916-0.228-3.892-0.4-5.81-0.104c-1.794,0.277-3.271,1.249-4.58,2.465
				c-2.377,2.207-4.099,4.999-6.316,7.35c-0.631,0.668-1.598,1.662-2.611,1.53c-1.307-0.169-1.993-2.435-2.354-3.418
				c-3.128-8.518-2.399-20.978,7.408-24.646C1018.974,69.745,1018.423,68.426,1017.562,68.749"/>
			<path fill="#C3A1CC" d="M993.524,70.6c4.115-0.897,13.349,3.836,9.214,8.809c-2.146,2.58-5.571-0.038-7.319-1.612
				c-1.723-1.551-5.938-5.937-1.71-7.246c0.881-0.272,0.325-1.592-0.547-1.321c-1.84,0.57-2.916,2.098-2.703,4.025
				c0.182,1.626,1.655,3.165,2.7,4.301c2.322,2.522,5.905,5.619,9.509,3.691c1.604-0.857,2.358-2.596,2.471-4.339
				c0.116-1.776-0.719-3.109-1.96-4.298c-2.294-2.194-6.606-4.133-9.832-3.43C992.452,69.375,992.624,70.795,993.524,70.6"/>
			<path fill="#C3A1CC" d="M1003.045,56.232c3.004,0.393,5.174,2.057,6.358,4.826c0.807,1.891,1.435,4.943-0.243,6.576
				c-1.94,1.889-4.72-1.025-5.854-2.428c-1.112-1.376-1.965-2.965-2.398-4.686C1000.502,58.919,1000.806,56.157,1003.045,56.232
				c0.914,0.031,1.114-1.385,0.194-1.416c-1.906-0.064-3.177,1.132-3.759,2.89c-0.673,2.026,0.293,4.43,1.245,6.202
				c1.373,2.552,4.64,6.705,8.066,5.561c3.03-1.011,3.146-4.902,2.431-7.464c-1.099-3.929-3.874-6.651-7.983-7.188
				C1002.323,54.697,1002.131,56.113,1003.045,56.232"/>
			<path fill="#C3A1CC" d="M1021.726,49.932c1.929,2.562,2.846,5.591,2.286,8.779c-0.193,1.104-0.63,2.225-1.344,3.096
				c-1.105,1.346-2.872,0.441-3.812-0.562c-1.618-1.729-2.37-4.44-2.284-6.749c0.062-1.714,0.662-3.661,1.989-4.81
				C1019.502,48.874,1020.931,49.005,1021.726,49.932c0.598,0.697,1.729-0.177,1.128-0.879c-0.887-1.035-2.16-1.494-3.506-1.271
				c-1.914,0.313-3.031,2.168-3.649,3.826c-1.304,3.493-0.306,7.69,2.03,10.517c1.016,1.229,2.595,2.032,4.196,1.702
				c1.516-0.311,2.39-1.672,2.947-2.998c1.665-3.948,0.46-8.479-2.021-11.775C1022.299,48.317,1021.17,49.194,1021.726,49.932"/>
			<path fill="#C3A1CC" d="M1034.214,54.174c0.561-0.488,1.196-1.015,1.985-0.929c1.318,0.144,2.098,2.241,2.344,3.313
				c0.641,2.791,0.341,7-2.459,8.58c-2.476,1.396-4.275-0.955-4.455-3.238c-0.103-1.307,0.293-2.705,0.662-3.939
				C1032.682,56.652,1033.212,55.145,1034.214,54.174c0.654-0.634-0.217-1.771-0.879-1.128c-1.302,1.261-1.96,3.011-2.469,4.714
				c-0.518,1.729-0.857,3.527-0.527,5.321c0.569,3.089,3.718,4.831,6.521,3.249c3.591-2.023,3.846-7.264,2.891-10.783
				c-0.393-1.449-1.578-3.325-3.155-3.674c-1.248-0.276-2.351,0.38-3.26,1.173C1032.643,53.648,1033.517,54.781,1034.214,54.174"/>
		</g>
		<g>
			
				<rect x="950.723" y="10.84" transform="matrix(0.9251 -0.3798 0.3798 0.9251 61.4666 371.4344)" fill="none" width="42.741" height="38.195"/>
			<path fill="#C3A1CC" d="M971.477,26.491c-3.812,1.618-6.312,5.084-7.155,9.086c-0.97,4.601-0.194,10.187,2.17,14.279
				c0.594,1.027,1.456,1.934,2.722,1.856c1.145-0.07,2.091-1.167,2.779-1.963c2.057-2.378,3.55-5.763,6.406-7.318
				c1.318-0.718,2.992-0.673,4.445-0.617c1.665,0.063,3.32,0.277,4.984,0.369c2.188,0.12,5.309-0.02,5.084-2.958
				c-0.149-1.961-1.521-3.923-2.582-5.492c-1.412-2.088-3.312-3.842-5.434-5.191c-3.399-2.163-7.771-3.342-11.777-2.549
				C972.559,26.104,972.006,26.28,971.477,26.491c-0.698,0.276-0.202,1.33,0.492,1.055c3.877-1.539,8.585-0.231,12.021,1.802
				c2.274,1.348,4.166,3.232,5.641,5.416c0.854,1.26,2.534,3.6,2.096,5.265c-0.271,1.036-1.893,1.018-2.719,1.024
				c-1.615,0.013-3.229-0.205-4.838-0.326c-1.565-0.118-3.18-0.189-4.729,0.121c-1.45,0.29-2.618,1.132-3.641,2.167
				c-1.854,1.88-3.156,4.212-4.878,6.203c-0.489,0.565-1.24,1.409-2.068,1.338c-1.068-0.091-1.709-1.911-2.037-2.697
				c-2.847-6.819-2.695-16.98,5.153-20.312C972.66,27.252,972.165,26.199,971.477,26.491"/>
			<path fill="#C3A1CC" d="M951.986,28.848c3.315-0.876,10.995,2.648,7.808,6.839c-1.652,2.175-4.533,0.167-6.011-1.052
				c-1.457-1.2-5.041-4.618-1.648-5.834c0.707-0.253,0.209-1.306-0.492-1.055c-1.477,0.529-2.298,1.809-2.056,3.371
				c0.205,1.316,1.459,2.516,2.349,3.403c1.979,1.97,5.004,4.362,7.867,2.666c1.274-0.754,1.826-2.195,1.856-3.616
				c0.03-1.449-0.694-2.505-1.747-3.427c-1.943-1.704-5.521-3.128-8.12-2.443C951.071,27.891,951.261,29.039,951.986,28.848"/>
			<path fill="#C3A1CC" d="M959.224,16.823c2.456,0.213,4.281,1.489,5.344,3.702c0.723,1.508,1.342,3.97,0.034,5.357
				c-1.512,1.604-3.876-0.667-4.848-1.768c-0.955-1.08-1.703-2.343-2.118-3.726C957.25,19.099,957.398,16.841,959.224,16.823
				c0.744-0.007,0.856-1.166,0.106-1.16c-1.553,0.016-2.543,1.034-2.955,2.484c-0.475,1.673,0.396,3.594,1.234,5.001
				c1.206,2.028,4.01,5.29,6.759,4.239c2.429-0.93,2.386-4.099,1.713-6.158c-1.033-3.158-3.388-5.274-6.751-5.566
				C958.582,15.6,958.476,16.759,959.224,16.823"/>
			<path fill="#C3A1CC" d="M974.196,11.037c1.659,2.017,2.513,4.448,2.171,7.061c-0.119,0.904-0.435,1.833-0.982,2.566
				c-0.853,1.134-2.322,0.461-3.122-0.323c-1.379-1.351-2.087-3.528-2.099-5.409c-0.01-1.397,0.41-3.002,1.449-3.983
				C972.351,10.254,973.518,10.311,974.196,11.037c0.511,0.546,1.399-0.205,0.887-0.755c-0.757-0.81-1.811-1.139-2.896-0.911
				c-1.547,0.323-2.392,1.871-2.836,3.243c-0.936,2.887,0.025,6.267,2.024,8.483c0.87,0.964,2.183,1.561,3.475,1.236
				c1.223-0.307,1.885-1.445,2.292-2.543c1.216-3.27,0.074-6.914-2.06-9.508C974.605,9.702,973.719,10.456,974.196,11.037"/>
			<path fill="#C3A1CC" d="M984.506,14.045c0.438-0.417,0.938-0.868,1.582-0.826c1.078,0.07,1.786,1.748,2.024,2.613
				c0.62,2.247,0.525,5.683-1.696,7.066c-1.965,1.224-3.512-0.625-3.739-2.477c-0.13-1.059,0.144-2.211,0.399-3.229
				C983.348,16.115,983.726,14.87,984.506,14.045c0.51-0.539-0.238-1.433-0.755-0.886c-1.014,1.072-1.487,2.518-1.841,3.922
				c-0.358,1.425-0.572,2.899-0.24,4.348c0.572,2.492,3.194,3.798,5.42,2.412c2.85-1.774,2.87-6.044,1.969-8.874
				c-0.371-1.166-1.401-2.65-2.696-2.877c-1.025-0.181-1.898,0.392-2.61,1.07C983.21,13.673,983.961,14.564,984.506,14.045"/>
		</g>
		<g>
			
				<rect x="898.481" y="15.661" transform="matrix(0.6891 0.7246 -0.7246 0.6891 314.5304 -657.3315)" fill="none" width="49.823" height="44.524"/>
			<path fill="#C3A1CC" d="M926.871,35.701c-3.367-3.458-8.191-4.713-12.896-3.938c-5.408,0.891-11.15,4.09-14.6,8.388
				c-0.866,1.08-1.486,2.399-0.868,3.742c0.562,1.213,2.152,1.779,3.308,2.191c3.452,1.231,7.763,1.424,10.657,3.871
				c1.337,1.129,1.994,2.968,2.548,4.57c0.635,1.836,1.102,3.726,1.704,5.572c0.794,2.43,2.265,5.76,5.361,4.275
				c2.068-0.991,3.621-3.311,4.877-5.125c1.674-2.417,2.777-5.221,3.349-8.095c0.912-4.608,0.349-9.857-2.205-13.876
				C927.748,36.713,927.324,36.188,926.871,35.701c-0.596-0.643-1.531,0.341-0.939,0.98c3.311,3.564,3.877,9.231,3.118,13.822
				c-0.503,3.042-1.753,5.892-3.502,8.418c-1.01,1.458-2.843,4.272-4.837,4.5c-1.239,0.142-1.905-1.627-2.261-2.521
				c-0.696-1.75-1.143-3.598-1.688-5.396c-0.534-1.752-1.138-3.535-2.129-5.088c-0.928-1.454-2.335-2.367-3.891-3.04
				c-2.827-1.222-5.91-1.65-8.801-2.681c-0.82-0.293-2.056-0.753-2.328-1.685c-0.353-1.199,1.354-2.663,2.069-3.352
				c6.207-5.973,17.313-10.1,24.248-2.978C926.544,37.309,927.48,36.326,926.871,35.701"/>
			<path fill="#C3A1CC" d="M916.078,15.518c2.354,3.234,1.766,13.066-4.135,11.373c-3.062-0.878-2.097-4.856-1.396-6.977
				c0.689-2.089,2.89-7.427,5.645-4.254c0.572,0.661,1.507-0.326,0.938-0.98c-1.197-1.381-2.936-1.733-4.53-0.81
				c-1.344,0.778-2.117,2.647-2.706,3.989c-1.306,2.981-2.627,7.278,0.427,9.674c1.356,1.066,3.155,1.057,4.713,0.489
				c1.588-0.578,2.429-1.812,2.985-3.345c1.031-2.832,1.068-7.321-0.774-9.854C916.732,14.119,915.564,14.811,916.078,15.518"/>
			<path fill="#C3A1CC" d="M932.201,18.304c0.807,2.76,0.189,5.281-1.767,7.37c-1.334,1.422-3.747,3.135-5.807,2.301
				c-2.383-0.965-0.912-4.494-0.127-6.015c0.771-1.493,1.826-2.84,3.154-3.875C928.896,17.12,931.412,16.328,932.201,18.304
				c0.322,0.807,1.629,0.439,1.306-0.373c-0.673-1.681-2.196-2.327-3.946-2.162c-2.02,0.19-3.737,1.947-4.913,3.452
				c-1.694,2.168-4.056,6.592-1.753,9.134c2.036,2.247,5.464,0.862,7.415-0.739c2.995-2.456,4.302-5.907,3.197-9.686
				C933.26,17.09,931.956,17.464,932.201,18.304"/>
			<path fill="#C3A1CC" d="M944.812,32.13c-1.49,2.654-3.772,4.609-6.756,5.341c-1.032,0.252-2.175,0.303-3.203,0.015
				c-1.594-0.447-1.481-2.328-0.969-3.528c0.885-2.069,2.953-3.758,4.991-4.565c1.514-0.601,3.437-0.822,4.941-0.107
				C944.884,29.793,945.314,31.086,944.812,32.13c-0.378,0.785,0.813,1.435,1.194,0.644c0.562-1.165,0.474-2.448-0.231-3.532
				c-1.006-1.544-3.043-1.807-4.722-1.711c-3.532,0.203-6.799,2.673-8.362,5.782c-0.683,1.352-0.775,3.032,0.123,4.298
				c0.85,1.197,2.366,1.437,3.731,1.416c4.066-0.061,7.544-2.838,9.461-6.253C946.436,32.012,945.242,31.366,944.812,32.13"/>
			<path fill="#C3A1CC" d="M945.896,44.604c0.639,0.3,1.34,0.653,1.565,1.371c0.379,1.201-1.146,2.679-1.984,3.303
				c-2.181,1.623-5.952,2.971-8.395,1.141c-2.16-1.618-0.805-4.08,1.111-5.109c1.096-0.587,2.463-0.779,3.677-0.929
				C943.158,44.219,944.671,44.104,945.896,44.604c0.802,0.326,1.456-0.864,0.646-1.195c-1.593-0.649-3.364-0.552-5.04-0.344
				c-1.699,0.212-3.393,0.603-4.826,1.576c-2.467,1.674-2.776,5.075-0.332,6.908c3.131,2.346,7.781,0.566,10.476-1.608
				c1.11-0.896,2.288-2.643,1.987-4.146c-0.235-1.19-1.228-1.898-2.265-2.385C945.754,43.038,945.104,44.23,945.896,44.604"/>
		</g>
		<g>
			
				<rect x="829.124" y="39.434" transform="matrix(0.9987 0.0501 -0.0501 0.9987 4.4725 -43.0508)" fill="none" width="63.173" height="56.454"/>
			<path fill="#C3A1CC" d="M861.986,62.543c-6.116-0.234-11.646,2.827-15.289,7.65c-4.191,5.543-6.672,13.5-6.085,20.463
				c0.147,1.749,0.73,3.503,2.474,4.195c1.572,0.627,3.53-0.246,4.951-0.875c4.248-1.888,8.376-5.475,13.175-5.757
				c2.216-0.131,4.427,0.984,6.335,1.974c2.188,1.132,4.269,2.459,6.437,3.63c2.852,1.538,7.112,3.315,8.661-0.759
				c1.033-2.717,0.434-6.205,0.002-8.971c-0.573-3.682-2.012-7.222-4-10.361c-3.188-5.033-8.293-9.362-14.149-10.822
				C863.677,62.706,862.828,62.595,861.986,62.543c-1.109-0.07-1.109,1.65-0.008,1.721c6.155,0.383,11.631,5.094,14.942,9.976
				c2.195,3.233,3.539,6.944,4.139,10.794c0.349,2.222,1.122,6.41-0.511,8.361c-1.016,1.213-3.173,0.17-4.281-0.342
				c-2.169-1-4.189-2.307-6.267-3.482c-2.021-1.143-4.133-2.252-6.4-2.814c-2.123-0.523-4.215-0.133-6.231,0.608
				c-3.664,1.348-6.872,3.646-10.428,5.227c-1.011,0.449-2.547,1.104-3.611,0.487c-1.371-0.794-1.083-3.63-1.025-4.889
				c0.482-10.912,7.08-24.408,19.675-23.926C863.09,64.307,863.092,62.586,861.986,62.543"/>
			<path fill="#C3A1CC" d="M834.434,53.43c4.988,0.916,13.04,10.462,6.14,14.062c-3.578,1.867-6.168-2.631-7.378-5.19
				c-1.192-2.521-3.835-9.35,1.468-8.841c1.104,0.106,1.102-1.616,0.006-1.721c-2.307-0.221-4.212,0.974-4.871,3.214
				c-0.553,1.889,0.368,4.282,1,6.03c1.406,3.88,3.946,8.982,8.845,8.517c2.181-0.208,3.823-1.787,4.76-3.669
				c0.953-1.918,0.646-3.787-0.181-5.684c-1.526-3.502-5.417-7.659-9.323-8.376C833.812,51.574,833.344,53.229,834.434,53.43"/>
			<path fill="#C3A1CC" d="M851.682,41.901c3.152,1.83,4.789,4.686,4.816,8.313c0.018,2.473-0.703,6.155-3.324,7.188
				c-3.031,1.195-4.765-3.332-5.373-5.416c-0.596-2.045-0.803-4.205-0.485-6.316C847.609,43.703,849.229,40.776,851.682,41.901
				c1,0.459,1.881-1.021,0.873-1.483c-2.087-0.957-4.053-0.219-5.516,1.462c-1.688,1.938-1.732,5.055-1.498,7.466
				c0.338,3.472,2.036,9.599,6.373,9.921c3.834,0.287,5.771-3.979,6.166-7.158c0.604-4.874-1.21-9.186-5.525-11.692
				C851.594,39.861,850.722,41.344,851.682,41.901"/>
			<path fill="#C3A1CC" d="M875.351,43.584c0.95,3.741,0.562,7.531-1.54,10.809c-0.729,1.137-1.731,2.18-2.93,2.814
				c-1.854,0.98-3.396-0.844-3.973-2.396c-0.994-2.673-0.57-6.033,0.598-8.556c0.866-1.875,2.438-3.757,4.445-4.416
				C873.373,41.376,874.899,42.186,875.351,43.584c0.34,1.051,2.003,0.606,1.66-0.452c-0.503-1.561-1.704-2.663-3.3-3.042
				c-2.271-0.541-4.375,0.998-5.832,2.553c-3.068,3.273-3.91,8.397-2.632,12.621c0.556,1.838,1.938,3.463,3.87,3.84
				c1.826,0.359,3.429-0.748,4.664-1.959c3.684-3.609,4.452-9.202,3.229-14.013C876.737,42.057,875.077,42.507,875.351,43.584"/>
			<path fill="#C3A1CC" d="M887.246,54.098c0.85-0.283,1.801-0.572,2.637-0.11c1.398,0.772,1.287,3.463,1.062,4.769
				c-0.586,3.396-2.873,7.931-6.717,8.384c-3.398,0.401-4.304-3.046-3.442-5.664c0.494-1.498,1.583-2.869,2.565-4.067
				C884.395,56.137,885.684,54.709,887.246,54.098c1.021-0.4,0.583-2.067-0.451-1.662c-2.031,0.796-3.574,2.432-4.932,4.087
				c-1.376,1.68-2.59,3.518-3.058,5.664c-0.805,3.693,1.882,7.09,5.73,6.638c4.928-0.581,7.644-6.279,8.219-10.632
				c0.238-1.793-0.207-4.426-1.796-5.545c-1.259-0.887-2.787-0.671-4.165-0.212C885.746,52.784,886.19,54.447,887.246,54.098"/>
		</g>
		<g>
			
				<rect x="785.786" y="5.092" transform="matrix(0.9508 -0.3097 0.3097 0.9508 29.3804 255.5509)" fill="none" width="67.483" height="60.305"/>
			<path fill="#C3A1CC" d="M818.855,29.633c-6.191,2.097-10.539,7.26-12.339,13.463c-2.067,7.13-1.51,16.015,1.73,22.738
				c0.813,1.689,2.064,3.217,4.065,3.245c1.812,0.024,3.433-1.593,4.609-2.765c3.521-3.502,6.271-8.654,10.951-10.767
				c2.16-0.976,4.791-0.706,7.072-0.446c2.613,0.297,5.195,0.828,7.805,1.17c3.434,0.446,8.362,0.596,8.354-4.06
				c-0.004-3.105-1.934-6.357-3.418-8.952c-1.978-3.455-4.762-6.439-7.942-8.815c-5.099-3.806-11.842-6.18-18.245-5.403
				C820.605,29.15,819.717,29.363,818.855,29.633c-1.134,0.353-0.477,2.07,0.649,1.72c6.287-1.965,13.547,0.648,18.715,4.255
				c3.423,2.391,6.179,5.581,8.244,9.193c1.193,2.085,3.562,5.968,2.678,8.538c-0.551,1.599-3.102,1.379-4.401,1.292
				c-2.545-0.17-5.062-0.704-7.58-1.085c-2.453-0.37-4.983-0.673-7.461-0.368c-2.316,0.285-4.256,1.473-5.985,2.982
				c-3.144,2.742-5.468,6.26-8.413,9.191c-0.836,0.832-2.119,2.07-3.418,1.861c-1.671-0.271-2.465-3.21-2.889-4.486
				c-3.676-11.071-2.239-27.056,10.512-31.375C820.631,30.97,819.976,29.253,818.855,29.633"/>
			<path fill="#C3A1CC" d="M787.89,31.044c5.326-0.988,17.001,5.469,11.487,11.691c-2.859,3.229-7.158-0.272-9.342-2.366
				c-2.15-2.062-7.394-7.867-1.906-9.381c1.145-0.314,0.482-2.031-0.65-1.72c-2.387,0.659-3.83,2.577-3.635,5.064
				c0.168,2.097,2,4.134,3.298,5.637c2.883,3.335,7.362,7.458,12.071,5.125c2.096-1.038,3.135-3.241,3.35-5.476
				c0.222-2.277-0.798-4.025-2.346-5.602c-2.859-2.913-8.325-5.578-12.498-4.805C786.562,29.429,786.725,31.26,787.89,31.044"/>
			<path fill="#C3A1CC" d="M800.703,12.964c3.844,0.625,6.565,2.851,7.977,6.46c0.961,2.46,1.646,6.41-0.576,8.439
				c-2.568,2.349-6.022-1.508-7.426-3.355c-1.375-1.812-2.403-3.889-2.895-6.116C797.328,16.314,797.828,12.776,800.703,12.964
				c1.174,0.077,1.488-1.735,0.307-1.813c-2.447-0.158-4.127,1.328-4.944,3.562c-0.946,2.578,0.196,5.705,1.352,8.021
				c1.66,3.335,5.69,8.802,10.143,7.472c3.935-1.178,4.24-6.174,3.425-9.495c-1.254-5.094-4.711-8.704-9.974-9.561
				C799.838,10.962,799.533,12.774,800.703,12.964"/>
			<path fill="#C3A1CC" d="M824.963,5.619c2.375,3.371,3.432,7.301,2.584,11.374c-0.293,1.409-0.896,2.834-1.85,3.925
				c-1.478,1.686-3.709,0.451-4.877-0.877c-2.013-2.288-2.869-5.802-2.666-8.765c0.149-2.2,0.999-4.679,2.752-6.101
				C822.148,4.169,823.979,4.396,824.963,5.619c0.738,0.92,2.229-0.158,1.484-1.084c-1.097-1.365-2.716-2.007-4.453-1.777
				c-2.473,0.327-3.984,2.664-4.846,4.771c-1.812,4.437-0.699,9.871,2.188,13.597c1.254,1.622,3.252,2.716,5.324,2.356
				c1.959-0.338,3.138-2.053,3.908-3.734c2.299-5.006,0.934-10.878-2.121-15.213C825.765,3.566,824.279,4.648,824.963,5.619"/>
			<path fill="#C3A1CC" d="M840.842,11.573c0.738-0.605,1.578-1.257,2.589-1.114c1.689,0.238,2.604,2.965,2.878,4.354
				c0.711,3.611,0.158,9.01-3.504,10.927c-3.237,1.695-5.457-1.399-5.596-4.341c-0.078-1.683,0.486-3.465,1.01-5.037
				C838.773,14.696,839.516,12.78,840.842,11.573c0.865-0.788-0.207-2.284-1.084-1.484c-1.723,1.567-2.639,3.789-3.361,5.958
				c-0.733,2.201-1.243,4.498-0.893,6.818c0.607,3.992,4.582,6.356,8.25,4.438c4.695-2.459,5.232-9.181,4.148-13.741
				c-0.447-1.881-1.896-4.339-3.908-4.851c-1.594-0.404-3.037,0.395-4.236,1.378C838.845,10.835,839.922,12.325,840.842,11.573"/>
		</g>
		<g>
			
				<rect x="752.402" y="52.549" transform="matrix(0.7841 0.6206 -0.6206 0.7841 212.3933 -465.2433)" fill="none" width="45.002" height="40.216"/>
			<path fill="#C3A1CC" d="M777.731,70.258c-3.45-2.666-7.924-3.175-12.032-1.885c-4.724,1.482-9.452,5.074-11.99,9.354
				c-0.638,1.076-1.023,2.336-0.301,3.457c0.652,1.015,2.148,1.317,3.233,1.539c3.245,0.663,7.122,0.288,10.022,2.109
				c1.34,0.84,2.161,2.4,2.857,3.764c0.802,1.562,1.459,3.191,2.232,4.768c1.018,2.072,2.755,4.863,5.337,3.143
				c1.724-1.148,2.817-3.42,3.711-5.203c1.189-2.373,1.819-5.021,1.965-7.664c0.232-4.236-0.938-8.858-3.731-12.129
				C778.646,71.051,778.198,70.636,777.731,70.258c-0.614-0.499-1.325,0.5-0.716,0.996c3.411,2.768,4.64,7.764,4.543,11.964
				c-0.062,2.784-0.818,5.491-2.062,7.974c-0.717,1.433-1.999,4.182-3.754,4.639c-1.09,0.284-1.91-1.214-2.342-1.969
				c-0.846-1.476-1.478-3.071-2.195-4.609c-0.699-1.5-1.466-3.018-2.549-4.279c-1.015-1.183-2.39-1.82-3.866-2.225
				c-2.683-0.734-5.494-0.727-8.21-1.281c-0.771-0.156-1.934-0.412-2.296-1.211c-0.466-1.027,0.873-2.553,1.427-3.26
				c4.792-6.129,14.199-11.229,21.306-5.741C777.644,71.736,778.355,70.739,777.731,70.258"/>
			<path fill="#C3A1CC" d="M765.52,53.579c2.515,2.593,3.236,11.46-2.255,10.694c-2.849-0.396-2.49-4.076-2.134-6.062
				c0.353-1.956,1.644-7.009,4.508-4.521c0.598,0.519,1.308-0.482,0.716-0.996c-1.247-1.083-2.847-1.177-4.154-0.149
				c-1.104,0.866-1.56,2.638-1.914,3.912c-0.789,2.832-1.426,6.841,1.608,8.597c1.351,0.78,2.956,0.545,4.277-0.16
				c1.346-0.72,1.94-1.93,2.245-3.371c0.562-2.664,0.025-6.684-1.944-8.714C765.926,52.245,764.969,53.012,765.52,53.579"/>
			<path fill="#C3A1CC" d="M780.29,54.023c1.071,2.365,0.841,4.699-0.644,6.813c-1.013,1.44-2.953,3.279-4.9,2.795
				c-2.253-0.562-1.387-3.903-0.877-5.362c0.5-1.434,1.271-2.772,2.329-3.867C777.184,53.384,779.333,52.356,780.29,54.023
				c0.391,0.68,1.513,0.186,1.12-0.5c-0.814-1.417-2.26-1.802-3.805-1.432c-1.78,0.426-3.096,2.216-3.955,3.711
				c-1.24,2.153-2.789,6.409-0.407,8.392c2.105,1.75,4.995,0.078,6.537-1.604c2.366-2.576,3.097-5.829,1.63-9.068
				C781.083,52.803,779.964,53.304,780.29,54.023"/>
			<path fill="#C3A1CC" d="M793.323,64.787c-0.995,2.562-2.788,4.602-5.363,5.633c-0.892,0.357-1.905,0.547-2.862,0.421
				c-1.48-0.196-1.619-1.894-1.313-3.032c0.528-1.961,2.164-3.734,3.885-4.716c1.278-0.729,2.968-1.172,4.404-0.723
				C793.09,62.688,793.641,63.789,793.323,64.787c-0.238,0.75,0.911,1.18,1.149,0.424c0.354-1.113,0.112-2.249-0.655-3.129
				c-1.096-1.253-2.95-1.229-4.438-0.932c-3.134,0.631-5.741,3.255-6.746,6.233c-0.437,1.296-0.308,2.81,0.657,3.828
				c0.911,0.963,2.298,0.983,3.517,0.792c3.63-0.57,6.388-3.496,7.667-6.793C794.76,64.475,793.61,64.049,793.323,64.787"/>
			<path fill="#C3A1CC" d="M795.877,75.805c0.608,0.188,1.28,0.412,1.574,1.026c0.491,1.026-0.687,2.541-1.355,3.205
				c-1.744,1.728-4.945,3.413-7.361,2.086c-2.139-1.173-1.237-3.547,0.345-4.71c0.906-0.664,2.104-1.01,3.171-1.298
				C793.379,75.809,794.717,75.514,795.877,75.805c0.758,0.189,1.192-0.959,0.425-1.15c-1.507-0.379-3.079-0.067-4.551,0.332
				c-1.492,0.404-2.957,0.97-4.116,2.021c-1.993,1.812-1.84,4.892,0.58,6.22c3.098,1.7,7.03-0.48,9.164-2.768
				c0.879-0.941,1.71-2.654,1.251-3.96c-0.363-1.034-1.339-1.541-2.328-1.845C795.55,74.422,795.12,75.57,795.877,75.805"/>
		</g>
		<g>
			
				<rect x="696.116" y="47.95" transform="matrix(0.9311 0.3647 -0.3647 0.9311 76.3087 -258.9315)" fill="none" width="55.061" height="49.205"/>
			<path fill="#C3A1CC" d="M726.118,68.708c-4.988-1.888-10.404-0.886-14.752,2.09c-4.998,3.422-9.251,9.312-10.693,15.229
				c-0.361,1.486-0.365,3.098,0.883,4.152c1.127,0.952,2.986,0.773,4.336,0.646c4.033-0.384,8.438-2.206,12.48-1.111
				c1.867,0.505,3.386,2.038,4.688,3.384c1.494,1.543,2.847,3.215,4.314,4.781c1.932,2.062,4.961,4.708,7.368,1.771
				c1.605-1.959,2.075-5.008,2.483-7.414c0.545-3.201,0.336-6.524-0.438-9.67c-1.241-5.041-4.263-10.031-8.699-12.86
				C727.471,69.311,726.8,68.982,726.118,68.708c-0.896-0.365-1.373,1.058-0.48,1.421c4.98,2.02,8.201,7.428,9.588,12.379
				c0.921,3.28,1.003,6.719,0.434,10.065c-0.328,1.933-0.847,5.608-2.736,6.769c-1.175,0.721-2.669-0.736-3.442-1.466
				c-1.517-1.426-2.825-3.067-4.216-4.612c-1.354-1.504-2.793-3.006-4.512-4.098c-1.608-1.021-3.445-1.277-5.318-1.223
				c-3.4,0.099-6.688,1.111-10.064,1.433c-0.959,0.091-2.409,0.208-3.119-0.597c-0.913-1.036,0.11-3.301,0.506-4.324
				c3.419-8.885,12.607-18.212,22.883-14.327C726.544,70.47,727.021,69.049,726.118,68.708"/>
			<path fill="#C3A1CC" d="M705.871,53.55c3.868,2.138,7.881,12.257,1.181,13.321c-3.475,0.553-4.37-3.881-4.661-6.333
				c-0.285-2.414-0.582-8.788,3.66-6.899c0.884,0.394,1.356-1.031,0.481-1.421c-1.847-0.822-3.75-0.361-4.916,1.308
				c-0.98,1.408-0.881,3.642-0.842,5.261c0.088,3.595,0.773,8.516,4.951,9.486c1.858,0.431,3.655-0.418,4.948-1.717
				c1.319-1.322,1.583-2.949,1.424-4.746c-0.292-3.316-2.354-7.83-5.387-9.504C705.871,51.844,705.025,53.083,705.871,53.55"/>
			<path fill="#C3A1CC" d="M723.315,48.796c2.1,2.385,2.661,5.199,1.681,8.204c-0.67,2.049-2.285,4.893-4.737,5.021
				c-2.836,0.146-3.016-4.072-2.94-5.963c0.072-1.856,0.5-3.699,1.346-5.355C719.452,49.158,721.601,47.188,723.315,48.796
				c0.699,0.656,1.837-0.323,1.133-0.984c-1.46-1.368-3.289-1.302-4.963-0.318c-1.934,1.135-2.831,3.699-3.306,5.755
				c-0.682,2.963-0.975,8.497,2.521,9.965c3.09,1.297,5.872-1.692,7.078-4.21c1.849-3.859,1.542-7.926-1.331-11.192
				C723.808,47.085,722.677,48.07,723.315,48.796"/>
			<path fill="#C3A1CC" d="M742.411,56.738c-0.25,3.354-1.62,6.379-4.265,8.507c-0.915,0.735-2.034,1.321-3.2,1.515
				c-1.805,0.297-2.572-1.638-2.62-3.08c-0.081-2.484,1.198-5.144,2.861-6.906c1.234-1.309,3.055-2.431,4.896-2.418
				C741.389,54.366,742.425,55.457,742.411,56.738c-0.011,0.962,1.486,1.055,1.498,0.086c0.017-1.43-0.673-2.674-1.888-3.428
				c-1.728-1.075-3.891-0.386-5.524,0.496c-3.442,1.856-5.558,5.858-5.668,9.703c-0.049,1.673,0.643,3.397,2.135,4.245
				c1.41,0.803,3.041,0.332,4.398-0.329c4.043-1.963,6.225-6.372,6.547-10.687C743.98,55.859,742.483,55.771,742.411,56.738"/>
			<path fill="#C3A1CC" d="M749.333,68.719c0.779,0.002,1.646,0.026,2.209,0.639c0.941,1.026,0.104,3.219-0.441,4.235
				c-1.425,2.646-4.568,5.761-7.87,5.071c-2.92-0.609-2.715-3.709-1.277-5.635c0.822-1.103,2.102-1.932,3.246-2.65
				C746.411,69.615,747.872,68.792,749.333,68.719c0.955-0.049,1.054-1.547,0.086-1.498c-1.897,0.096-3.627,1.021-5.207,2.014
				c-1.602,1.007-3.113,2.19-4.094,3.834c-1.688,2.83-0.406,6.382,2.898,7.072c4.233,0.883,8.056-3.074,9.735-6.511
				c0.692-1.417,1.053-3.716,0.051-5.081c-0.795-1.081-2.117-1.326-3.385-1.328C748.457,67.218,748.364,68.716,749.333,68.719"/>
		</g>
		<g>
			
				<rect x="644.87" y="15.413" transform="matrix(0.9431 0.3326 -0.3326 0.9431 51.6616 -221.4168)" fill="none" width="55.47" height="49.571"/>
			<path fill="#C3A1CC" d="M674.999,36.25c-5.088-1.728-10.507-0.533-14.781,2.614c-4.913,3.618-8.991,9.694-10.239,15.7
				c-0.312,1.509-0.261,3.131,1.031,4.149c1.168,0.92,3.033,0.677,4.389,0.501c4.047-0.525,8.419-2.512,12.526-1.549
				c1.897,0.443,3.479,1.936,4.838,3.245c1.559,1.5,2.978,3.138,4.509,4.665c2.017,2.009,5.156,4.568,7.479,1.529
				c1.55-2.028,1.917-5.114,2.246-7.549c0.438-3.242,0.113-6.582-0.774-9.722c-1.424-5.033-4.637-9.953-9.202-12.648
				C676.381,36.809,675.694,36.504,674.999,36.25c-0.916-0.336-1.346,1.113-0.436,1.447c5.084,1.861,8.513,7.196,10.081,12.133
				c1.038,3.271,1.239,6.729,0.781,10.119c-0.264,1.957-0.658,5.675-2.521,6.908c-1.157,0.768-2.713-0.649-3.519-1.356
				c-1.574-1.384-2.949-2.991-4.402-4.498c-1.415-1.468-2.914-2.931-4.684-3.971c-1.654-0.972-3.513-1.166-5.396-1.046
				c-3.422,0.217-6.696,1.351-10.085,1.789c-0.962,0.125-2.418,0.293-3.16-0.492c-0.955-1.012-0.003-3.326,0.359-4.372
				c3.137-9.062,12.064-18.771,22.544-15.213C675.488,38.009,675.919,36.562,674.999,36.25"/>
			<path fill="#C3A1CC" d="M654.091,21.688c3.969,2.018,8.356,12.066,1.648,13.37c-3.479,0.677-4.534-3.756-4.911-6.214
				c-0.373-2.421-0.889-8.829,3.447-7.073c0.902,0.366,1.33-1.085,0.436-1.447c-1.887-0.764-3.789-0.234-4.904,1.487
				c-0.938,1.451-0.762,3.696-0.666,5.325c0.213,3.617,1.074,8.547,5.312,9.38c1.887,0.37,3.665-0.548,4.923-1.898
				c1.282-1.376,1.491-3.025,1.271-4.828c-0.408-3.33-2.643-7.801-5.752-9.382C654.031,19.97,653.223,21.247,654.091,21.688"/>
			<path fill="#C3A1CC" d="M671.49,16.3c2.194,2.329,2.857,5.142,1.975,8.202c-0.604,2.085-2.133,5.004-4.596,5.218
				c-2.853,0.247-3.177-3.996-3.168-5.901c0.01-1.871,0.376-3.74,1.17-5.438C667.612,16.797,669.708,14.739,671.49,16.3
				c0.727,0.636,1.838-0.389,1.104-1.03c-1.517-1.327-3.354-1.198-5.008-0.149c-1.905,1.208-2.723,3.821-3.128,5.908
				c-0.584,3.007-0.688,8.588,2.882,9.945c3.155,1.2,5.854-1.906,6.98-4.482c1.729-3.95,1.277-8.034-1.728-11.223
				C671.927,14.56,670.822,15.59,671.49,16.3"/>
			<path fill="#C3A1CC" d="M690.989,23.636c-0.136,3.386-1.411,6.479-4,8.712c-0.896,0.773-2.003,1.4-3.169,1.636
				c-1.808,0.362-2.647-1.561-2.744-3.01c-0.169-2.5,1.027-5.221,2.643-7.052c1.197-1.361,2.99-2.553,4.847-2.604
				C689.878,21.283,690.959,22.347,690.989,23.636c0.021,0.97,1.533,1.011,1.511,0.035c-0.033-1.438-0.77-2.667-2.018-3.385
				c-1.775-1.023-3.932-0.254-5.547,0.69c-3.4,1.987-5.392,6.089-5.371,9.964c0.008,1.685,0.765,3.398,2.296,4.2
				c1.446,0.758,3.072,0.229,4.417-0.483c4.002-2.116,6.048-6.63,6.223-10.985C692.539,22.698,691.028,22.661,690.989,23.636"/>
			<path fill="#C3A1CC" d="M698.371,35.459c0.785-0.025,1.658-0.03,2.246,0.567c0.982,1,0.218,3.236-0.299,4.279
				c-1.343,2.712-4.401,5.957-7.749,5.377c-2.96-0.513-2.86-3.641-1.48-5.629c0.79-1.138,2.05-2.019,3.178-2.781
				C695.461,36.463,696.902,35.584,698.371,35.459c0.96-0.082,1.008-1.594,0.035-1.511c-1.908,0.162-3.616,1.153-5.172,2.207
				c-1.579,1.069-3.062,2.312-3.99,4.002c-1.602,2.908-0.189,6.438,3.163,7.02c4.292,0.744,8.003-3.373,9.576-6.891
				c0.647-1.45,0.933-3.777-0.125-5.117c-0.837-1.061-2.178-1.262-3.452-1.22C697.438,33.979,697.396,35.49,698.371,35.459"/>
		</g>
		<g>
			
				<rect x="590.709" y="48.37" transform="matrix(0.9725 -0.2331 0.2331 0.9725 0.8317 144.9536)" fill="none" width="46.075" height="41.175"/>
			<path fill="#C3A1CC" d="M613.648,65.133c-4.328,1.092-7.568,4.369-9.13,8.492c-1.795,4.74-1.896,10.818-0.056,15.568
				c0.463,1.195,1.231,2.302,2.592,2.43c1.229,0.115,2.421-0.896,3.286-1.63c2.586-2.192,4.736-5.552,8.037-6.733
				c1.523-0.546,3.299-0.221,4.838,0.08c1.764,0.344,3.491,0.846,5.248,1.219c2.312,0.491,5.658,0.859,5.906-2.309
				c0.166-2.113-0.972-4.432-1.841-6.277c-1.157-2.459-2.891-4.641-4.928-6.431c-3.263-2.867-7.725-4.849-12.123-4.667
				C614.864,64.898,614.248,64.997,613.648,65.133c-0.791,0.178-0.438,1.383,0.348,1.206c4.387-0.996,9.185,1.177,12.506,3.912
				c2.199,1.812,3.901,4.133,5.111,6.704c0.699,1.482,2.102,4.255,1.358,5.956c-0.461,1.058-2.186,0.771-3.064,0.64
				c-1.725-0.253-3.407-0.754-5.101-1.15c-1.648-0.385-3.355-0.728-5.058-0.654c-1.594,0.068-2.977,0.771-4.236,1.705
				c-2.286,1.695-4.061,3.964-6.225,5.798c-0.613,0.522-1.555,1.295-2.426,1.083c-1.123-0.275-1.504-2.318-1.724-3.211
				c-1.901-7.734-0.057-18.534,8.855-20.781C614.783,66.141,614.43,64.936,613.648,65.133"/>
			<path fill="#C3A1CC" d="M592.496,64.413c3.68-0.384,11.272,4.644,7.184,8.58c-2.121,2.042-4.855-0.573-6.229-2.117
				c-1.353-1.521-4.604-5.755-0.788-6.487c0.795-0.152,0.438-1.356-0.349-1.205c-1.66,0.318-2.748,1.545-2.75,3.25
				c0,1.436,1.137,2.92,1.938,4.015c1.779,2.426,4.605,5.475,7.938,4.143c1.482-0.593,2.31-2.034,2.576-3.544
				c0.273-1.539-0.323-2.783-1.293-3.939c-1.786-2.138-5.362-4.248-8.243-3.948C591.68,63.242,591.693,64.497,592.496,64.413"/>
			<path fill="#C3A1CC" d="M602.199,52.804c2.582,0.634,4.312,2.295,5.077,4.829c0.521,1.727,0.771,4.452-0.851,5.713
				c-1.877,1.459-4.019-1.353-4.872-2.687c-0.838-1.31-1.426-2.777-1.638-4.32C599.719,54.9,600.252,52.52,602.199,52.804
				c0.794,0.116,1.104-1.1,0.307-1.217c-1.658-0.241-2.881,0.679-3.561,2.156c-0.783,1.702-0.174,3.893,0.483,5.53
				c0.951,2.36,3.396,6.301,6.498,5.636c2.742-0.587,3.222-3.97,2.847-6.275c-0.577-3.534-2.733-6.179-6.269-7.047
				C601.719,51.394,601.413,52.611,602.199,52.804"/>
			<path fill="#C3A1CC" d="M619.107,49.122c1.434,2.423,1.938,5.155,1.142,7.881c-0.276,0.942-0.765,1.88-1.472,2.57
				c-1.098,1.067-2.552,0.106-3.272-0.861c-1.245-1.667-1.638-4.104-1.339-6.109c0.222-1.49,0.936-3.13,2.205-4.003
				C617.271,47.982,618.504,48.236,619.107,49.122c0.452,0.666,1.524,0.013,1.067-0.658c-0.672-0.988-1.737-1.513-2.934-1.45
				c-1.701,0.087-2.855,1.596-3.558,2.983c-1.475,2.921-1.012,6.68,0.75,9.373c0.767,1.171,2.066,2.024,3.496,1.894
				c1.353-0.125,2.246-1.229,2.862-2.33c1.837-3.281,1.226-7.353-0.618-10.469C619.764,47.768,618.695,48.424,619.107,49.122"/>
			<path fill="#C3A1CC" d="M629.59,54.036c0.536-0.372,1.144-0.77,1.823-0.618c1.137,0.253,1.612,2.159,1.722,3.119
				c0.288,2.497-0.381,6.14-2.978,7.246c-2.296,0.978-3.639-1.249-3.573-3.258c0.039-1.149,0.52-2.332,0.962-3.373
				C628.014,56.049,628.621,54.785,629.59,54.036c0.633-0.49-0.017-1.566-0.656-1.069c-1.258,0.974-2.002,2.436-2.611,3.873
				c-0.618,1.458-1.091,2.994-0.977,4.592c0.195,2.75,2.773,4.575,5.373,3.469c3.328-1.418,4.06-5.963,3.568-9.127
				c-0.202-1.304-1.055-3.055-2.396-3.513c-1.062-0.362-2.088,0.104-2.957,0.707C628.271,53.425,628.924,54.498,629.59,54.036"/>
		</g>
		<g>
			
				<rect x="536.256" y="19.957" transform="matrix(0.9252 0.3795 -0.3795 0.9252 60.1875 -211.4575)" fill="none" width="60.376" height="53.953"/>
			<path fill="#C3A1CC" d="M569.232,42.791c-5.438-2.155-11.393-1.153-16.211,2.035c-5.539,3.664-10.305,10.048-11.987,16.509
				c-0.423,1.623-0.454,3.39,0.895,4.567c1.221,1.063,3.262,0.9,4.742,0.783c4.429-0.35,9.289-2.271,13.703-1
				c2.038,0.586,3.677,2.293,5.082,3.793c1.611,1.715,3.062,3.573,4.646,5.316c2.082,2.294,5.357,5.249,8.049,2.07
				c1.795-2.12,2.361-5.454,2.853-8.084c0.653-3.501,0.482-7.148-0.311-10.609c-1.272-5.549-4.498-11.073-9.313-14.252
				C570.705,43.475,569.975,43.105,569.232,42.791c-0.979-0.415-1.523,1.137-0.554,1.549c5.427,2.302,8.862,8.288,10.297,13.739
				c0.951,3.612,0.981,7.383,0.3,11.043c-0.395,2.112-1.026,6.134-3.118,7.374c-1.301,0.771-2.913-0.855-3.75-1.668
				c-1.638-1.589-3.044-3.412-4.541-5.129c-1.458-1.674-3.009-3.346-4.874-4.571c-1.745-1.147-3.755-1.46-5.811-1.433
				c-3.729,0.049-7.353,1.103-11.06,1.396c-1.053,0.083-2.646,0.185-3.409-0.708c-0.981-1.152,0.178-3.617,0.629-4.732
				c3.904-9.679,14.142-19.747,25.337-15.309C569.668,44.731,570.216,43.181,569.232,42.791"/>
			<path fill="#C3A1CC" d="M547.299,25.821c4.204,2.411,8.426,13.575,1.062,14.625c-3.819,0.545-4.725-4.331-5-7.023
				c-0.272-2.652-0.484-9.646,4.134-7.5c0.961,0.447,1.505-1.106,0.551-1.55c-2.009-0.933-4.104-0.461-5.41,1.349
				c-1.101,1.527-1.03,3.978-1.017,5.753c0.034,3.943,0.702,9.35,5.265,10.486c2.03,0.506,4.015-0.395,5.455-1.794
				c1.469-1.426,1.787-3.207,1.645-5.179c-0.264-3.642-2.446-8.625-5.739-10.513C547.329,23.95,546.38,25.294,547.299,25.821"/>
			<path fill="#C3A1CC" d="M566.507,20.913c2.26,2.651,2.827,5.745,1.699,9.023c-0.771,2.234-2.591,5.323-5.281,5.422
				c-3.112,0.112-3.234-4.517-3.121-6.588c0.113-2.034,0.613-4.045,1.568-5.848C562.265,21.242,564.654,19.119,566.507,20.913
				c0.756,0.731,2.021-0.322,1.258-1.06c-1.575-1.525-3.582-1.485-5.436-0.435c-2.137,1.211-3.168,4.006-3.723,6.252
				c-0.8,3.237-1.217,9.298,2.59,10.968c3.364,1.476,6.467-1.753,7.833-4.491c2.095-4.2,1.828-8.664-1.266-12.294
				C567.076,19.045,565.819,20.105,566.507,20.913"/>
			<path fill="#C3A1CC" d="M587.304,29.953c-0.333,3.673-1.889,6.966-4.823,9.252c-1.018,0.792-2.255,1.413-3.535,1.605
				c-1.982,0.294-2.791-1.84-2.818-3.421c-0.047-2.727,1.403-5.619,3.258-7.521c1.377-1.414,3.392-2.611,5.41-2.566
				C586.224,27.334,587.341,28.548,587.304,29.953c-0.028,1.055,1.611,1.183,1.641,0.12c0.043-1.566-0.69-2.941-2.009-3.791
				c-1.875-1.209-4.26-0.49-6.066,0.447c-3.807,1.975-6.193,6.326-6.383,10.538c-0.083,1.833,0.646,3.736,2.267,4.691
				c1.532,0.904,3.329,0.417,4.828-0.284c4.466-2.082,6.937-6.877,7.363-11.602C589.039,29.017,587.399,28.895,587.304,29.953"/>
			<path fill="#C3A1CC" d="M594.683,43.208c0.855,0.016,1.806,0.058,2.411,0.74c1.016,1.141,0.061,3.53-0.559,4.636
				c-1.606,2.875-5.109,6.234-8.717,5.421c-3.19-0.718-2.911-4.113-1.304-6.2c0.921-1.193,2.339-2.082,3.605-2.849
				C591.464,44.14,593.08,43.263,594.683,43.208c1.048-0.036,1.184-1.677,0.121-1.64c-2.083,0.072-3.994,1.056-5.743,2.116
				c-1.773,1.077-3.452,2.348-4.556,4.133c-1.897,3.074-0.557,6.99,3.055,7.804c4.625,1.043,8.886-3.229,10.786-6.968
				c0.784-1.541,1.221-4.055,0.146-5.57c-0.854-1.199-2.299-1.49-3.688-1.515C593.749,41.548,593.62,43.188,594.683,43.208"/>
		</g>
		<g>
			
				<rect x="478.699" y="51.034" transform="matrix(0.8439 0.5365 -0.5365 0.8439 118.8656 -259.3259)" fill="none" width="52.745" height="47.136"/>
			<path fill="#C3A1CC" d="M508.119,71.445c-4.344-2.689-9.619-2.744-14.254-0.744c-5.327,2.299-10.407,7.056-12.851,12.354
				c-0.612,1.33-0.912,2.844,0.066,4.064c0.886,1.104,2.666,1.275,3.958,1.404c3.862,0.381,8.337-0.523,11.938,1.248
				c1.662,0.817,2.81,2.539,3.787,4.043c1.121,1.725,2.084,3.545,3.177,5.289c1.438,2.291,3.8,5.338,6.603,3.019
				c1.87-1.547,2.871-4.327,3.697-6.513c1.101-2.91,1.515-6.073,1.365-9.172c-0.24-4.969-2.163-10.215-5.815-13.689
				C509.28,72.26,508.709,71.831,508.119,71.445c-0.776-0.506-1.484,0.742-0.713,1.248c4.312,2.813,6.346,8.49,6.74,13.399
				c0.262,3.253-0.294,6.5-1.442,9.542c-0.664,1.758-1.826,5.117-3.816,5.861c-1.236,0.462-2.374-1.184-2.968-2.012
				c-1.163-1.618-2.093-3.401-3.115-5.109c-0.997-1.663-2.073-3.339-3.488-4.682c-1.325-1.256-3.005-1.834-4.775-2.127
				c-3.216-0.531-6.493-0.184-9.726-0.502c-0.919-0.09-2.304-0.248-2.822-1.133c-0.668-1.143,0.709-3.084,1.269-3.974
				c4.848-7.724,15.199-14.806,24.146-9.265C508.195,73.182,508.905,71.932,508.119,71.445"/>
			<path fill="#C3A1CC" d="M491.868,53.477c3.245,2.718,5.157,12.97-1.337,12.74c-3.369-0.117-3.396-4.451-3.219-6.809
				c0.174-2.323,1.066-8.37,4.709-5.815c0.758,0.533,1.465-0.72,0.713-1.247c-1.584-1.112-3.459-1.029-4.861,0.327
				c-1.181,1.144-1.498,3.261-1.759,4.791c-0.577,3.396-0.835,8.147,2.913,9.828c1.669,0.747,3.514,0.278,4.968-0.704
				c1.483-1,2.03-2.482,2.211-4.201c0.334-3.172-0.777-7.793-3.318-9.924C492.182,51.872,491.159,52.881,491.868,53.477"/>
			<path fill="#C3A1CC" d="M509.143,52.211c1.535,2.628,1.548,5.376,0.072,8.021c-1.006,1.804-3.047,4.181-5.376,3.851
				c-2.692-0.382-2.087-4.382-1.67-6.146c0.41-1.731,1.149-3.385,2.249-4.788C505.443,51.842,507.825,50.384,509.143,52.211
				c0.537,0.746,1.785,0.034,1.245-0.717c-1.121-1.554-2.853-1.828-4.607-1.21c-2.023,0.712-3.34,2.957-4.163,4.804
				c-1.186,2.66-2.479,7.809,0.539,9.831c2.667,1.787,5.831-0.513,7.428-2.658c2.447-3.288,2.905-7.168,0.805-10.767
				C509.919,50.693,508.676,51.411,509.143,52.211"/>
			<path fill="#C3A1CC" d="M525.636,63.186c-0.851,3.108-2.694,5.7-5.571,7.215c-0.996,0.524-2.155,0.869-3.287,0.836
				c-1.75-0.051-2.117-2.012-1.897-3.377c0.38-2.351,2.072-4.615,3.959-5.965c1.402-1.004,3.318-1.725,5.048-1.375
				C525.11,60.768,525.885,61.984,525.636,63.186c-0.187,0.903,1.204,1.267,1.394,0.356c0.276-1.34-0.143-2.636-1.145-3.567
				c-1.427-1.33-3.588-1.078-5.287-0.55c-3.575,1.113-6.3,4.487-7.11,8.08c-0.354,1.563-0.021,3.312,1.228,4.384
				c1.18,1.012,2.799,0.869,4.196,0.498c4.161-1.103,7.021-4.847,8.118-8.844C527.271,62.648,525.881,62.291,525.636,63.186"/>
			<path fill="#C3A1CC" d="M529.942,75.721c0.731,0.146,1.543,0.327,1.96,1.008c0.695,1.137-0.492,3.045-1.194,3.9
				c-1.825,2.225-5.354,4.576-8.331,3.321c-2.633-1.109-1.87-3.986-0.166-5.532c0.978-0.885,2.332-1.432,3.54-1.896
				C527.03,76.027,528.555,75.521,529.942,75.721c0.905,0.131,1.273-1.261,0.355-1.393c-1.803-0.258-3.598,0.294-5.266,0.938
				c-1.69,0.651-3.33,1.486-4.554,2.853c-2.105,2.351-1.555,5.924,1.427,7.181c3.816,1.608,8.138-1.41,10.349-4.333
				c0.911-1.205,1.673-3.3,0.981-4.768c-0.55-1.162-1.748-1.636-2.938-1.87C529.395,74.148,529.031,75.54,529.942,75.721"/>
		</g>
		<g>
			
				<rect x="434.703" y="53.227" transform="matrix(0.8775 0.4796 -0.4796 0.8775 90.7557 -209.9996)" fill="none" width="43.464" height="38.841"/>
			<path fill="#C3A1CC" d="M458.779,69.884c-3.72-1.976-8.06-1.733-11.761,0.164c-4.256,2.181-8.174,6.367-9.895,10.854
				c-0.432,1.128-0.596,2.39,0.276,3.339c0.787,0.858,2.261,0.905,3.328,0.938c3.197,0.104,6.828-0.884,9.886,0.377
				c1.411,0.582,2.446,1.935,3.334,3.118c1.016,1.356,1.906,2.802,2.897,4.175c1.308,1.808,3.414,4.184,5.595,2.125
				c1.452-1.375,2.125-3.716,2.686-5.558c0.746-2.452,0.916-5.076,0.623-7.616c-0.468-4.07-2.334-8.279-5.525-10.938
				C459.777,70.491,459.285,70.168,458.779,69.884c-0.666-0.375-1.183,0.691-0.521,1.064c3.699,2.079,5.681,6.635,6.271,10.651
				c0.393,2.659,0.112,5.359-0.667,7.924c-0.45,1.48-1.225,4.308-2.819,5.026c-0.992,0.448-2.016-0.844-2.549-1.491
				c-1.045-1.269-1.906-2.685-2.84-4.033c-0.91-1.312-1.888-2.633-3.123-3.658c-1.158-0.961-2.57-1.344-4.043-1.488
				c-2.672-0.263-5.349,0.202-8.023,0.116c-0.76-0.024-1.907-0.079-2.383-0.779c-0.611-0.901,0.416-2.573,0.828-3.336
				c3.563-6.614,11.69-13,19.348-8.931C458.936,71.307,459.451,70.242,458.779,69.884"/>
			<path fill="#C3A1CC" d="M444.439,55.993c2.815,2.062,4.944,10.384-0.406,10.549c-2.775,0.086-3.033-3.476-3.018-5.424
				c0.018-1.919,0.422-6.938,3.557-5.037c0.651,0.397,1.164-0.672,0.518-1.063c-1.363-0.828-2.899-0.658-3.979,0.532
				c-0.908,1.005-1.056,2.765-1.187,4.036c-0.291,2.824-0.244,6.745,2.931,7.921c1.411,0.524,2.902,0.038,4.046-0.848
				c1.165-0.903,1.533-2.152,1.589-3.574c0.104-2.626-1.062-6.366-3.269-7.979C444.609,54.657,443.824,55.543,444.439,55.993"/>
			<path fill="#C3A1CC" d="M458.574,54.014c1.403,2.078,1.563,4.336,0.495,6.592c-0.729,1.537-2.278,3.604-4.21,3.459
				c-2.236-0.168-1.955-3.489-1.707-4.963c0.241-1.445,0.76-2.846,1.588-4.06C455.512,53.911,457.392,52.583,458.574,54.014
				c0.481,0.584,1.47-0.069,0.983-0.658c-1.006-1.216-2.444-1.348-3.854-0.745c-1.627,0.695-2.587,2.614-3.163,4.176
				c-0.829,2.252-1.612,6.556,0.978,8.054c2.291,1.324,4.769-0.737,5.964-2.589c1.834-2.838,1.999-6.052,0.075-8.897
				C459.13,52.723,458.146,53.381,458.574,54.014"/>
			<path fill="#C3A1CC" d="M472.732,62.141c-0.531,2.603-1.906,4.834-4.189,6.234c-0.791,0.484-1.726,0.831-2.658,0.866
				c-1.44,0.053-1.85-1.539-1.742-2.673c0.185-1.954,1.451-3.908,2.931-5.121c1.098-0.902,2.635-1.598,4.076-1.404
				C472.168,60.182,472.871,61.139,472.732,62.141c-0.105,0.752,1.059,0.976,1.162,0.217c0.155-1.117-0.259-2.16-1.134-2.873
				c-1.246-1.015-3.009-0.69-4.377-0.164c-2.881,1.109-4.936,4.031-5.406,7.031c-0.207,1.305,0.163,2.725,1.246,3.537
				c1.025,0.769,2.351,0.562,3.478,0.182c3.361-1.133,5.512-4.367,6.193-7.713C474.049,61.609,472.885,61.391,472.732,62.141"/>
			<path fill="#C3A1CC" d="M476.955,72.212c0.609,0.08,1.285,0.187,1.666,0.722c0.635,0.897-0.24,2.53-0.771,3.271
				c-1.38,1.929-4.153,4.054-6.67,3.184c-2.225-0.769-1.754-3.175-0.438-4.539c0.754-0.781,1.84-1.305,2.808-1.752
				C474.578,72.622,475.803,72.124,476.955,72.212c0.752,0.058,0.979-1.104,0.217-1.164c-1.496-0.114-2.94,0.438-4.277,1.058
				c-1.354,0.627-2.657,1.402-3.59,2.594c-1.604,2.047-0.955,4.956,1.564,5.826c3.225,1.115,6.613-1.602,8.271-4.125
				c0.685-1.039,1.197-2.803,0.547-3.974c-0.514-0.926-1.524-1.25-2.516-1.378C476.418,70.95,476.195,72.113,476.955,72.212"/>
		</g>
		<g>
			
				<rect x="372.537" y="22.617" transform="matrix(0.9984 -0.0572 0.0572 0.9984 -2.0053 22.9163)" fill="none" width="53.413" height="47.732"/>
			<path fill="#C3A1CC" d="M399.896,42.104c-5.162,0.357-9.531,3.432-12.158,7.815c-3.021,5.04-4.385,11.954-3.26,17.752
				c0.282,1.457,0.933,2.878,2.459,3.302c1.38,0.385,2.945-0.525,4.084-1.185c3.398-1.972,6.543-5.36,10.551-6.033
				c1.851-0.312,3.811,0.427,5.504,1.085c1.94,0.753,3.811,1.682,5.738,2.469c2.536,1.034,6.278,2.142,7.212-1.423
				c0.623-2.377-0.198-5.255-0.812-7.54c-0.815-3.043-2.345-5.889-4.301-8.348c-3.135-3.941-7.818-7.117-12.875-7.814
				C401.332,42.087,400.608,42.072,399.896,42.104c-0.939,0.042-0.782,1.489,0.149,1.447c5.208-0.236,10.236,3.228,13.464,7.03
				c2.139,2.52,3.604,5.517,4.456,8.698c0.494,1.836,1.525,5.285,0.329,7.074c-0.743,1.111-2.651,0.431-3.629,0.102
				c-1.913-0.643-3.732-1.561-5.583-2.357c-1.803-0.779-3.679-1.521-5.636-1.787c-1.831-0.248-3.555,0.271-5.184,1.076
				c-2.959,1.465-5.444,3.688-8.291,5.338c-0.809,0.469-2.041,1.158-2.992,0.736c-1.224-0.543-1.237-2.953-1.305-4.016
				c-0.583-9.215,3.739-21.158,14.369-21.894C400.984,43.486,400.83,42.04,399.896,42.104"/>
			<path fill="#C3A1CC" d="M375.912,36.941c4.274,0.318,11.908,7.613,6.434,11.264c-2.839,1.895-5.424-1.651-6.672-3.694
				c-1.229-2.012-4.07-7.511,0.435-7.563c0.938-0.01,0.776-1.458-0.152-1.447c-1.959,0.022-3.451,1.2-3.803,3.143
				c-0.294,1.638,0.696,3.567,1.388,4.979c1.533,3.133,4.131,7.192,8.206,6.356c1.812-0.373,3.052-1.848,3.667-3.516
				c0.628-1.699,0.2-3.242-0.667-4.761c-1.602-2.805-5.246-5.947-8.596-6.196C375.221,35.438,374.977,36.872,375.912,36.941"/>
			<path fill="#C3A1CC" d="M389.363,25.688c2.815,1.253,4.451,3.504,4.803,6.551c0.24,2.077-0.033,5.238-2.143,6.344
				c-2.44,1.279-4.308-2.369-5.007-4.065c-0.688-1.666-1.057-3.462-0.981-5.265C386.104,27.572,387.201,24.964,389.363,25.688
				c0.883,0.295,1.487-1.028,0.6-1.326c-1.84-0.615-3.426,0.183-4.504,1.729c-1.242,1.783-0.997,4.407-0.582,6.411
				c0.6,2.888,2.582,7.884,6.256,7.763c3.249-0.107,4.491-3.869,4.535-6.576c0.066-4.151-1.85-7.611-5.705-9.327
				C389.105,23.981,388.507,25.306,389.363,25.688"/>
			<path fill="#C3A1CC" d="M409.41,24.958c1.139,3.058,1.156,6.279-0.314,9.225c-0.508,1.021-1.258,1.988-2.207,2.631
				c-1.469,0.993-2.93-0.401-3.557-1.653c-1.078-2.158-1.025-5.02-0.273-7.246c0.56-1.655,1.709-3.379,3.339-4.114
				C407.549,23.28,408.904,23.822,409.41,24.958c0.381,0.853,1.738,0.329,1.354-0.531c-0.563-1.266-1.674-2.083-3.049-2.258
				c-1.959-0.248-3.588,1.236-4.672,2.675c-2.282,3.029-2.525,7.413-1.067,10.847c0.635,1.494,1.942,2.734,3.602,2.877
				c1.566,0.136,2.813-0.939,3.744-2.07c2.769-3.368,2.907-8.137,1.442-12.071C410.438,23.547,409.084,24.076,409.41,24.958"/>
			<path fill="#C3A1CC" d="M420.363,32.715c0.688-0.313,1.461-0.643,2.205-0.33c1.246,0.522,1.396,2.793,1.324,3.912
				c-0.185,2.908-1.694,6.927-4.885,7.656c-2.818,0.645-3.894-2.17-3.407-4.45c0.279-1.304,1.07-2.554,1.789-3.651
				C418.15,34.688,419.104,33.372,420.363,32.715c0.82-0.429,0.302-1.79-0.531-1.355c-1.635,0.854-2.783,2.369-3.773,3.883
				c-1.005,1.537-1.858,3.192-2.057,5.038c-0.341,3.178,2.225,5.79,5.418,5.06c4.09-0.935,5.855-5.971,5.945-9.68
				c0.037-1.529-0.575-3.702-2.014-4.5c-1.138-0.631-2.402-0.311-3.521,0.199C418.983,31.747,419.508,33.105,420.363,32.715"/>
		</g>
		<g>
			
				<rect x="317.06" y="6.791" transform="matrix(0.835 -0.5503 0.5503 0.835 38.8728 196.3339)" fill="none" width="59.449" height="53.126"/>
			<path fill="#C3A1CC" d="M344.949,28.752c-4.771,3.225-7.261,8.624-7.344,14.313c-0.095,6.538,2.451,13.957,6.771,18.912
				c1.085,1.246,2.504,2.252,4.211,1.81c1.542-0.401,2.543-2.151,3.271-3.422c2.173-3.796,3.309-8.814,6.793-11.699
				c1.606-1.332,3.904-1.717,5.903-2.028c2.29-0.358,4.607-0.508,6.903-0.827c3.021-0.42,7.241-1.443,6.15-5.395
				c-0.729-2.638-3.124-4.949-4.991-6.809c-2.484-2.474-5.545-4.359-8.801-5.637c-5.22-2.044-11.502-2.488-16.761-0.336
				C346.322,27.935,345.617,28.322,344.949,28.752c-0.88,0.563,0.078,1.87,0.953,1.31c4.883-3.136,11.657-2.607,16.889-0.748
				c3.466,1.232,6.55,3.301,9.147,5.887c1.5,1.493,4.419,4.239,4.266,6.629c-0.095,1.485-2.313,1.895-3.438,2.124
				c-2.2,0.448-4.464,0.581-6.69,0.845c-2.17,0.258-4.392,0.592-6.424,1.428c-1.902,0.783-3.272,2.243-4.392,3.929
				c-2.031,3.062-3.184,6.593-5.004,9.77c-0.517,0.902-1.316,2.254-2.469,2.379c-1.482,0.159-2.842-2.152-3.5-3.139
				c-5.705-8.548-8.21-22.461,1.615-29.103C346.769,29.475,345.812,28.169,344.949,28.752"/>
			<path fill="#C3A1CC" d="M318.973,37.17c4.294-2.081,15.718,0.683,12.483,7.254c-1.676,3.409-6.145,1.438-8.487,0.167
				c-2.308-1.25-8.112-4.959-3.806-7.524c0.896-0.534-0.063-1.839-0.953-1.31c-1.874,1.116-2.654,3.083-1.907,5.15
				c0.631,1.742,2.662,3.045,4.115,4.02c3.226,2.161,7.992,4.619,11.45,1.539c1.537-1.37,1.906-3.483,1.566-5.432
				c-0.344-1.986-1.614-3.234-3.299-4.213c-3.106-1.807-8.372-2.797-11.735-1.168C317.468,36.106,318.033,37.625,318.973,37.17"/>
			<path fill="#C3A1CC" d="M325.643,18.823c3.411-0.365,6.242,0.891,8.282,3.628c1.391,1.866,2.893,5.062,1.479,7.305
				c-1.637,2.594-5.471,0.124-7.091-1.119c-1.592-1.22-2.949-2.743-3.886-4.521C323.556,22.457,323.156,19.335,325.643,18.823
				c1.017-0.208,0.859-1.82-0.161-1.611c-2.116,0.436-3.196,2.09-3.371,4.18c-0.203,2.41,1.498,4.8,3.018,6.498
				c2.189,2.446,6.887,6.15,10.357,3.982c3.067-1.918,2.164-6.232,0.694-8.863c-2.252-4.035-6.029-6.297-10.698-5.797
				C324.44,17.324,324.604,18.935,325.643,18.823"/>
			<path fill="#C3A1CC" d="M344.539,6.929c2.803,2.31,4.617,5.402,4.848,9.06c0.079,1.266-0.103,2.616-0.656,3.765
				c-0.861,1.776-3.047,1.249-4.349,0.393c-2.243-1.475-3.79-4.26-4.309-6.823c-0.386-1.905-0.241-4.208,0.916-5.825
				C341.811,6.353,343.418,6.118,344.539,6.929c0.842,0.609,1.855-0.654,1.008-1.268c-1.249-0.904-2.774-1.071-4.196-0.471
				c-2.023,0.854-2.764,3.191-3.005,5.182c-0.506,4.192,1.707,8.549,5.027,11.041c1.444,1.085,3.396,1.55,5.074,0.762
				c1.584-0.744,2.186-2.477,2.447-4.084c0.786-4.789-1.742-9.459-5.349-12.43C344.741,4.997,343.732,6.263,344.539,6.929"/>
			<path fill="#C3A1CC" d="M359.416,8.285c0.487-0.687,1.048-1.436,1.939-1.55c1.489-0.192,2.903,1.91,3.46,3.026
				c1.444,2.903,2.232,7.617-0.431,10.1c-2.355,2.194-4.962,0.083-5.766-2.383c-0.459-1.411-0.396-3.058-0.315-4.515
				C358.387,11.42,358.57,9.619,359.416,8.285c0.552-0.872-0.709-1.894-1.268-1.009c-1.099,1.733-1.358,3.834-1.468,5.846
				c-0.108,2.04-0.008,4.11,0.832,5.999c1.446,3.25,5.375,4.332,8.043,1.847c3.415-3.183,2.306-9.019,0.32-12.64
				c-0.818-1.493-2.621-3.244-4.45-3.209c-1.447,0.027-2.486,1.042-3.277,2.157C357.547,8.123,358.81,9.138,359.416,8.285"/>
		</g>
		<g>
			
				<rect x="277.721" y="45.458" transform="matrix(0.5725 -0.8199 0.8199 0.5725 73.6644 277.8048)" fill="none" width="51.033" height="45.606"/>
			<path fill="#C3A1CC" d="M300.322,65.193c-2.782,4.087-3.055,9.185-1.315,13.748c2,5.244,6.385,10.354,11.403,12.937
				c1.261,0.647,2.712,1.001,3.933,0.104c1.104-0.809,1.347-2.521,1.522-3.766c0.529-3.718-0.157-8.082,1.706-11.488
				c0.859-1.572,2.57-2.608,4.065-3.492c1.713-1.012,3.515-1.866,5.244-2.85c2.276-1.293,5.318-3.449,3.193-6.256
				c-1.417-1.872-4.062-2.955-6.142-3.846c-2.768-1.186-5.808-1.719-8.81-1.703c-4.812,0.025-9.964,1.665-13.475,5.049
				C301.158,64.105,300.719,64.641,300.322,65.193c-0.523,0.729,0.654,1.467,1.176,0.742c2.9-4.051,8.473-5.779,13.234-5.957
				c3.154-0.115,6.271,0.556,9.164,1.795c1.67,0.715,4.869,1.979,5.506,3.934c0.396,1.216-1.243,2.245-2.068,2.785
				c-1.613,1.056-3.376,1.88-5.069,2.798c-1.648,0.896-3.314,1.864-4.671,3.176c-1.27,1.229-1.897,2.828-2.256,4.527
				c-0.646,3.088-0.448,6.271-0.891,9.381c-0.126,0.884-0.336,2.216-1.215,2.681c-1.133,0.6-2.95-0.813-3.787-1.393
				c-7.265-5.008-13.677-15.311-7.947-23.727C302.003,65.193,300.825,64.455,300.322,65.193"/>
			<path fill="#C3A1CC" d="M282.273,80.15c2.765-3.021,12.753-4.441,12.26,1.826c-0.256,3.25-4.445,3.097-6.717,2.826
				c-2.237-0.266-8.046-1.383-5.424-4.795c0.547-0.711-0.635-1.445-1.176-0.742c-1.142,1.485-1.139,3.303,0.113,4.713
				c1.056,1.189,3.09,1.586,4.558,1.9c3.259,0.7,7.842,1.148,9.621-2.404c0.792-1.582,0.416-3.385-0.473-4.832
				c-0.904-1.475-2.315-2.065-3.968-2.312c-3.053-0.455-7.566,0.426-9.732,2.793C280.735,79.781,281.669,80.812,282.273,80.15"/>
			<path fill="#C3A1CC" d="M281.772,63.4c2.604-1.373,5.262-1.271,7.757,0.266c1.7,1.048,3.913,3.12,3.497,5.357
				c-0.481,2.588-4.323,1.834-6.011,1.356c-1.656-0.468-3.224-1.252-4.534-2.373C281.261,66.962,279.951,64.598,281.772,63.4
				c0.743-0.487,0.107-1.725-0.642-1.232c-1.55,1.02-1.886,2.682-1.362,4.402c0.603,1.986,2.719,3.354,4.47,4.226
				c2.521,1.259,7.444,2.722,9.524-0.108c1.84-2.504-0.251-5.658-2.258-7.291c-3.076-2.504-6.808-3.108-10.374-1.229
				C280.338,62.587,280.979,63.818,281.772,63.4"/>
			<path fill="#C3A1CC" d="M293.07,47.917c2.969,0.952,5.397,2.844,6.741,5.688c0.466,0.985,0.748,2.12,0.672,3.211
				c-0.123,1.69-2.033,1.965-3.344,1.693c-2.257-0.466-4.375-2.195-5.602-4.076c-0.912-1.396-1.528-3.278-1.118-4.937
				C290.71,48.323,291.919,47.626,293.07,47.917c0.864,0.219,1.273-1.111,0.401-1.331c-1.283-0.324-2.554,0.026-3.497,0.956
				c-1.344,1.324-1.191,3.423-0.752,5.088c0.927,3.503,4.074,6.276,7.514,7.211c1.498,0.406,3.201,0.158,4.289-1.004
				c1.027-1.096,0.958-2.668,0.656-4.034c-0.892-4.069-4.391-6.991-8.209-8.217C292.619,46.312,292.215,47.642,293.07,47.917"/>
			<path fill="#C3A1CC" d="M305.367,44.277c0.17-0.701,0.381-1.478,1.055-1.852c1.128-0.626,2.923,0.603,3.721,1.317
				c2.074,1.855,4.199,5.366,2.861,8.191c-1.182,2.499-3.931,1.641-5.354-0.07c-0.813-0.98-1.285-2.314-1.686-3.501
				C305.541,47.104,305.115,45.61,305.367,44.277c0.163-0.87-1.166-1.284-1.332-0.401c-0.324,1.731,0.135,3.489,0.686,5.127
				c0.562,1.663,1.299,3.282,2.568,4.521c2.185,2.135,5.661,1.75,7-1.079c1.715-3.622-1.022-7.925-3.756-10.184
				c-1.126-0.931-3.119-1.755-4.567-1.146c-1.146,0.48-1.653,1.62-1.931,2.762C303.825,44.741,305.154,45.15,305.367,44.277"/>
		</g>
		<g>
			
				<rect x="214.126" y="40.921" transform="matrix(0.9543 -0.2988 0.2988 0.9543 -9.7216 77.0152)" fill="none" width="65.752" height="58.758"/>
			<path fill="#C3A1CC" d="M246.442,64.852c-6.056,1.976-10.349,6.957-12.171,12.979c-2.095,6.923-1.648,15.587,1.434,22.173
				c0.774,1.654,1.976,3.157,3.926,3.206c1.762,0.044,3.359-1.513,4.52-2.642c3.469-3.373,6.206-8.362,10.789-10.366
				c2.116-0.927,4.677-0.636,6.896-0.357c2.544,0.318,5.053,0.865,7.592,1.228c3.34,0.475,8.14,0.674,8.185-3.861
				c0.03-3.025-1.812-6.215-3.231-8.76c-1.887-3.389-4.565-6.326-7.639-8.678c-4.926-3.765-11.47-6.151-17.716-5.467
				C248.152,64.4,247.283,64.6,246.442,64.852c-1.107,0.332-0.487,2.014,0.615,1.684c6.147-1.844,13.19,0.783,18.185,4.355
				c3.308,2.365,5.956,5.504,7.93,9.047c1.139,2.045,3.405,5.854,2.514,8.349c-0.554,1.551-3.037,1.31-4.303,1.21
				c-2.477-0.194-4.924-0.743-7.373-1.143c-2.386-0.388-4.849-0.709-7.265-0.441c-2.261,0.253-4.163,1.389-5.865,2.84
				c-3.093,2.637-5.396,6.038-8.299,8.861c-0.825,0.802-2.088,1.994-3.351,1.775c-1.625-0.281-2.365-3.154-2.764-4.404
				c-3.459-10.827-1.881-26.383,10.59-30.449C248.157,66.175,247.538,64.494,246.442,64.852"/>
			<path fill="#C3A1CC" d="M216.258,65.882c5.2-0.903,16.502,5.519,11.061,11.519c-2.821,3.115-6.971-0.344-9.074-2.408
				c-2.073-2.033-7.114-7.747-1.752-9.161c1.117-0.294,0.492-1.974-0.615-1.683c-2.333,0.615-3.761,2.469-3.597,4.895
				c0.139,2.044,1.902,4.049,3.149,5.527c2.771,3.281,7.09,7.349,11.704,5.128c2.053-0.988,3.089-3.122,3.324-5.298
				c0.24-2.217-0.733-3.931-2.223-5.484c-2.754-2.869-8.049-5.525-12.123-4.818C214.981,64.293,215.12,66.079,216.258,65.882"/>
			<path fill="#C3A1CC" d="M228.943,48.41c3.738,0.651,6.366,2.85,7.7,6.382c0.908,2.407,1.531,6.265-0.655,8.217
				c-2.53,2.259-5.854-1.536-7.197-3.352c-1.32-1.782-2.3-3.816-2.752-5.992C225.617,51.637,226.144,48.195,228.943,48.41
				c1.143,0.088,1.469-1.674,0.318-1.763c-2.382-0.182-4.035,1.246-4.858,3.415c-0.95,2.501,0.13,5.56,1.228,7.829
				c1.582,3.27,5.447,8.641,9.798,7.394c3.847-1.104,4.201-5.968,3.441-9.212c-1.165-4.978-4.492-8.532-9.609-9.425
				C228.122,46.449,227.806,48.212,228.943,48.41"/>
			<path fill="#C3A1CC" d="M252.66,41.524c2.276,3.311,3.263,7.151,2.392,11.109c-0.302,1.371-0.907,2.752-1.847,3.805
				c-1.457,1.625-3.62,0.398-4.742-0.908c-1.935-2.252-2.731-5.686-2.5-8.569c0.171-2.142,1.026-4.547,2.75-5.913
				C249.935,40.08,251.715,40.321,252.66,41.524c0.71,0.904,2.174-0.129,1.458-1.04c-1.053-1.343-2.624-1.985-4.318-1.78
				c-2.413,0.291-3.912,2.551-4.774,4.594c-1.816,4.303-0.792,9.609,1.979,13.271c1.205,1.595,3.14,2.684,5.162,2.355
				c1.912-0.308,3.079-1.966,3.849-3.596c2.296-4.851,1.031-10.587-1.896-14.845C253.464,39.532,252.005,40.571,252.66,41.524"/>
			<path fill="#C3A1CC" d="M268.063,47.502c0.728-0.581,1.553-1.207,2.534-1.057c1.644,0.25,2.506,2.917,2.756,4.273
				c0.652,3.527,0.053,8.779-3.536,10.606c-3.173,1.615-5.3-1.424-5.402-4.291c-0.058-1.641,0.512-3.371,1.04-4.896
				C266.014,50.521,266.758,48.663,268.063,47.502c0.853-0.759-0.177-2.228-1.04-1.459c-1.695,1.51-2.613,3.663-3.342,5.769
				c-0.738,2.136-1.262,4.368-0.943,6.633c0.546,3.896,4.393,6.244,7.987,4.414c4.602-2.342,5.2-8.885,4.193-13.341
				c-0.414-1.837-1.797-4.247-3.752-4.769c-1.548-0.412-2.963,0.35-4.144,1.294C266.126,46.761,267.159,48.224,268.063,47.502"/>
		</g>
		<g>
			
				<rect x="153.339" y="25.877" transform="matrix(0.9901 -0.1403 0.1403 0.9901 -5.7534 26.4688)" fill="none" width="63.029" height="56.327"/>
			<path fill="#C3A1CC" d="M185.171,48.806c-6.035,0.928-10.87,4.974-13.528,10.387c-3.056,6.225-3.979,14.488-2.086,21.197
				c0.476,1.686,1.379,3.293,3.216,3.644c1.661,0.315,3.413-0.909,4.686-1.798c3.805-2.65,7.168-6.946,11.815-8.133
				c2.146-0.547,4.522,0.127,6.579,0.733c2.357,0.696,4.646,1.603,6.991,2.339c3.085,0.967,7.595,1.9,8.341-2.383
				c0.499-2.855-0.75-6.159-1.696-8.787c-1.26-3.497-3.337-6.693-5.879-9.395c-4.075-4.325-9.895-7.6-15.91-7.921
				C186.858,48.645,186.006,48.697,185.171,48.806c-1.099,0.142-0.772,1.828,0.32,1.688c6.101-0.791,12.355,2.788,16.525,6.941
				c2.763,2.752,4.78,6.133,6.097,9.789c0.76,2.11,2.312,6.065,1.082,8.287c-0.765,1.381-3.075,0.769-4.258,0.478
				c-2.313-0.568-4.542-1.468-6.797-2.226c-2.197-0.736-4.476-1.425-6.803-1.546c-2.178-0.112-4.153,0.667-5.989,1.775
				c-3.335,2.014-6.042,4.874-9.226,7.094c-0.904,0.631-2.285,1.562-3.445,1.16c-1.494-0.519-1.748-3.353-1.931-4.595
				c-1.592-10.779,2.316-25.25,14.745-27.159C186.587,50.323,186.263,48.638,185.171,48.806"/>
			<path fill="#C3A1CC" d="M156.459,45.095c5.059-0.047,14.753,7.78,8.675,12.612c-3.153,2.508-6.541-1.408-8.21-3.688
				c-1.646-2.246-5.527-8.434-0.236-8.938c1.103-0.104,0.772-1.791-0.32-1.687c-2.302,0.22-3.941,1.75-4.163,4.07
				c-0.185,1.956,1.171,4.126,2.121,5.718c2.112,3.534,5.566,8.052,10.275,6.667c2.096-0.615,3.408-2.475,3.967-4.494
				c0.571-2.062-0.083-3.833-1.252-5.533c-2.159-3.142-6.755-6.479-10.719-6.44C155.498,43.394,155.353,45.104,156.459,45.095"/>
			<path fill="#C3A1CC" d="M171.17,30.536c3.435,1.196,5.579,3.684,6.292,7.232c0.485,2.419,0.476,6.162-1.896,7.671
				c-2.744,1.744-5.298-2.361-6.288-4.288c-0.972-1.891-1.583-3.967-1.673-6.095C167.522,33.072,168.555,29.898,171.17,30.536
				c1.067,0.261,1.649-1.355,0.575-1.618c-2.226-0.542-4.011,0.554-5.126,2.477c-1.287,2.219-0.74,5.28-0.054,7.597
				c0.988,3.337,3.811,9.018,8.121,8.514c3.81-0.446,4.9-4.992,4.686-8.18c-0.329-4.888-2.924-8.769-7.626-10.407
				C170.698,28.554,170.125,30.173,171.17,30.536"/>
			<path fill="#C3A1CC" d="M194.674,27.704c1.64,3.485,1.976,7.271,0.538,10.881c-0.498,1.25-1.285,2.462-2.337,3.311
				c-1.63,1.312-3.486-0.184-4.345-1.595c-1.481-2.431-1.701-5.802-1.035-8.493c0.494-2.001,1.677-4.143,3.52-5.167
				C192.32,25.916,193.967,26.42,194.674,27.704c0.531,0.966,2.076,0.216,1.541-0.757c-0.788-1.433-2.174-2.285-3.809-2.354
				c-2.328-0.1-4.096,1.806-5.229,3.604c-2.386,3.787-2.241,8.967-0.188,12.861c0.892,1.694,2.553,3.024,4.517,3.028
				c1.856,0.007,3.218-1.381,4.199-2.803c2.925-4.232,2.619-9.855,0.51-14.337C195.744,25.945,194.202,26.701,194.674,27.704"/>
			<path fill="#C3A1CC" d="M208.317,35.75c0.778-0.437,1.656-0.9,2.562-0.606c1.516,0.492,1.917,3.148,1.943,4.471
				c0.07,3.438-1.312,8.312-4.991,9.484c-3.253,1.035-4.793-2.17-4.445-4.898c0.2-1.561,1.007-3.108,1.744-4.469
				C205.909,38.288,206.901,36.646,208.317,35.75c0.924-0.585,0.179-2.135-0.757-1.541c-1.838,1.164-3.04,3.059-4.057,4.937
				c-1.03,1.906-1.871,3.938-1.922,6.128c-0.088,3.771,3.187,6.589,6.871,5.417c4.716-1.502,6.298-7.598,6.038-11.97
				c-0.107-1.802-1.041-4.297-2.81-5.093c-1.4-0.63-2.857-0.129-4.12,0.581C206.599,34.747,207.349,36.293,208.317,35.75"/>
		</g>
		<g>
			
				<rect x="104.032" y="37.563" transform="matrix(0.9794 -0.2019 0.2019 0.9794 -9.0191 26.7074)" fill="none" width="44.773" height="40.011"/>
			<path fill="#C3A1CC" d="M126.413,53.843c-4.237,0.925-7.486,4.009-9.13,7.966c-1.89,4.547-2.177,10.448-0.538,15.121
				c0.412,1.172,1.124,2.272,2.442,2.438c1.191,0.149,2.379-0.796,3.242-1.481c2.58-2.05,4.774-5.244,8.016-6.291
				c1.497-0.482,3.211-0.111,4.697,0.229c1.702,0.388,3.365,0.93,5.06,1.347c2.231,0.549,5.469,1.011,5.808-2.06
				c0.227-2.047-0.805-4.334-1.593-6.154c-1.048-2.424-2.663-4.598-4.585-6.398c-3.081-2.886-7.353-4.95-11.632-4.911
				C127.601,53.654,127,53.729,126.413,53.843c-0.773,0.149-0.467,1.33,0.302,1.183c4.291-0.832,8.883,1.428,12.024,4.188
				c2.081,1.829,3.662,4.135,4.757,6.669c0.633,1.463,1.91,4.198,1.136,5.828c-0.481,1.013-2.147,0.681-2.998,0.526
				c-1.665-0.299-3.286-0.838-4.918-1.274c-1.59-0.426-3.237-0.812-4.892-0.794c-1.549,0.018-2.915,0.657-4.167,1.525
				c-2.275,1.574-4.067,3.723-6.226,5.438c-0.613,0.487-1.55,1.209-2.391,0.975c-1.082-0.301-1.388-2.297-1.573-3.17
				c-1.607-7.572,0.521-18.004,9.248-19.91C127.483,54.855,127.179,53.675,126.413,53.843"/>
			<path fill="#C3A1CC" d="M105.891,52.486c3.585-0.258,10.806,4.862,6.711,8.557c-2.124,1.917-4.7-0.708-5.985-2.25
				c-1.266-1.52-4.292-5.733-0.563-6.326c0.777-0.123,0.468-1.304-0.302-1.181c-1.623,0.257-2.716,1.416-2.77,3.069
				c-0.044,1.396,1.013,2.875,1.757,3.961c1.654,2.412,4.304,5.461,7.581,4.271c1.458-0.53,2.306-1.905,2.613-3.362
				c0.313-1.485-0.229-2.714-1.133-3.867c-1.67-2.131-5.077-4.292-7.885-4.09C105.134,51.324,105.107,52.542,105.891,52.486"/>
			<path fill="#C3A1CC" d="M115.675,41.512c2.488,0.695,4.119,2.364,4.782,4.848c0.452,1.693,0.611,4.348-1.003,5.522
				c-1.868,1.358-3.861-1.438-4.648-2.761c-0.773-1.297-1.298-2.742-1.457-4.247C113.202,43.472,113.792,41.176,115.675,41.512
				c0.768,0.137,1.109-1.034,0.335-1.173c-1.602-0.285-2.818,0.57-3.524,1.984c-0.814,1.63-0.29,3.776,0.299,5.388
				c0.849,2.322,3.102,6.224,6.135,5.675c2.682-0.485,3.253-3.757,2.959-6.007c-0.45-3.451-2.463-6.086-5.869-7.04
				C115.252,40.128,114.917,41.3,115.675,41.512"/>
			<path fill="#C3A1CC" d="M132.212,38.461c1.317,2.397,1.724,5.067,0.864,7.69c-0.297,0.908-0.801,1.802-1.51,2.451
				c-1.098,1.002-2.479,0.024-3.151-0.938c-1.158-1.658-1.463-4.038-1.111-5.976c0.262-1.44,1.005-3.011,2.266-3.819
				C130.464,37.297,131.654,37.582,132.212,38.461c0.42,0.661,1.481,0.06,1.059-0.605c-0.622-0.981-1.643-1.523-2.805-1.5
				c-1.655,0.033-2.824,1.462-3.547,2.788c-1.524,2.791-1.191,6.457,0.438,9.127c0.708,1.161,1.944,2.031,3.337,1.946
				c1.316-0.078,2.22-1.122,2.852-2.173c1.886-3.131,1.419-7.103-0.274-10.188C132.893,37.167,131.833,37.77,132.212,38.461"/>
			<path fill="#C3A1CC" d="M142.242,43.559c0.532-0.344,1.134-0.711,1.79-0.543c1.096,0.282,1.499,2.147,1.576,3.083
				c0.202,2.434-0.561,5.951-3.118,6.945c-2.26,0.878-3.494-1.326-3.369-3.275c0.073-1.115,0.576-2.249,1.038-3.246
				C140.648,45.465,141.278,44.257,142.242,43.559c0.63-0.456,0.033-1.521-0.605-1.059c-1.251,0.907-2.02,2.304-2.657,3.681
				c-0.645,1.397-1.151,2.874-1.091,4.43c0.104,2.677,2.552,4.53,5.111,3.536c3.277-1.274,4.128-5.667,3.75-8.754
				c-0.156-1.273-0.929-3-2.218-3.486c-1.021-0.385-2.031,0.035-2.896,0.595C140.979,42.925,141.58,43.987,142.242,43.559"/>
		</g>
		<g>
			
				<rect x="38.01" y="37.71" transform="matrix(0.9995 0.0306 -0.0306 0.9995 1.9429 -1.9822)" fill="none" width="55.367" height="49.478"/>
			<path fill="#C3A1CC" d="M66.749,57.967c-5.363-0.101-10.154,2.678-13.266,6.965c-3.577,4.93-5.614,11.946-4.98,18.036
				c0.16,1.53,0.701,3.058,2.239,3.636c1.39,0.521,3.09-0.276,4.325-0.854c3.69-1.726,7.246-4.94,11.446-5.271
				c1.938-0.152,3.895,0.787,5.584,1.621c1.936,0.955,3.781,2.084,5.701,3.07c2.526,1.301,6.29,2.783,7.577-0.812
				c0.859-2.397,0.273-5.444-0.152-7.86c-0.566-3.216-1.886-6.293-3.683-9.011c-2.879-4.354-7.427-8.062-12.585-9.24
				C68.233,58.08,67.487,57.998,66.749,57.967c-0.974-0.042-0.943,1.467,0.024,1.508c5.399,0.229,10.277,4.265,13.265,8.484
				c1.979,2.796,3.219,6.023,3.812,9.387c0.342,1.941,1.093,5.598-0.305,7.336c-0.869,1.08-2.777,0.202-3.757-0.227
				c-1.917-0.838-3.712-1.95-5.55-2.943c-1.791-0.967-3.661-1.902-5.658-2.355c-1.869-0.424-3.694-0.045-5.45,0.64
				c-3.188,1.244-5.959,3.313-9.048,4.759c-0.877,0.41-2.212,1.01-3.156,0.488c-1.215-0.673-1.011-3.163-0.983-4.268
				c0.237-9.568,5.786-21.508,16.831-21.301C67.747,59.492,67.718,57.984,66.749,57.967"/>
			<path fill="#C3A1CC" d="M42.45,50.454c4.387,0.717,11.605,8.944,5.621,12.217c-3.104,1.698-5.451-2.198-6.554-4.422
				c-1.088-2.188-3.521-8.126,1.134-7.771c0.97,0.074,0.937-1.435-0.025-1.508c-2.025-0.155-3.674,0.925-4.212,2.9
				c-0.453,1.666,0.396,3.747,0.979,5.269c1.298,3.375,3.612,7.803,7.896,7.311c1.906-0.221,3.32-1.633,4.107-3.297
				c0.803-1.697,0.502-3.329-0.255-4.978c-1.398-3.043-4.877-6.619-8.313-7.18C41.874,48.838,41.491,50.297,42.45,50.454"/>
			<path fill="#C3A1CC" d="M57.365,40.056c2.794,1.55,4.277,4.024,4.364,7.202c0.058,2.167-0.511,5.406-2.79,6.356
				c-2.637,1.099-4.232-2.837-4.801-4.653c-0.558-1.782-0.776-3.671-0.535-5.526C53.828,41.705,55.197,39.112,57.365,40.056
				c0.885,0.385,1.63-0.926,0.74-1.314c-1.845-0.802-3.554-0.123-4.808,1.376c-1.446,1.728-1.432,4.459-1.185,6.567
				c0.355,3.037,1.948,8.375,5.754,8.586c3.364,0.184,4.989-3.587,5.281-6.379c0.447-4.28-1.218-8.028-5.043-10.15
				C57.253,38.269,56.515,39.584,57.365,40.056"/>
			<path fill="#C3A1CC" d="M78.134,41.125c0.897,3.262,0.622,6.589-1.164,9.499c-0.619,1.007-1.481,1.938-2.519,2.516
				c-1.607,0.892-2.99-0.681-3.521-2.031c-0.917-2.326-0.604-5.277,0.376-7.507c0.727-1.657,2.071-3.334,3.82-3.945
				C76.364,39.224,77.715,39.907,78.134,41.125c0.315,0.915,1.765,0.497,1.448-0.425c-0.467-1.358-1.54-2.304-2.944-2.609
				c-2-0.435-3.816,0.95-5.066,2.337c-2.633,2.921-3.283,7.426-2.089,11.104c0.519,1.601,1.757,3.001,3.457,3.299
				c1.606,0.283,2.992-0.714,4.054-1.798c3.166-3.225,3.742-8.138,2.589-12.333C79.324,39.762,77.876,40.185,78.134,41.125"/>
			<path fill="#C3A1CC" d="M88.738,50.132c0.739-0.262,1.568-0.531,2.308-0.141c1.239,0.653,1.188,3.012,1.013,4.159
				c-0.455,2.986-2.381,7-5.741,7.461c-2.971,0.41-3.824-2.594-3.114-4.904c0.407-1.321,1.338-2.541,2.179-3.608
				C86.274,51.968,87.379,50.695,88.738,50.132c0.888-0.368,0.475-1.821-0.424-1.448c-1.766,0.732-3.09,2.193-4.251,3.667
				c-1.177,1.496-2.209,3.127-2.582,5.016c-0.641,3.251,1.772,6.181,5.136,5.718c4.308-0.593,6.591-5.633,7.02-9.456
				c0.177-1.576-0.258-3.875-1.669-4.83c-1.118-0.755-2.453-0.54-3.653-0.114C87.402,49.007,87.819,50.457,88.738,50.132"/>
		</g>
		<g>
			
				<rect x="-10.424" y="9.625" transform="matrix(0.9277 0.3733 -0.3733 0.9277 15.9991 -5.4216)" fill="none" width="64.843" height="57.946"/>
			<path fill="#C3A1CC" d="M24.975,34.099c-5.854-2.276-12.242-1.157-17.395,2.3C1.656,40.374-3.415,47.264-5.178,54.215
				c-0.442,1.746-0.465,3.645,0.992,4.899c1.318,1.135,3.509,0.944,5.1,0.809c4.754-0.407,9.959-2.505,14.709-1.172
				c2.193,0.615,3.965,2.438,5.485,4.036c1.743,1.832,3.315,3.816,5.027,5.678c2.252,2.449,5.79,5.6,8.657,2.167
				c1.913-2.29,2.499-5.875,3.007-8.702c0.677-3.765,0.468-7.681-0.409-11.394c-1.406-5.95-4.908-11.86-10.103-15.239
				C26.562,34.823,25.774,34.431,24.975,34.099c-1.052-0.439-1.628,1.231-0.582,1.667c5.844,2.433,9.576,8.837,11.156,14.683
				c1.047,3.873,1.106,7.922,0.398,11.857c-0.407,2.272-1.058,6.596-3.296,7.941c-1.392,0.837-3.136-0.898-4.039-1.766
				c-1.769-1.695-3.294-3.643-4.913-5.477c-1.578-1.786-3.256-3.57-5.268-4.875c-1.883-1.22-4.043-1.541-6.249-1.497
				c-4.007,0.079-7.89,1.236-11.868,1.577c-1.131,0.098-2.84,0.219-3.666-0.736c-1.064-1.23,0.165-3.887,0.642-5.087
				c4.124-10.424,15.046-21.309,27.103-16.621C25.456,36.179,26.034,34.51,24.975,34.099"/>
			<path fill="#C3A1CC" d="M1.298,16.029c4.532,2.559,9.146,14.519,1.245,15.699c-4.098,0.613-5.104-4.618-5.42-7.508
				c-0.311-2.846-0.589-10.354,4.387-8.085c1.035,0.474,1.608-1.199,0.581-1.668c-2.164-0.988-4.412-0.466-5.802,1.487
				c-1.171,1.647-1.078,4.278-1.051,6.186c0.065,4.235,0.82,10.037,5.729,11.225c2.184,0.528,4.309-0.452,5.846-1.966
				c1.568-1.542,1.896-3.457,1.729-5.574c-0.309-3.909-2.688-9.245-6.239-11.25C1.316,14.019,0.308,15.469,1.298,16.029"/>
			<path fill="#C3A1CC" d="M21.893,10.621c2.445,2.832,3.077,6.151,1.889,9.68c-0.811,2.405-2.744,5.736-5.633,5.86
				c-3.342,0.144-3.507-4.828-3.398-7.054c0.106-2.184,0.629-4.349,1.643-6.291C17.339,11.004,19.891,8.708,21.893,10.621
				c0.816,0.78,2.166-0.36,1.345-1.146c-1.704-1.627-3.858-1.569-5.841-0.429c-2.287,1.315-3.375,4.324-3.955,6.741
				c-0.835,3.481-1.24,9.995,2.859,11.762c3.624,1.562,6.934-1.929,8.381-4.879c2.22-4.525,1.902-9.317-1.444-13.195
				C22.491,8.611,21.148,9.759,21.893,10.621"/>
			<path fill="#C3A1CC" d="M44.292,20.182c-0.331,3.948-1.978,7.495-5.115,9.972c-1.086,0.857-2.41,1.533-3.784,1.749
				c-2.128,0.331-3.012-1.957-3.052-3.655c-0.069-2.928,1.468-6.044,3.444-8.101c1.47-1.528,3.624-2.829,5.793-2.795
				C43.114,17.377,44.322,18.674,44.292,20.182c-0.023,1.133,1.739,1.259,1.763,0.118c0.035-1.682-0.763-3.154-2.184-4.056
				c-2.022-1.286-4.578-0.497-6.513,0.523c-4.073,2.148-6.606,6.837-6.78,11.363c-0.076,1.969,0.72,4.008,2.468,5.022
				c1.651,0.959,3.577,0.423,5.183-0.339c4.782-2.268,7.4-7.435,7.826-12.513C46.149,19.165,44.388,19.045,44.292,20.182"/>
			<path fill="#C3A1CC" d="M52.312,34.366c0.918,0.011,1.938,0.05,2.594,0.777c1.098,1.218,0.089,3.791-0.566,4.982
				c-1.706,3.099-5.444,6.732-9.324,5.884c-3.432-0.749-3.155-4.397-1.442-6.649c0.98-1.288,2.496-2.253,3.853-3.086
				C48.861,35.39,50.591,34.436,52.312,34.366c1.124-0.046,1.257-1.81,0.117-1.762c-2.236,0.092-4.282,1.163-6.153,2.313
				c-1.897,1.168-3.69,2.545-4.864,4.471c-2.017,3.314-0.547,7.51,3.338,8.359c4.975,1.087,9.519-3.531,11.535-7.561
				c0.831-1.661,1.281-4.364,0.114-5.983c-0.924-1.281-2.479-1.584-3.97-1.601C51.297,32.589,51.171,34.352,52.312,34.366"/>
		</g>
	</g>
</g>
<g>
	<g opacity="0.15">
		<g>
			<path fill="#9F73A8" d="M81,16.5c1.935,0,1.935-3,0-3S79.065,16.5,81,16.5L81,16.5z"/>
		</g>
	</g>
	<g opacity="0.15">
		<g>
			<path fill="#9F73A8" d="M267,26.5c1.935,0,1.935-3,0-3S265.065,26.5,267,26.5L267,26.5z"/>
		</g>
	</g>
	<g opacity="0.15">
		<g>
			<path fill="#9F73A8" d="M143,17.5c1.935,0,1.935-3,0-3S141.065,17.5,143,17.5L143,17.5z"/>
		</g>
	</g>
	<g opacity="0.15">
		<g>
			<path fill="#9F73A8" d="M134,91.5c1.935,0,1.935-3,0-3S132.065,91.5,134,91.5L134,91.5z"/>
		</g>
	</g>
	<g opacity="0.15">
		<g>
			<path fill="#9F73A8" d="M20,81.5c1.935,0,1.935-3,0-3S18.065,81.5,20,81.5L20,81.5z"/>
		</g>
	</g>
	<g opacity="0.15">
		<g>
			<path fill="#9F73A8" d="M338,85.5c1.935,0,1.935-3,0-3S336.065,85.5,338,85.5L338,85.5z"/>
		</g>
	</g>
	<g opacity="0.15">
		<g>
			<path fill="#9F73A8" d="M479,29.5c1.935,0,1.935-3,0-3S477.065,29.5,479,29.5L479,29.5z"/>
		</g>
	</g>
	<g opacity="0.15">
		<g>
			<path fill="#9F73A8" d="M410,91.5c1.935,0,1.935-3,0-3S408.065,91.5,410,91.5L410,91.5z"/>
		</g>
	</g>
	<g opacity="0.15">
		<g>
			<path fill="#9F73A8" d="M564,94.5c1.935,0,1.935-3,0-3S562.065,94.5,564,94.5L564,94.5z"/>
		</g>
	</g>
	<g opacity="0.15">
		<g>
			<path fill="#9F73A8" d="M618,16.5c1.935,0,1.935-3,0-3S616.065,16.5,618,16.5L618,16.5z"/>
		</g>
	</g>
	<g opacity="0.15">
		<g>
			<path fill="#9F73A8" d="M664,88.5c1.935,0,1.935-3,0-3S662.065,88.5,664,88.5L664,88.5z"/>
		</g>
	</g>
	<g opacity="0.15">
		<g>
			<path fill="#9F73A8" d="M752,26.5c1.935,0,1.935-3,0-3S750.065,26.5,752,26.5L752,26.5z"/>
		</g>
	</g>
	<g opacity="0.15">
		<g>
			<path fill="#9F73A8" d="M824,91.5c1.935,0,1.935-3,0-3S822.065,91.5,824,91.5L824,91.5z"/>
		</g>
	</g>
	<g opacity="0.15">
		<g>
			<path fill="#9F73A8" d="M883,23.5c1.935,0,1.935-3,0-3S881.065,23.5,883,23.5L883,23.5z"/>
		</g>
	</g>
	<g opacity="0.15">
		<g>
			<path fill="#9F73A8" d="M944,88.5c1.935,0,1.935-3,0-3S942.065,88.5,944,88.5L944,88.5z"/>
		</g>
	</g>
	<g opacity="0.15">
		<g>
			<path fill="#9F73A8" d="M1029,22.5c1.936,0,1.936-3,0-3S1027.064,22.5,1029,22.5L1029,22.5z"/>
		</g>
	</g>
	<g opacity="0.15">
		<g>
			<path fill="#9F73A8" d="M1116,85.5c1.936,0,1.936-3,0-3S1114.064,85.5,1116,85.5L1116,85.5z"/>
		</g>
	</g>
	<g opacity="0.15">
		<g>
			<path fill="#9F73A8" d="M1182,30.5c1.936,0,1.936-3,0-3S1180.064,30.5,1182,30.5L1182,30.5z"/>
		</g>
	</g>
	<g opacity="0.15">
		<g>
			<path fill="#9F73A8" d="M1269,20.5c1.936,0,1.936-3,0-3S1267.064,20.5,1269,20.5L1269,20.5z"/>
		</g>
	</g>
</g>
</svg>
